{
.appVersion = "1230";
DisplayStrings = (
EZ,
z,
"6"
);
classes = (
{
automatic = 1;

glyphs = (
{
color = 6;
glyphname = A;
lastChange = "2019-09-10 00:33:23 +0000";
layers = (
{
anchors = (
{
name = abovecomb;
position = "{416, 766}";
},
{
name = bottom;
position = "{414, 0}";
},
{
name = dotbelow;
position = "{424, 6}";
},
{
name = dotbelowcomb;
position = "{421, 7}";
},
{
name = greekcap;
position = "{206, 603}";
},
{
name = ogonek;
position = "{643, 0}";
},
{
name = polyomicron;
position = "{215, 605}";
},
{
name = top;
position = "{415, 759}";
}
);
hints = (
{
horizontal = 1;
origin = "{0, 7}";
type = Anchor;
options = 4;
},
{
horizontal = 1;
origin = "{0, 1}";
target = "{1, 2}";
type = TTStem;
options = 4;
},
{
horizontal = 1;
origin = "{1, 0}";
target = "{0, 6}";
type = TTStem;
options = 4;
}
);
layerId = "BA196CD0-EE58-4274-B8DF-4393D3617A29";
paths = (
{
closed = 1;
nodes = (
"214 -1 LINE",
"251 119 LINE",
"579 119 LINE",
"607 -1 LINE",
"748 -1 LINE",
"461 749 LINE",
"368 749 LINE",
"80 -1 LINE"
);
},
{
closed = 1;
nodes = (
"413 628 LINE",
"549 235 LINE",
"280 235 LINE"
);
}
);
width = 828;
},
{
anchors = (
{
name = abovecomb;
position = "{416, 781}";
},
{
name = bottom;
position = "{414, 0}";
},
{
name = dotbelow;
position = "{424, 6}";
},
{
name = dotbelowcomb;
position = "{421, 7}";
},
{
name = greekcap;
position = "{206, 603}";
},
{
name = ogonek;
position = "{643, 0}";
},
{
name = polyomicron;
position = "{215, 605}";
},
{
name = top;
position = "{415, 778}";
}
);
layerId = "BBDB329E-CE83-4304-A6B1-53EA5ACC004E";
paths = (
{
closed = 1;
nodes = (
"234 -27 LINE",
"271 92 LINE",
"558 92 LINE",
"586 -27 LINE",
"788 -27 LINE",
"479 756 LINE",
"350 756 LINE",
"40 -27 LINE"
);
},
{
closed = 1;
nodes = (
"413 577 LINE",
"512 262 LINE",
"317 262 LINE"
);
}
);
width = 828;
}
);
unicode = 0041;
},
{
glyphname = "Alpha-latin";
lastChange = "2019-09-05 19:28:15 +0000";
layers = (
{
anchors = (
{
name = bottom;
position = "{403, 0}";
},
{
name = ogonek;
position = "{564, 29}";
},
{
name = top;
position = "{392, 577}";
}
);
hints = (
{
horizontal = 1;
origin = "{0, 14}";
target = "{1, 14}";
type = TTStem;
options = 4;
},
{
horizontal = 1;
origin = "{1, 5}";
target = "{0, 2}";
type = TTStem;
options = 4;
},
{
horizontal = 1;
origin = "{0, 18}";
type = Anchor;
options = 4;
}
);
layerId = "BA196CD0-EE58-4274-B8DF-4393D3617A29";
paths = (
{
closed = 1;
nodes = (
"508 655 OFFCURVE",
"468 677 OFFCURVE",
"415 677 CURVE SMOOTH",
"405 677 OFFCURVE",
"394 676 OFFCURVE",
"382 674 CURVE SMOOTH",
"285 660 OFFCURVE",
"159 548 OFFCURVE",
"110 387 CURVE SMOOTH",
"89 318 OFFCURVE",
"80 261 OFFCURVE",
"80 214 CURVE SMOOTH",
"80 13 OFFCURVE",
"244 -14 OFFCURVE",
"371 -14 CURVE SMOOTH",
"451 -14 OFFCURVE",
"523 17 OFFCURVE",
"561 82 CURVE",
"561 0 LINE",
"669 0 LINE",
"669 75 OFFCURVE",
"649 60 OFFCURVE",
"649 329 CURVE SMOOTH",
"649 605 OFFCURVE",
"682 600 OFFCURVE",
"682 673 CURVE",
"587 673 LINE",
"563 602 LINE"
);
},
{
closed = 1;
nodes = (
"207 485 OFFCURVE",
"320 600 OFFCURVE",
"381 610 CURVE SMOOTH",
"391 612 OFFCURVE",
"402 613 OFFCURVE",
"415 613 CURVE SMOOTH",
"474 613 OFFCURVE",
"550 581 OFFCURVE",
"550 396 CURVE SMOOTH",
"550 368 OFFCURVE",
"548 335 OFFCURVE",
"544 299 CURVE SMOOTH",
"530 173 OFFCURVE",
"540 138 OFFCURVE",
"359 138 CURVE SMOOTH",
"235 138 OFFCURVE",
"156 205 OFFCURVE",
"156 296 CURVE SMOOTH",
"156 314 OFFCURVE",
"159 333 OFFCURVE",
"165 352 CURVE"
);
}
);
width = 762;
},
{
anchors = (
{
name = bottom;
position = "{350, 0}";
},
{
name = ogonek;
position = "{511, 29}";
},
{
name = top;
position = "{339, 577}";
}
);
layerId = "BBDB329E-CE83-4304-A6B1-53EA5ACC004E";
paths = (
{
closed = 1;
nodes = (
"451 688 OFFCURVE",
"410 704 OFFCURVE",
"362 704 CURVE SMOOTH",
"350 704 OFFCURVE",
"338 703 OFFCURVE",
"325 701 CURVE SMOOTH",
"205 683 OFFCURVE",
"79 551 OFFCURVE",
"31 395 CURVE SMOOTH",
"10 327 OFFCURVE",
"0 266 OFFCURVE",
"0 214 CURVE SMOOTH",
"0 43 OFFCURVE",
"108 -41 OFFCURVE",
"318 -41 CURVE SMOOTH",
"382 -41 OFFCURVE",
"439 -23 OFFCURVE",
"481 11 CURVE",
"481 -27 LINE",
"642 -27 LINE",
"649 54 OFFCURVE",
"623 95 OFFCURVE",
"623 329 CURVE SMOOTH",
"623 602 OFFCURVE",
"664 605 OFFCURVE",
"655 700 CURVE",
"515 700 LINE",
"498 649 LINE"
);
},
{
closed = 1;
nodes = (
"171 451 OFFCURVE",
"273 574 OFFCURVE",
"333 583 CURVE",
"341 585 OFFCURVE",
"350 586 OFFCURVE",
"362 586 CURVE SMOOTH",
"434 586 OFFCURVE",
"470 525 OFFCURVE",
"470 396 CURVE SMOOTH",
"470 368 OFFCURVE",
"468 336 OFFCURVE",
"464 302 CURVE SMOOTH",
"450 171 OFFCURVE",
"451 165 OFFCURVE",
"306 165 CURVE SMOOTH",
"200 165 OFFCURVE",
"130 218 OFFCURVE",
"130 296 CURVE SMOOTH",
"130 311 OFFCURVE",
"133 328 OFFCURVE",
"138 344 CURVE SMOOTH"
);
}
);
width = 656;
}
);
unicode = 2C6D;
},
{
color = 6;
glyphname = B;
lastChange = "2019-09-10 00:36:07 +0000";
layers = (
{
anchors = (
{
name = bottom;
position = "{342, 0}";
},
{
name = top;
position = "{344, 700}";
},
{
name = top_hook;
position = "{-59, 470}";
}
);
hints = (
{
horizontal = 1;
origin = "{2, 14}";
target = "{0, 9}";
type = TTStem;
options = 4;
},
{
horizontal = 1;
origin = "{0, 10}";
target = "{1, 6}";
type = TTStem;
options = 4;
},
{
horizontal = 1;
origin = "{1, 7}";
target = "{2, 13}";
type = TTStem;
options = 4;
}
);
layerId = "BA196CD0-EE58-4274-B8DF-4393D3617A29";
paths = (
{
closed = 1;
nodes = (
"408 389 OFFCURVE",
"443 370 OFFCURVE",
"455 357 CURVE SMOOTH",
"480 330 OFFCURVE",
"498 320 OFFCURVE",
"498 269 CURVE SMOOTH",
"498 181 OFFCURVE",
"443 145 OFFCURVE",
"337 145 CURVE SMOOTH",
"179 145 LINE",
"179 389 LINE",
"337 389 LINE SMOOTH"
);
},
{
closed = 1;
nodes = (
"421 674 OFFCURVE",
"458 633 OFFCURVE",
"458 569 CURVE SMOOTH",
"458 507 OFFCURVE",
"421 479 OFFCURVE",
"325 479 CURVE SMOOTH",
"179 479 LINE",
"179 674 LINE",
"325 674 LINE SMOOTH"
);
},
{
closed = 1;
nodes = (
"342 0 LINE SMOOTH",
"506 0 OFFCURVE",
"602 30 OFFCURVE",
"607 204 CURVE SMOOTH",
"611 352 OFFCURVE",
"559 413 OFFCURVE",
"430 434 CURVE",
"500 445 OFFCURVE",
"548 493 OFFCURVE",
"543 580 CURVE SMOOTH",
"537 685 OFFCURVE",
"458 750 OFFCURVE",
"308 750 CURVE SMOOTH",
"80 750 LINE",
"80 0 LINE"
);
}
);
width = 687;
},
{
anchors = (
{
name = bottom;
position = "{344, 0}";
},
{
name = top;
position = "{344, 700}";
},
{
name = top_hook;
position = "{-59, 470}";
}
);
layerId = "BBDB329E-CE83-4304-A6B1-53EA5ACC004E";
paths = (
{
closed = 1;
nodes = (
"386 321 OFFCURVE",
"418 313 OFFCURVE",
"437 296 CURVE SMOOTH",
"459 277 OFFCURVE",
"471 258 OFFCURVE",
"471 248 CURVE SMOOTH",
"471 188 OFFCURVE",
"445 172 OFFCURVE",
"337 172 CURVE SMOOTH",
"206 172 LINE",
"206 321 LINE",
"337 321 LINE SMOOTH"
);
},
{
closed = 1;
nodes = (
"401 636 OFFCURVE",
"441 601 OFFCURVE",
"441 538 CURVE SMOOTH",
"441 481 OFFCURVE",
"407 455 OFFCURVE",
"325 455 CURVE SMOOTH",
"206 455 LINE",
"206 636 LINE",
"325 636 LINE SMOOTH"
);
},
{
closed = 1;
nodes = (
"342 -27 LINE SMOOTH",
"506 -27 OFFCURVE",
"634 -27 OFFCURVE",
"634 204 CURVE SMOOTH",
"634 296 OFFCURVE",
"589 363 OFFCURVE",
"504 398 CURVE",
"547 429 OFFCURVE",
"570 481 OFFCURVE",
"570 549 CURVE SMOOTH",
"570 680 OFFCURVE",
"472 756 OFFCURVE",
"308 756 CURVE SMOOTH",
"53 756 LINE",
"53 -27 LINE"
);
}
);
width = 687;
}
);
unicode = 0042;
},
{
color = 6;
glyphname = C;
lastChange = "2019-09-10 13:35:53 +0000";
layers = (
{
anchors = (
{
name = bottom;
position = "{389, 0}";
},
{
name = top;
position = "{389, 729}";
},
{
name = top_hook;
position = "{616, 682}";
}
);
hints = (
{
horizontal = 1;
origin = "{0, 8}";
target = "{0, 15}";
type = TTStem;
options = 4;
},
{
horizontal = 1;
origin = "{0, 21}";
target = "{0, 2}";
type = TTStem;
options = 4;
}
);
layerId = "BA196CD0-EE58-4274-B8DF-4393D3617A29";
paths = (
{
closed = 1;
nodes = (
"542 743 OFFCURVE",
"514 759 OFFCURVE",
"426 748 CURVE SMOOTH",
"182 718 OFFCURVE",
"94 544 OFFCURVE",
"70 418 CURVE SMOOTH",
"27 191 OFFCURVE",
"115 5 OFFCURVE",
"305 -13 CURVE SMOOTH",
"389 -21 OFFCURVE",
"552 -8 OFFCURVE",
"608 9 CURVE",
"606 216 LINE",
"557 201 OFFCURVE",
"527 181 OFFCURVE",
"442 178 CURVE SMOOTH",
"277 172 OFFCURVE",
"155 250 OFFCURVE",
"186 418 CURVE SMOOTH",
"210 549 OFFCURVE",
"328 647 OFFCURVE",
"432 654 CURVE SMOOTH",
"475 657 OFFCURVE",
"540 647 OFFCURVE",
"597 637 CURVE",
"611 733 LINE"
);
}
);
width = 717;
},
{
anchors = (
{
name = bottom;
position = "{389, 0}";
},
{
name = top;
position = "{389, 748}";
},
{
name = top_hook;
position = "{616, 682}";
}
);
layerId = "BBDB329E-CE83-4304-A6B1-53EA5ACC004E";
paths = (
{
closed = 1;
nodes = (
"575 747 OFFCURVE",
"482 752 OFFCURVE",
"426 750 CURVE SMOOTH",
"190 742 OFFCURVE",
"88 622 OFFCURVE",
"53 397 CURVE SMOOTH",
"8 108 OFFCURVE",
"130 9 OFFCURVE",
"305 -11 CURVE SMOOTH",
"307 -11 OFFCURVE",
"422 -10 OFFCURVE",
"643 -11 CURVE",
"643 246 LINE",
"576 212 OFFCURVE",
"501 205 OFFCURVE",
"442 205 CURVE SMOOTH",
"270 205 OFFCURVE",
"196 266 OFFCURVE",
"193 397 CURVE SMOOTH",
"190 547 OFFCURVE",
"297 597 OFFCURVE",
"432 612 CURVE SMOOTH",
"496 619 OFFCURVE",
"548 611 OFFCURVE",
"635 592 CURVE",
"659 732 LINE"
);
}
);
width = 717;
}
);
unicode = 0043;
},
{
color = 6;
glyphname = D;
lastChange = "2019-09-11 01:06:14 +0000";
layers = (
{
anchors = (
{
name = bottom;
position = "{387, 0}";
},
{
name = dash;
position = "{201, 378}";
},
{
name = hook_top;
position = "{68, 734}";
},
{
name = top;
position = "{361, 791}";
}
);
hints = (
{
horizontal = 1;
origin = "{0, 8}";
target = "{1, 8}";
type = TTStem;
options = 4;
},
{
horizontal = 1;
origin = "{1, 0}";
target = "{0, 7}";
type = TTStem;
options = 4;
}
);
layerId = "BA196CD0-EE58-4274-B8DF-4393D3617A29";
paths = (
{
closed = 1;
nodes = (
"283 0 LINE SMOOTH",
"495 0 OFFCURVE",
"745 58 OFFCURVE",
"702 372 CURVE SMOOTH",
"677 557 OFFCURVE",
"566 751 OFFCURVE",
"283 751 CURVE SMOOTH",
"80 751 LINE",
"80 0 LINE"
);
},
{
closed = 1;
nodes = (
"184 632 LINE",
"303 632 LINE SMOOTH",
"504 632 OFFCURVE",
"557 505 OFFCURVE",
"573 393 CURVE SMOOTH",
"592 261 OFFCURVE",
"555 190 OFFCURVE",
"303 190 CURVE SMOOTH",
"184 190 LINE"
);
}
);
width = 773;
},
{
anchors = (
{
name = bottom;
position = "{387, 0}";
},
{
name = dash;
position = "{201, 378}";
},
{
name = hook_top;
position = "{68, 669}";
},
{
name = top;
position = "{354, 766}";
}
);
layerId = "BBDB329E-CE83-4304-A6B1-53EA5ACC004E";
paths = (
{
closed = 1;
nodes = (
"283 -1 LINE SMOOTH",
"565 -1 OFFCURVE",
"720 -1 OFFCURVE",
"720 365 CURVE SMOOTH",
"720 631 OFFCURVE",
"580 756 OFFCURVE",
"283 756 CURVE SMOOTH",
"53 756 LINE",
"53 -1 LINE"
);
},
{
closed = 1;
nodes = (
"211 632 LINE",
"303 632 LINE SMOOTH",
"494 632 OFFCURVE",
"586 553 OFFCURVE",
"586 393 CURVE SMOOTH",
"586 266 OFFCURVE",
"510 217 OFFCURVE",
"303 217 CURVE SMOOTH",
"211 217 LINE"
);
}
);
width = 773;
}
);
unicode = 0044;
},
{
color = 6;
glyphname = E;
lastChange = "2019-09-10 00:43:40 +0000";
layers = (
{
anchors = (
{
name = bottom;
position = "{331, 0}";
},
{
name = ogonek;
position = "{342, 9}";
},
{
name = top;
position = "{332, 798}";
},
{
name = topleft;
position = "{25, 700}";
}
);
hints = (
{
horizontal = 1;
origin = "{0, 11}";
target = "{0, 2}";
type = TTStem;
options = 4;
},
{
horizontal = 1;
place = "{646.5, 68.5}";
type = TTStem;
options = 4;
}
);
layerId = "BA196CD0-EE58-4274-B8DF-4393D3617A29";
paths = (
{
closed = 1;
nodes = (
"563 0 LINE",
"530 151 LINE",
"197 151 LINE",
"197 331 LINE",
"442 347 LINE",
"442 450 LINE",
"197 439 LINE",
"197 637 LINE",
"527 656 LINE",
"548 750 LINE",
"104 736 LINE",
"80 0 LINE"
);
}
);
width = 643;
},
{
anchors = (
{
name = bottom;
position = "{331, 0}";
},
{
name = ogonek;
position = "{342, 9}";
},
{
name = top;
position = "{332, 766}";
},
{
name = topleft;
position = "{25, 700}";
}
);
layerId = "BBDB329E-CE83-4304-A6B1-53EA5ACC004E";
paths = (
{
closed = 1;
nodes = (
"597 -27 LINE",
"552 178 LINE",
"224 178 LINE",
"224 306 LINE",
"469 322 LINE",
"469 458 LINE",
"224 447 LINE",
"224 612 LINE",
"548 630 LINE",
"584 757 LINE",
"78 741 LINE",
"52 -27 LINE"
);
}
);
width = 643;
}
);
unicode = 0045;
},
{
color = 6;
glyphname = F;
lastChange = "2019-09-10 00:44:27 +0000";
layers = (
{
anchors = (
{
name = bottom;
position = "{292, 0}";
},
{
name = bottom_hook;
position = "{114, -38}";
},
{
name = top;
position = "{292, 700}";
}
);
hints = (
{
horizontal = 1;
origin = "{0, 9}";
type = Anchor;
options = 4;
},
{
horizontal = 1;
place = "{357, 102}";
type = TTStem;
options = 4;
},
{
horizontal = 1;
place = "{654.5, 68.5}";
type = TTStem;
options = 4;
}
);
layerId = "BA196CD0-EE58-4274-B8DF-4393D3617A29";
paths = (
{
closed = 1;
nodes = (
"217 0 LINE",
"195 369 LINE",
"457 387 LINE",
"457 489 LINE",
"190 471 LINE",
"214 667 LINE",
"503 684 LINE",
"503 750 LINE",
"119 738 LINE",
"80 0 LINE"
);
}
);
width = 583;
},
{
anchors = (
{
name = bottom;
position = "{292, 0}";
},
{
name = bottom_hook;
position = "{114, -38}";
},
{
name = top;
position = "{292, 700}";
}
);
layerId = "BBDB329E-CE83-4304-A6B1-53EA5ACC004E";
paths = (
{
closed = 1;
nodes = (
"239 -27 LINE",
"222 323 LINE",
"484 341 LINE",
"484 497 LINE",
"220 479 LINE",
"237 620 LINE",
"530 638 LINE",
"530 757 LINE",
"93 743 LINE",
"51 -27 LINE"
);
}
);
width = 583;
}
);
unicode = 0046;
},
{
color = 6;
glyphname = G;
lastChange = "2019-09-10 00:51:38 +0000";
layers = (
{
anchors = (
{
name = bottom;
position = "{411, 0}";
},
{
name = top;
position = "{436, 799}";
},
{
name = top_hook;
position = "{616, 715}";
}
);
hints = (
{
horizontal = 1;
origin = "{0, 31}";
target = "{0, 12}";
type = TTStem;
options = 4;
},
{
horizontal = 1;
origin = "{0, 18}";
target = "{0, 25}";
type = TTStem;
options = 4;
}
);
layerId = "BA196CD0-EE58-4274-B8DF-4393D3617A29";
paths = (
{
closed = 1;
nodes = (
"516 -14 OFFCURVE",
"620 -4 OFFCURVE",
"702 50 CURVE",
"692 257 LINE",
"759 245 LINE",
"742 341 LINE",
"460 373 LINE",
"474 295 LINE",
"607 272 LINE",
"605 182 LINE",
"581 157 OFFCURVE",
"522 147 OFFCURVE",
"452 147 CURVE SMOOTH",
"274 147 OFFCURVE",
"205 184 OFFCURVE",
"205 374 CURVE SMOOTH",
"205 598 OFFCURVE",
"274 664 OFFCURVE",
"452 669 CURVE SMOOTH",
"501 670 OFFCURVE",
"608 669 OFFCURVE",
"654 639 CURVE",
"643 726 LINE",
"619 747 OFFCURVE",
"539 754 OFFCURVE",
"444 750 CURVE SMOOTH",
"233 740 OFFCURVE",
"66 707 OFFCURVE",
"80 364 CURVE SMOOTH",
"90 116 OFFCURVE",
"136 -14 OFFCURVE",
"444 -14 CURVE SMOOTH"
);
}
);
width = 839;
},
{
anchors = (
{
name = bottom;
position = "{411, -20}";
},
{
name = top;
position = "{441, 746}";
},
{
name = top_hook;
position = "{616, 700}";
}
);
layerId = "BBDB329E-CE83-4304-A6B1-53EA5ACC004E";
paths = (
{
closed = 1;
nodes = (
"555 180 OFFCURVE",
"514 172 OFFCURVE",
"452 172 CURVE SMOOTH",
"276 172 OFFCURVE",
"217 221 OFFCURVE",
"211 375 CURVE",
"211 580 OFFCURVE",
"286 638 OFFCURVE",
"452 638 CURVE SMOOTH",
"535 638 OFFCURVE",
"622 627 OFFCURVE",
"686 608 CURVE",
"667 745 LINE",
"623 753 OFFCURVE",
"511 763 OFFCURVE",
"444 763 CURVE SMOOTH",
"162 763 OFFCURVE",
"53 573 OFFCURVE",
"53 384 CURVE SMOOTH",
"53 163 OFFCURVE",
"200 -10 OFFCURVE",
"444 -10 CURVE",
"577 -10 OFFCURVE",
"674 43 OFFCURVE",
"730 57 CURVE",
"720 219 LINE",
"791 218 LINE",
"765 366 LINE",
"430 404 LINE",
"445 255 LINE",
"578 237 LINE",
"578 195 LINE"
);
}
);
width = 839;
}
);
unicode = 0047;
},
{
color = 6;
glyphname = H;
lastChange = "2019-09-10 00:49:44 +0000";
layers = (
{
anchors = (
{
name = bottom;
position = "{386, 0}";
},
{
name = caccent;
position = "{715, 153}";
},
{
name = center;
position = "{383, 365}";
},
{
name = eng;
position = "{622, 52}";
},
{
name = gram;
position = "{723, 323}";
},
{
name = greek_top;
position = "{46, 654}";
},
{
name = mark;
position = "{775, 682}";
},
{
name = top;
position = "{391, 810}";
},
{
name = top_hook;
position = "{-29, 473}";
},
{
name = topleft;
position = "{25, 700}";
}
);
hints = (
{
horizontal = 1;
origin = "{0, 0}";
type = Anchor;
options = 4;
},
{
horizontal = 1;
origin = "{2, 0}";
target = "{2, 3}";
type = TTStem;
options = 4;
}
);
layerId = "BA196CD0-EE58-4274-B8DF-4393D3617A29";
paths = (
{
closed = 1;
nodes = (
"80 0 LINE",
"232 0 LINE",
"204 750 LINE",
"100 750 LINE"
);
},
{
closed = 1;
nodes = (
"532 0 LINE",
"691 0 LINE",
"660 750 LINE",
"556 750 LINE"
);
},
{
closed = 1;
nodes = (
"181 187 LINE",
"575 187 LINE",
"582 353 LINE",
"181 353 LINE"
);
}
);
width = 771;
},
{
anchors = (
{
name = bottom;
position = "{386, 0}";
},
{
name = caccent;
position = "{715, 153}";
},
{
name = center;
position = "{383, 365}";
},
{
name = eng;
position = "{622, 52}";
},
{
name = gram;
position = "{723, 323}";
},
{
name = greek_top;
position = "{46, 654}";
},
{
name = mark;
position = "{775, 682}";
},
{
name = top;
position = "{391, 810}";
},
{
name = top_hook;
position = "{-29, 473}";
},
{
name = topleft;
position = "{25, 700}";
}
);
layerId = "BBDB329E-CE83-4304-A6B1-53EA5ACC004E";
paths = (
{
closed = 1;
nodes = (
"52 -1 LINE",
"260 -1 LINE",
"230 756 LINE",
"74 756 LINE"
);
},
{
closed = 1;
nodes = (
"504 -1 LINE",
"719 -1 LINE",
"686 756 LINE",
"530 756 LINE"
);
},
{
closed = 1;
nodes = (
"154 160 LINE",
"601 160 LINE",
"610 359 LINE",
"154 359 LINE"
);
}
);
width = 771;
}
);
unicode = 0048;
},
{
color = 6;
glyphname = I;
lastChange = "2019-09-10 00:52:09 +0000";
layers = (
{
anchors = (
{
name = bottom;
position = "{155, 4}";
},
{
name = ogonek;
position = "{131, 0}";
},
{
name = top;
position = "{144, 779}";
},
{
name = topleft;
position = "{25, 700}";
}
);
hints = (
{
horizontal = 1;
origin = "{0, 7}";
type = Anchor;
options = 4;
}
);
layerId = "BA196CD0-EE58-4274-B8DF-4393D3617A29";
paths = (
{
closed = 1;
nodes = (
"220 0 LINE",
"194 243 OFFCURVE",
"184 513 OFFCURVE",
"194 750 CURVE",
"85 750 LINE",
"95 653 OFFCURVE",
"111 292 OFFCURVE",
"80 0 CURVE"
);
}
);
width = 300;
},
{
anchors = (
{
name = bottom;
position = "{155, -50}";
},
{
name = ogonex;
position = "{143, 16}";
},
{
name = top;
position = "{144, 885}";
},
{
name = topleft;
position = "{25, 700}";
}
);
layerId = "BBDB329E-CE83-4304-A6B1-53EA5ACC004E";
paths = (
{
closed = 1;
nodes = (
"250 -1 LINE",
"220 269 OFFCURVE",
"210 510 OFFCURVE",
"222 756 CURVE",
"55 756 LINE",
"69 626 OFFCURVE",
"85 295 OFFCURVE",
"50 -1 CURVE"
);
}
);
width = 300;
}
);
unicode = 0049;
},
{
color = 6;
glyphname = J;
lastChange = "2019-09-10 00:53:50 +0000";
layers = (
{
anchors = (
{
name = bottom;
position = "{241, 0}";
},
{
name = top;
position = "{282, 729}";
}
);
hints = (
{
horizontal = 1;
origin = "{0, 6}";
type = Anchor;
options = 4;
}
);
layerId = "BA196CD0-EE58-4274-B8DF-4393D3617A29";
paths = (
{
closed = 1;
nodes = (
"286 750 LINE",
"411 750 LINE",
"377 54 LINE SMOOTH",
"368 -122 OFFCURVE",
"312 -209 OFFCURVE",
"146 -211 CURVE",
"80 -205 LINE",
"87 -44 LINE",
"137 -55 LINE SMOOTH",
"222 -74 OFFCURVE",
"261 7 OFFCURVE",
"263 60 CURVE SMOOTH"
);
}
);
width = 481;
},
{
anchors = (
{
name = bottom;
position = "{241, 0}";
},
{
name = top;
position = "{282, 729}";
}
);
layerId = "BBDB329E-CE83-4304-A6B1-53EA5ACC004E";
paths = (
{
closed = 1;
nodes = (
"226 -41 OFFCURVE",
"121 -14 OFFCURVE",
"76 -3 CURVE SMOOTH",
"-27 23 LINE",
"-63 -179 LINE",
"110 -200 LINE SMOOTH",
"259 -218 OFFCURVE",
"374 -161 OFFCURVE",
"394 29 CURVE SMOOTH",
"471 750 LINE",
"301 750 LINE",
"238 86 LINE SMOOTH"
);
}
);
width = 481;
}
);
unicode = 004A;
},
{
color = 6;
glyphname = K;
lastChange = "2019-09-10 00:55:09 +0000";
layers = (
{
anchors = (
{
name = bottom;
position = "{294, 12}";
},
{
name = top;
position = "{331, 759}";
},
{
name = top_hook;
position = "{636, 504}";
}
);
hints = (
{
horizontal = 1;
origin = "{0, 10}";
type = Anchor;
options = 4;
}
);
layerId = "BA196CD0-EE58-4274-B8DF-4393D3617A29";
paths = (
{
closed = 1;
nodes = (
"208 0 LINE",
"220 291 LINE",
"417 0 LINE",
"650 0 LINE",
"312 349 LINE",
"555 751 LINE",
"428 751 LINE",
"220 401 LINE",
"233 751 LINE",
"145 751 LINE",
"80 0 LINE"
);
}
);
width = 730;
},
{
anchors = (
{
name = bottom;
position = "{312, 0}";
},
{
name = top;
position = "{370, 729}";
},
{
name = top_hook;
position = "{587, 515}";
}
);
layerId = "BBDB329E-CE83-4304-A6B1-53EA5ACC004E";
paths = (
{
closed = 1;
nodes = (
"234 -1 LINE",
"234 205 LINE",
"403 -1 LINE",
"717 -1 LINE",
"346 331 LINE",
"603 756 LINE",
"412 756 LINE",
"251 469 LINE",
"274 756 LINE",
"120 756 LINE",
"50 -1 LINE"
);
}
);
width = 730;
}
);
unicode = 004B;
},
{
color = 6;
glyphname = L;
lastChange = "2019-09-10 00:57:20 +0000";
layers = (
{
anchors = (
{
name = "_ circumflexbelowcomb";
position = "{320, -16}";
},
{
name = bottom;
position = "{317, -21}";
},
{
name = center;
position = "{315, 350}";
},
{
name = right;
position = "{274, 644}";
},
{
name = top;
position = "{151, 771}";
},
{
name = topright;
position = "{604, 700}";
}
);
hints = (
{
horizontal = 1;
place = "{0, 148}";
type = TTStem;
options = 4;
}
);
layerId = "BA196CD0-EE58-4274-B8DF-4393D3617A29";
paths = (
{
closed = 1;
nodes = (
"549 0 LINE",
"549 161 LINE",
"184 145 LINE",
"204 750 LINE",
"116 750 LINE",
"80 0 LINE"
);
}
);
width = 629;
},
{
anchors = (
{
name = "_ circumflexbelowcomb";
position = "{320, -26}";
},
{
name = bottom;
position = "{317, -21}";
},
{
name = center;
position = "{315, 350}";
},
{
name = right;
position = "{322, 644}";
},
{
name = top;
position = "{143, 779}";
},
{
name = topright;
position = "{604, 700}";
}
);
layerId = "BBDB329E-CE83-4304-A6B1-53EA5ACC004E";
paths = (
{
closed = 1;
nodes = (
"578 -1 LINE",
"578 188 LINE",
"211 172 LINE",
"211 756 LINE",
"80 756 LINE",
"52 -1 LINE"
);
}
);
width = 629;
}
);
unicode = 004C;
},
{
color = 6;
glyphname = M;
lastChange = "2019-09-10 13:23:34 +0000";
layers = (
{
anchors = (
{
name = _top;
position = "{408, 663}";
},
{
name = bottom;
position = "{437, 0}";
},
{
name = hookbelow;
position = "{801, 157}";
},
{
name = top;
position = "{443, 719}";
}
);
hints = (
{
horizontal = 1;
origin = "{0, 12}";
type = Anchor;
options = 4;
},
{
horizontal = 1;
origin = "{0, 1}";
target = "{0, 11}";
type = TTStem;
options = 4;
}
);
layerId = "BA196CD0-EE58-4274-B8DF-4393D3617A29";
paths = (
{
closed = 1;
nodes = (
"223 0 LINE",
"187 552 LINE",
"385 63 LINE",
"494 63 LINE",
"673 552 LINE",
"633 0 LINE",
"823 0 LINE",
"763 750 LINE",
"626 750 LINE",
"442 289 LINE",
"253 750 LINE",
"103 750 LINE",
"62 0 LINE"
);
}
);
width = 874;
},
{
anchors = (
{
name = _top;
position = "{408, 663}";
},
{
name = bottom;
position = "{437, 0}";
},
{
name = hookbelow;
position = "{801, 157}";
},
{
name = top;
position = "{437, 700}";
}
);
layerId = "BBDB329E-CE83-4304-A6B1-53EA5ACC004E";
paths = (
{
closed = 1;
nodes = (
"252 -1 LINE",
"215 477 LINE",
"374 36 LINE",
"514 36 LINE",
"649 481 LINE",
"604 -1 LINE",
"822 -1 LINE",
"789 756 LINE",
"608 756 LINE",
"442 358 LINE",
"271 756 LINE",
"80 756 LINE",
"52 -1 LINE"
);
}
);
width = 874;
}
);
unicode = 004D;
},
{
color = 6;
glyphname = N;
lastChange = "2019-09-10 13:24:51 +0000";
layers = (
{
anchors = (
{
name = _;
position = "{415, 0}";
},
{
name = bottom;
position = "{379, 0}";
},
{
name = eng;
position = "{564, 12}";
},
{
name = top;
position = "{415, 729}";
}
);
hints = (
{
horizontal = 1;
origin = "{0, 9}";
type = Anchor;
options = 4;
},
{
horizontal = 1;
origin = "{0, 8}";
type = Anchor;
options = 4;
},
{
horizontal = 1;
origin = "{0, 8}";
target = "{0, 1}";
type = TTStem;
options = 4;
},
{
horizontal = 1;
origin = "{0, 9}";
target = "{0, 6}";
type = TTStem;
options = 4;
}
);
layerId = "BA196CD0-EE58-4274-B8DF-4393D3617A29";
paths = (
{
closed = 1;
nodes = (
"243 0 LINE",
"234 522 LINE",
"483 0 LINE",
"657 0 LINE",
"697 749 LINE",
"586 749 LINE",
"537 139 LINE",
"261 722 LINE",
"138 722 LINE",
"80 0 LINE"
);
}
);
width = 757;
},
{
anchors = (
{
name = _;
position = "{415, 0}";
},
{
name = bottom;
position = "{379, 0}";
},
{
name = eng;
position = "{564, 12}";
},
{
name = top;
position = "{415, 729}";
}
);
layerId = "BBDB329E-CE83-4304-A6B1-53EA5ACC004E";
paths = (
{
closed = 1;
nodes = (
"279 0 LINE",
"261 465 LINE",
"458 0 LINE",
"663 0 LINE",
"706 750 LINE",
"561 750 LINE",
"518 238 LINE",
"278 742 LINE",
"113 742 LINE",
"51 0 LINE"
);
}
);
width = 757;
}
);
unicode = 004E;
},
{
color = 6;
glyphname = O;
lastChange = "2019-09-10 01:03:32 +0000";
layers = (
{
anchors = (
{
name = abovecomb;
position = "{413, 811}";
},
{
name = bottom;
position = "{418, -54}";
},
{
name = center;
position = "{418, 387}";
},
{
name = horn;
position = "{641, 639}";
},
{
name = ogonek;
position = "{748, 10}";
},
{
name = polyomicron;
position = "{114, 672}";
},
{
name = top;
position = "{414, 815}";
},
{
name = topleft;
position = "{25, 700}";
},
{
name = topright;
position = "{810, 700}";
}
);
hints = (
{
horizontal = 1;
origin = "{1, 5}";
target = "{0, 5}";
type = TTStem;
options = 4;
},
{
horizontal = 1;
origin = "{0, 11}";
target = "{1, 11}";
type = TTStem;
options = 4;
}
);
layerId = "BA196CD0-EE58-4274-B8DF-4393D3617A29";
paths = (
{
closed = 1;
nodes = (
"561 672 OFFCURVE",
"651 516 OFFCURVE",
"651 364 CURVE SMOOTH",
"651 213 OFFCURVE",
"561 173 OFFCURVE",
"418 173 CURVE SMOOTH",
"275 173 OFFCURVE",
"184 213 OFFCURVE",
"184 364 CURVE SMOOTH",
"184 516 OFFCURVE",
"275 672 OFFCURVE",
"418 672 CURVE SMOOTH"
);
},
{
closed = 1;
nodes = (
"213 752 OFFCURVE",
"80 634 OFFCURVE",
"80 374 CURVE SMOOTH",
"80 114 OFFCURVE",
"185 -12 OFFCURVE",
"418 -14 CURVE SMOOTH",
"672 -16 OFFCURVE",
"749 114 OFFCURVE",
"755 374 CURVE SMOOTH",
"761 644 OFFCURVE",
"623 752 OFFCURVE",
"418 752 CURVE SMOOTH"
);
}
);
width = 835;
},
{
anchors = (
{
name = abovecomb;
position = "{413, 811}";
},
{
name = bottom;
position = "{418, -54}";
},
{
name = center;
position = "{418, 387}";
},
{
name = horn;
position = "{641, 639}";
},
{
name = ogonek;
position = "{748, 10}";
},
{
name = polyomicron;
position = "{114, 672}";
},
{
name = top;
position = "{414, 815}";
},
{
name = topleft;
position = "{25, 700}";
},
{
name = topright;
position = "{810, 700}";
}
);
layerId = "BBDB329E-CE83-4304-A6B1-53EA5ACC004E";
paths = (
{
closed = 1;
nodes = (
"543 645 OFFCURVE",
"624 536 OFFCURVE",
"624 364 CURVE SMOOTH",
"624 245 OFFCURVE",
"568 200 OFFCURVE",
"418 200 CURVE SMOOTH",
"268 200 OFFCURVE",
"211 246 OFFCURVE",
"211 364 CURVE SMOOTH",
"211 536 OFFCURVE",
"293 645 OFFCURVE",
"418 645 CURVE SMOOTH"
);
},
{
closed = 1;
nodes = (
"197 769 OFFCURVE",
"53 608 OFFCURVE",
"53 364 CURVE SMOOTH",
"53 82 OFFCURVE",
"146 -21 OFFCURVE",
"418 -23 CURVE SMOOTH",
"695 -25 OFFCURVE",
"775 65 OFFCURVE",
"782 363 CURVE SMOOTH",
"788 606 OFFCURVE",
"640 769 OFFCURVE",
"418 769 CURVE SMOOTH"
);
}
);
width = 835;
}
);
unicode = 004F;
},
{
color = 6;
glyphname = P;
lastChange = "2019-09-10 13:28:46 +0000";
layers = (
{
anchors = (
{
name = bottom;
position = "{323, 0}";
},
{
name = top;
position = "{323, 700}";
},
{
name = top_hook;
position = "{-36, 455}";
}
);
hints = (
{
horizontal = 1;
origin = "{0, 10}";
type = Anchor;
options = 4;
},
{
horizontal = 1;
place = "{277, 139}";
type = TTStem;
options = 4;
},
{
horizontal = 1;
origin = "{0, 9}";
target = "{1, 0}";
type = TTStem;
options = 4;
}
);
layerId = "BA196CD0-EE58-4274-B8DF-4393D3617A29";
paths = (
{
closed = 1;
nodes = (
"228 0 LINE",
"208 339 LINE",
"327 345 LINE SMOOTH",
"491 353 OFFCURVE",
"579 418 OFFCURVE",
"566 570 CURVE SMOOTH",
"555 696 OFFCURVE",
"491 791 OFFCURVE",
"307 791 CURVE SMOOTH",
"121 791 LINE",
"80 0 LINE"
);
},
{
closed = 1;
nodes = (
"203 726 LINE",
"311 726 LINE SMOOTH",
"441 726 OFFCURVE",
"470 654 OFFCURVE",
"470 614 CURVE SMOOTH",
"470 506 OFFCURVE",
"435 488 OFFCURVE",
"337 484 CURVE SMOOTH",
"203 478 LINE"
);
}
);
width = 646;
},
{
anchors = (
{
name = bottom;
position = "{323, 0}";
},
{
name = top;
position = "{323, 700}";
},
{
name = top_hook;
position = "{-36, 455}";
}
);
layerId = "BBDB329E-CE83-4304-A6B1-53EA5ACC004E";
paths = (
{
closed = 1;
nodes = (
"257 -27 LINE",
"237 318 LINE",
"328 323 LINE SMOOTH",
"505 333 OFFCURVE",
"599 465 OFFCURVE",
"593 591 CURVE SMOOTH",
"586 730 OFFCURVE",
"475 829 OFFCURVE",
"307 829 CURVE SMOOTH",
"96 829 LINE",
"51 -27 LINE"
);
},
{
closed = 1;
nodes = (
"230 710 LINE",
"311 710 LINE SMOOTH",
"392 710 OFFCURVE",
"472 676 OFFCURVE",
"472 635 CURVE SMOOTH",
"472 553 OFFCURVE",
"433 537 OFFCURVE",
"336 532 CURVE SMOOTH",
"230 527 LINE"
);
}
);
width = 646;
}
);
unicode = 0050;
},
{
glyphname = Thorn;
lastChange = "2019-09-05 19:28:15 +0000";
layers = (
{
hints = (
{
horizontal = 1;
origin = "{0, 0}";
type = Anchor;
options = 4;
},
{
horizontal = 1;
origin = "{1, 8}";
target = "{2, 11}";
type = TTStem;
options = 4;
},
{
horizontal = 1;
origin = "{2, 5}";
target = "{1, 5}";
type = TTStem;
options = 4;
},
{
horizontal = 1;
origin = "{0, 3}";
type = Anchor;
options = 4;
},
{
horizontal = 1;
origin = "{0, 3}";
target = "{2, 5}";
type = TTStem;
options = 4;
}
);
layerId = "BA196CD0-EE58-4274-B8DF-4393D3617A29";
paths = (
{
closed = 1;
nodes = (
"80 0 LINE",
"168 0 LINE",
"168 700 LINE",
"80 700 LINE"
);
},
{
closed = 1;
nodes = (
"301 144 OFFCURVE",
"480 245 OFFCURVE",
"480 371 CURVE SMOOTH",
"480 496 OFFCURVE",
"300 597 OFFCURVE",
"156 597 CURVE",
"92 459 OFFCURVE",
"90 282 OFFCURVE",
"156 144 CURVE"
);
},
{
closed = 1;
nodes = (
"155 231 OFFCURVE",
"107 329 OFFCURVE",
"107 375 CURVE SMOOTH",
"107 421 OFFCURVE",
"150 520 OFFCURVE",
"203 520 CURVE SMOOTH",
"255 520 OFFCURVE",
"409 421 OFFCURVE",
"409 375 CURVE SMOOTH",
"409 329 OFFCURVE",
"260 231 OFFCURVE",
"208 231 CURVE SMOOTH"
);
}
);
width = 560;
},
{
layerId = "BBDB329E-CE83-4304-A6B1-53EA5ACC004E";
paths = (
{
closed = 1;
nodes = (
"53 -27 LINE",
"195 -27 LINE",
"195 727 LINE",
"53 727 LINE"
);
},
{
closed = 1;
nodes = (
"156 117 LINE",
"334 117 OFFCURVE",
"507 240 OFFCURVE",
"507 371 CURVE SMOOTH",
"507 501 OFFCURVE",
"333 624 OFFCURVE",
"156 624 CURVE",
"132 608 LINE",
"63 461 OFFCURVE",
"63 275 OFFCURVE",
"132 132 CURVE"
);
},
{
closed = 1;
nodes = (
"180 258 OFFCURVE",
"134 331 OFFCURVE",
"134 375 CURVE SMOOTH",
"134 421 OFFCURVE",
"176 493 OFFCURVE",
"203 493 CURVE SMOOTH",
"244 493 OFFCURVE",
"382 400 OFFCURVE",
"382 375 CURVE SMOOTH",
"382 350 OFFCURVE",
"249 258 OFFCURVE",
"208 258 CURVE SMOOTH"
);
}
);
width = 560;
}
);
unicode = 00DE;
},
{
color = 6;
glyphname = Q;
lastChange = "2019-09-10 13:38:28 +0000";
layers = (
{
anchors = (
{
name = bottom;
position = "{435, 0}";
},
{
name = top;
position = "{435, 700}";
}
);
hints = (
{
horizontal = 1;
origin = "{0, 13}";
target = "{1, 16}";
type = TTStem;
options = 4;
},
{
horizontal = 1;
origin = "{1, 5}";
target = "{0, 7}";
type = TTStem;
options = 4;
}
);
layerId = "BA196CD0-EE58-4274-B8DF-4393D3617A29";
paths = (
{
closed = 1;
nodes = (
"793 -129 LINE",
"636 44 LINE",
"695 108 OFFCURVE",
"755 197 OFFCURVE",
"755 369 CURVE SMOOTH",
"755 601 OFFCURVE",
"625 751 OFFCURVE",
"418 751 CURVE SMOOTH",
"211 751 OFFCURVE",
"76 572 OFFCURVE",
"76 369 CURVE SMOOTH",
"76 42 OFFCURVE",
"213 -13 OFFCURVE",
"413 -13 CURVE SMOOTH",
"424 -13 OFFCURVE",
"433 -13 OFFCURVE",
"454 -11 CURVE",
"558 -129 LINE"
);
},
{
closed = 1;
nodes = (
"298 157 OFFCURVE",
"185 156 OFFCURVE",
"185 369 CURVE SMOOTH",
"185 525 OFFCURVE",
"273 670 OFFCURVE",
"418 670 CURVE SMOOTH",
"562 670 OFFCURVE",
"650 555 OFFCURVE",
"650 369 CURVE SMOOTH",
"650 292 OFFCURVE",
"621 188 OFFCURVE",
"591 188 CURVE SMOOTH",
"550 188 OFFCURVE",
"495 209 OFFCURVE",
"441 238 CURVE",
"408 161 LINE",
"354 159 LINE SMOOTH"
);
}
);
width = 869;
},
{
anchors = (
{
name = bottom;
position = "{435, 0}";
},
{
name = top;
position = "{435, 700}";
}
);
layerId = "BBDB329E-CE83-4304-A6B1-53EA5ACC004E";
paths = (
{
closed = 1;
nodes = (
"850 -156 LINE",
"670 42 LINE",
"746 134 OFFCURVE",
"779 232 OFFCURVE",
"779 364 CURVE SMOOTH",
"779 610 OFFCURVE",
"637 769 OFFCURVE",
"418 769 CURVE SMOOTH",
"210 769 OFFCURVE",
"53 595 OFFCURVE",
"53 364 CURVE SMOOTH",
"53 92 OFFCURVE",
"186 -58 OFFCURVE",
"443 -40 CURVE",
"545 -156 LINE"
);
},
{
closed = 1;
nodes = (
"298 181 OFFCURVE",
"214 180 OFFCURVE",
"214 364 CURVE SMOOTH",
"214 519 OFFCURVE",
"291 635 OFFCURVE",
"418 635 CURVE SMOOTH",
"544 635 OFFCURVE",
"621 535 OFFCURVE",
"621 364 CURVE SMOOTH",
"621 269 OFFCURVE",
"603 212 OFFCURVE",
"589 212 CURVE SMOOTH",
"553 212 OFFCURVE",
"496 233 OFFCURVE",
"428 272 CURVE",
"390 184 LINE",
"354 183 LINE SMOOTH"
);
}
);
width = 869;
}
);
unicode = 0051;
},
{
color = 6;
glyphname = R;
lastChange = "2019-09-10 19:10:14 +0000";
layers = (
{
anchors = (
{
name = bottom;
position = "{320, 0}";
},
{
name = bottom_hook;
position = "{125, -20}";
},
{
name = top;
position = "{320, 729}";
}
);
hints = (
{
horizontal = 1;
origin = "{0, 7}";
type = Anchor;
options = 4;
},
{
horizontal = 1;
place = "{294.02, 110.98}";
type = TTStem;
options = 4;
},
{
horizontal = 1;
origin = "{1, 7}";
target = "{0, 6}";
type = TTStem;
options = 4;
}
);
layerId = "BA196CD0-EE58-4274-B8DF-4393D3617A29";
paths = (
{
closed = 1;
nodes = (
"494 394 OFFCURVE",
"536 443 OFFCURVE",
"536 540 CURVE SMOOTH",
"536 681 OFFCURVE",
"450 750 OFFCURVE",
"303 750 CURVE SMOOTH",
"125 750 LINE",
"80 0 LINE",
"237 0 LINE",
"220 303 LINE",
"272 312 LINE SMOOTH",
"332 322 OFFCURVE",
"439 315 OFFCURVE",
"434 208 CURVE SMOOTH",
"425 0 LINE",
"605 0 LINE",
"548 220 LINE SMOOTH",
"517 341 OFFCURVE",
"468 354 OFFCURVE",
"426 383 CURVE"
);
},
{
closed = 1;
nodes = (
"388 668 OFFCURVE",
"456 635 OFFCURVE",
"456 540 CURVE SMOOTH",
"456 497 OFFCURVE",
"388 446 OFFCURVE",
"313 446 CURVE SMOOTH",
"189 446 LINE",
"189 668 LINE",
"313 668 LINE SMOOTH"
);
}
);
width = 685;
},
{
anchors = (
{
name = bottom;
position = "{320, 0}";
},
{
name = bottom_hook;
position = "{125, -20}";
},
{
name = top;
position = "{320, 729}";
}
);
layerId = "BBDB329E-CE83-4304-A6B1-53EA5ACC004E";
paths = (
{
closed = 1;
nodes = (
"535 382 OFFCURVE",
"563 439 OFFCURVE",
"563 519 CURVE SMOOTH",
"563 671 OFFCURVE",
"469 750 OFFCURVE",
"303 750 CURVE SMOOTH",
"100 750 LINE",
"51 4 LINE",
"266 4 LINE",
"248 260 LINE",
"297 284 LINE SMOOTH",
"373 321 OFFCURVE",
"410 250 OFFCURVE",
"407 188 CURVE SMOOTH",
"397 4 LINE",
"641 4 LINE",
"574 206 LINE SMOOTH",
"556 260 OFFCURVE",
"524 316 OFFCURVE",
"483 353 CURVE"
);
},
{
closed = 1;
nodes = (
"397 650 OFFCURVE",
"439 607 OFFCURVE",
"439 519 CURVE SMOOTH",
"439 476 OFFCURVE",
"378 432 OFFCURVE",
"313 432 CURVE SMOOTH",
"216 432 LINE",
"216 650 LINE",
"313 650 LINE SMOOTH"
);
}
);
width = 685;
}
);
unicode = 0052;
},
{
color = 6;
glyphname = S;
lastChange = "2019-09-10 19:28:43 +0000";
layers = (
{
anchors = (
{
name = bottom;
position = "{375, 13}";
},
{
name = top;
position = "{375, 729}";
}
);
hints = (
{
horizontal = 1;
origin = "{0, 22}";
target = "{0, 15}";
type = TTStem;
options = 4;
},
{
horizontal = 1;
origin = "{0, 35}";
target = "{0, 2}";
type = TTStem;
options = 4;
}
);
layerId = "BA196CD0-EE58-4274-B8DF-4393D3617A29";
paths = (
{
closed = 1;
nodes = (
"527 755 OFFCURVE",
"421 759 OFFCURVE",
"383 759 CURVE SMOOTH",
"199 759 OFFCURVE",
"127 663 OFFCURVE",
"127 534 CURVE SMOOTH",
"127 423 OFFCURVE",
"189 364 OFFCURVE",
"336 335 CURVE SMOOTH",
"396 323 LINE SMOOTH",
"485 305 OFFCURVE",
"515 275 OFFCURVE",
"514 228 CURVE SMOOTH",
"512 155 OFFCURVE",
"443 158 OFFCURVE",
"393 158 CURVE SMOOTH",
"338 158 OFFCURVE",
"200 158 OFFCURVE",
"162 187 CURVE",
"55 37 LINE",
"139 -22 OFFCURVE",
"232 -14 OFFCURVE",
"361 -14 CURVE SMOOTH",
"596 -14 OFFCURVE",
"714 87 OFFCURVE",
"714 207 CURVE SMOOTH",
"714 326 OFFCURVE",
"575 407 OFFCURVE",
"425 437 CURVE SMOOTH",
"366 449 LINE SMOOTH",
"279 467 OFFCURVE",
"226 475 OFFCURVE",
"231 539 CURVE SMOOTH",
"237 616 OFFCURVE",
"318 644 OFFCURVE",
"424 652 CURVE SMOOTH",
"523 659 OFFCURVE",
"526 641 OFFCURVE",
"576 636 CURVE",
"591 741 LINE"
);
}
);
width = 760;
},
{
anchors = (
{
name = bottom;
position = "{375, 13}";
},
{
name = top;
position = "{375, 759}";
}
);
layerId = "BBDB329E-CE83-4304-A6B1-53EA5ACC004E";
paths = (
{
closed = 1;
nodes = (
"596 -16 OFFCURVE",
"717 71 OFFCURVE",
"717 201 CURVE SMOOTH",
"717 324 OFFCURVE",
"610 408 OFFCURVE",
"430 443 CURVE SMOOTH",
"371 455 LINE SMOOTH",
"279 475 OFFCURVE",
"257 509 OFFCURVE",
"257 549 CURVE SMOOTH",
"257 591 OFFCURVE",
"338 644 OFFCURVE",
"394 644 CURVE SMOOTH",
"421 644 OFFCURVE",
"492 632 OFFCURVE",
"539 615 CURVE",
"608 738 LINE",
"575 750 OFFCURVE",
"463 767 OFFCURVE",
"383 767 CURVE SMOOTH",
"209 767 OFFCURVE",
"104 687 OFFCURVE",
"104 534 CURVE SMOOTH",
"104 409 OFFCURVE",
"172 340 OFFCURVE",
"331 309 CURVE SMOOTH",
"391 297 LINE SMOOTH",
"420 291 OFFCURVE",
"535 241 OFFCURVE",
"535 209 CURVE SMOOTH",
"535 168 OFFCURVE",
"478 111 OFFCURVE",
"343 147 CURVE SMOOTH",
"270 166 OFFCURVE",
"176 211 OFFCURVE",
"163 222 CURVE",
"34 52 LINE",
"156 -19 OFFCURVE",
"314 -16 OFFCURVE",
"361 -16 CURVE SMOOTH"
);
}
);
width = 760;
}
);
unicode = 0053;
},
{
glyphname = Saltillo;
lastChange = "2019-09-02 15:01:09 +0000";
layers = (
{
layerId = "BA196CD0-EE58-4274-B8DF-4393D3617A29";
paths = (
{
closed = 1;
nodes = (
"158 120 LINE",
"261 120 LINE",
"312 763 LINE",
"80 763 LINE"
);
}
);
width = 392;
},
{
layerId = "BBDB329E-CE83-4304-A6B1-53EA5ACC004E";
paths = (
{
closed = 1;
nodes = (
"238 93 LINE",
"390 93 LINE",
"445 790 LINE",
"154 790 LINE"
);
}
);
width = 600;
}
);
unicode = A78B;
},
{
color = 6;
glyphname = T;
lastChange = "2019-09-10 19:11:35 +0000";
layers = (
{
anchors = (
{
name = bottom;
position = "{388, 0}";
},
{
name = bottom_hook;
position = "{417, -29}";
},
{
name = center;
position = "{388, 365}";
},
{
name = hook_top;
position = "{107, 691}";
},
{
name = top;
position = "{388, 729}";
}
);
hints = (
{
horizontal = 1;
origin = "{0, 7}";
type = Anchor;
options = 4;
},
{
horizontal = 1;
place = "{651, 78}";
type = TTStem;
options = 4;
}
);
layerId = "BA196CD0-EE58-4274-B8DF-4393D3617A29";
paths = (
{
closed = 1;
nodes = (
"458 0 LINE",
"438 657 LINE",
"697 647 LINE",
"697 750 LINE",
"80 750 LINE",
"80 637 LINE",
"339 657 LINE",
"310 0 LINE"
);
}
);
width = 777;
},
{
anchors = (
{
name = bottom;
position = "{388, -30}";
},
{
name = bottom_hook;
position = "{417, -29}";
},
{
name = center;
position = "{388, 365}";
},
{
name = hook_top;
position = "{133, 691}";
},
{
name = top;
position = "{388, 763}";
}
);
layerId = "BBDB329E-CE83-4304-A6B1-53EA5ACC004E";
paths = (
{
closed = 1;
nodes = (
"311 625 LINE",
"292 -1 LINE",
"486 -1 LINE",
"466 625 LINE",
"724 615 LINE",
"724 753 LINE",
"53 753 LINE",
"53 615 LINE"
);
}
);
width = 777;
}
);
unicode = 0054;
},
{
color = 6;
glyphname = U;
lastChange = "2019-09-10 19:14:30 +0000";
layers = (
{
anchors = (
{
name = bottom;
position = "{378, 0}";
},
{
name = horn;
position = "{688, 672}";
},
{
name = ogonek;
position = "{526, 35}";
},
{
name = top;
position = "{380, 809}";
},
{
name = top_hook;
position = "{621, 663}";
},
{
name = topright;
position = "{731, 700}";
}
);
hints = (
{
horizontal = 1;
origin = "{0, 2}";
target = "{0, 11}";
type = TTStem;
options = 4;
}
);
layerId = "BA196CD0-EE58-4274-B8DF-4393D3617A29";
paths = (
{
closed = 1;
nodes = (
"106 -14 OFFCURVE",
"191 -3 OFFCURVE",
"376 -3 CURVE SMOOTH",
"559 -3 OFFCURVE",
"641 -14 OFFCURVE",
"654 274 CURVE SMOOTH",
"676 750 LINE",
"526 750 LINE",
"540 374 LINE SMOOTH",
"548 162 OFFCURVE",
"482 162 OFFCURVE",
"376 162 CURVE SMOOTH",
"269 162 OFFCURVE",
"202 162 OFFCURVE",
"210 374 CURVE SMOOTH",
"224 750 LINE",
"80 750 LINE",
"96 274 LINE SMOOTH"
);
}
);
width = 756;
},
{
anchors = (
{
name = bottom;
position = "{376, -51}";
},
{
name = horn;
position = "{688, 672}";
},
{
name = ogonek;
position = "{526, 35}";
},
{
name = top;
position = "{380, 858}";
},
{
name = top_hook;
position = "{601, 685}";
},
{
name = topright;
position = "{731, 700}";
}
);
layerId = "BBDB329E-CE83-4304-A6B1-53EA5ACC004E";
paths = (
{
closed = 1;
nodes = (
"80 -41 OFFCURVE",
"191 -11 OFFCURVE",
"376 -11 CURVE SMOOTH",
"559 -11 OFFCURVE",
"666 -41 OFFCURVE",
"681 273 CURVE SMOOTH",
"704 756 LINE",
"498 756 LINE",
"513 353 LINE SMOOTH",
"518 219 OFFCURVE",
"502 199 OFFCURVE",
"376 199 CURVE SMOOTH",
"249 199 OFFCURVE",
"232 219 OFFCURVE",
"237 353 CURVE SMOOTH",
"252 756 LINE",
"52 756 LINE",
"69 273 LINE SMOOTH"
);
}
);
width = 756;
}
);
unicode = 0055;
},
{
color = 6;
glyphname = V;
lastChange = "2019-09-10 19:15:23 +0000";
layers = (
{
anchors = (
{
name = bottom;
position = "{414, 0}";
},
{
name = top;
position = "{414, 739}";
},
{
name = top_hook;
position = "{677, 622}";
}
);
hints = (
{
horizontal = 1;
origin = "{0, 6}";
target = "{0, 3}";
type = TTStem;
options = 4;
}
);
layerId = "BA196CD0-EE58-4274-B8DF-4393D3617A29";
paths = (
{
closed = 1;
nodes = (
"758 750 LINE",
"646 750 LINE",
"428 214 LINE",
"381 214 LINE",
"183 750 LINE",
"70 750 LINE",
"307 0 LINE",
"511 0 LINE"
);
}
);
width = 828;
},
{
anchors = (
{
name = bottom;
position = "{414, 0}";
},
{
name = top;
position = "{414, 752}";
},
{
name = top_hook;
position = "{677, 622}";
}
);
layerId = "BBDB329E-CE83-4304-A6B1-53EA5ACC004E";
paths = (
{
closed = 1;
nodes = (
"785 756 LINE",
"628 756 LINE",
"410 261 LINE",
"400 261 LINE",
"202 756 LINE",
"43 756 LINE",
"287 -27 LINE",
"531 -27 LINE"
);
}
);
width = 828;
}
);
unicode = 0056;
},
{
glyphname = Gammaafrican;
lastChange = "2019-09-05 19:28:16 +0000";
layers = (
{
hints = (
{
horizontal = 1;
origin = "{0, 23}";
target = "{0, 10}";
type = TTStem;
options = 4;
},
{
horizontal = 1;
origin = "{0, 4}";
type = Anchor;
options = 4;
}
);
layerId = "BA196CD0-EE58-4274-B8DF-4393D3617A29";
paths = (
{
closed = 1;
nodes = (
"272 749 CURVE SMOOTH",
"260 771 OFFCURVE",
"256 775 OFFCURVE",
"239 800 CURVE",
"80 800 LINE",
"93 780 OFFCURVE",
"118 738 OFFCURVE",
"126 726 CURVE SMOOTH",
"554 16 OFFCURVE",
"631 -78 OFFCURVE",
"464 -73 CURVE SMOOTH",
"252 -67 OFFCURVE",
"357 98 OFFCURVE",
"813 713 CURVE SMOOTH",
"820 723 OFFCURVE",
"869 783 OFFCURVE",
"882 800 CURVE",
"698 800 LINE",
"686 783 OFFCURVE",
"688 789 OFFCURVE",
"678 772 CURVE SMOOTH",
"263 93 OFFCURVE",
"-60 -194 OFFCURVE",
"468 -200 CURVE SMOOTH",
"905 -205 OFFCURVE",
"650 27 OFFCURVE"
);
}
);
width = 962;
},
{
layerId = "BBDB329E-CE83-4304-A6B1-53EA5ACC004E";
paths = (
{
closed = 1;
nodes = (
"949 -233 OFFCURVE",
"655 62 OFFCURVE",
"289 762 CURVE SMOOTH",
"273 791 OFFCURVE",
"268 794 OFFCURVE",
"246 827 CURVE",
"23 827 LINE",
"63 767 OFFCURVE",
"87 725 OFFCURVE",
"96 712 CURVE",
"529 -6 OFFCURVE",
"572 -49 OFFCURVE",
"458 -46 CURVE SMOOTH",
"305 -42 OFFCURVE",
"348 49 OFFCURVE",
"828 697 CURVE",
"823 690 OFFCURVE",
"846 716 OFFCURVE",
"939 827 CURVE",
"677 827 LINE",
"657 797 OFFCURVE",
"660 806 OFFCURVE",
"648 786 CURVE SMOOTH",
"245 127 OFFCURVE",
"-119 -220 OFFCURVE",
"461 -227 CURVE SMOOTH"
);
}
);
width = 948;
}
);
unicode = 0194;
},
{
color = 6;
glyphname = W;
lastChange = "2019-09-10 19:17:28 +0000";
layers = (
{
anchors = (
{
name = bottom;
position = "{542, 0}";
},
{
name = top;
position = "{539, 729}";
},
{
name = top_hook;
position = "{1066, 500}";
}
);
hints = (
{
horizontal = 1;
origin = "{0, 12}";
type = Anchor;
options = 4;
}
);
layerId = "BA196CD0-EE58-4274-B8DF-4393D3617A29";
paths = (
{
closed = 1;
nodes = (
"397 0 LINE",
"542 364 LINE",
"676 0 LINE",
"820 0 LINE",
"1003 751 LINE",
"888 751 LINE",
"740 206 LINE",
"582 543 LINE",
"496 543 LINE",
"323 216 LINE",
"195 750 LINE",
"80 750 LINE",
"243 0 LINE"
);
}
);
width = 1083;
},
{
anchors = (
{
name = bottom;
position = "{542, 0}";
},
{
name = top;
position = "{539, 729}";
},
{
name = top_hook;
position = "{1066, 500}";
}
);
layerId = "BBDB329E-CE83-4304-A6B1-53EA5ACC004E";
paths = (
{
closed = 1;
nodes = (
"416 -1 LINE",
"541 313 LINE",
"657 -1 LINE",
"841 -1 LINE",
"1028 756 LINE",
"858 756 LINE",
"735 271 LINE",
"599 570 LINE",
"480 570 LINE",
"330 279 LINE",
"215 756 LINE",
"56 756 LINE",
"221 -1 LINE"
);
}
);
width = 1083;
}
);
unicode = 0057;
},
{
color = 6;
glyphname = X;
lastChange = "2019-09-10 19:25:17 +0000";
layers = (
{
anchors = (
{
name = bottom;
position = "{395, 0}";
},
{
name = bottom_hook;
position = "{618, 21}";
},
{
name = top;
position = "{395, 700}";
}
);
hints = (
{
horizontal = 1;
origin = "{1, 1}";
type = Anchor;
options = 4;
}
);
layerId = "BA196CD0-EE58-4274-B8DF-4393D3617A29";
paths = (
{
closed = 1;
nodes = (
"560 -1 LINE",
"729 -1 LINE",
"197 750 LINE",
"98 750 LINE"
);
},
{
closed = 1;
nodes = (
"60 -1 LINE",
"231 -1 LINE",
"705 750 LINE",
"607 750 LINE"
);
}
);
width = 789;
},
{
anchors = (
{
name = bottom;
position = "{395, 0}";
},
{
name = bottom_hook;
position = "{618, 21}";
},
{
name = top;
position = "{395, 700}";
}
);
layerId = "BBDB329E-CE83-4304-A6B1-53EA5ACC004E";
paths = (
{
closed = 1;
nodes = (
"525 -1 LINE",
"760 -1 LINE",
"221 756 LINE",
"61 756 LINE"
);
},
{
closed = 1;
nodes = (
"28 -1 LINE",
"256 -1 LINE",
"733 757 LINE",
"583 757 LINE"
);
}
);
width = 789;
}
);
unicode = 0058;
},
{
color = 6;
glyphname = Y;
lastChange = "2019-09-10 19:26:45 +0000";
layers = (
{
anchors = (
{
name = bottom;
position = "{382, 0}";
},
{
name = top;
position = "{382, 785}";
},
{
name = top_hook;
position = "{735, 500}";
},
{
name = topleft;
position = "{25, 700}";
}
);
hints = (
{
horizontal = 1;
origin = "{0, 0}";
type = Anchor;
options = 4;
}
);
layerId = "BA196CD0-EE58-4274-B8DF-4393D3617A29";
paths = (
{
closed = 1;
nodes = (
"264 -1 LINE",
"447 -1 LINE",
"447 262 LINE",
"684 751 LINE",
"578 751 LINE",
"383 408 LINE",
"186 751 LINE",
"80 751 LINE",
"314 262 LINE"
);
}
);
width = 764;
},
{
anchors = (
{
name = bottom;
position = "{382, 0}";
},
{
name = top;
position = "{375, 829}";
},
{
name = top_hook;
position = "{735, 500}";
},
{
name = topleft;
position = "{-31, 700}";
}
);
layerId = "BBDB329E-CE83-4304-A6B1-53EA5ACC004E";
paths = (
{
closed = 1;
nodes = (
"266 -1 LINE",
"483 -1 LINE",
"474 244 LINE",
"727 756 LINE",
"562 756 LINE",
"383 434 LINE",
"202 756 LINE",
"37 756 LINE",
"287 244 LINE"
);
}
);
width = 764;
}
);
unicode = 0059;
},
{
color = 6;
glyphname = Z;
lastChange = "2019-09-10 19:30:54 +0000";
layers = (
{
anchors = (
{
name = bottom;
position = "{403, 0}";
},
{
name = center;
position = "{403, 350}";
},
{
name = top;
position = "{400, 729}";
}
);
layerId = "BA196CD0-EE58-4274-B8DF-4393D3617A29";
paths = (
{
closed = 1;
nodes = (
"162 751 LINE",
"725 751 LINE",
"715 606 LINE",
"313 146 LINE",
"696 146 LINE",
"743 6 LINE",
"80 0 LINE",
"80 139 LINE",
"562 628 LINE",
"207 624 LINE"
);
}
);
width = 805;
},
{
anchors = (
{
name = bottom;
position = "{403, 0}";
},
{
name = center;
position = "{403, 350}";
},
{
name = top;
position = "{400, 729}";
}
);
layerId = "BBDB329E-CE83-4304-A6B1-53EA5ACC004E";
paths = (
{
closed = 1;
nodes = (
"471 584 LINE",
"53 151 LINE",
"53 -28 LINE",
"741 -20 LINE",
"676 173 LINE",
"375 173 LINE",
"752 606 LINE",
"752 750 LINE",
"103 750 LINE",
"182 589 LINE"
);
}
);
width = 805;
}
);
unicode = 005A;
},
{
color = 6;
glyphname = A.ss04;
lastChange = "2019-09-11 00:52:10 +0000";
layers = (
{
anchors = (
{
name = abovecomb;
position = "{416, 766}";
},
{
name = bottom;
position = "{414, 0}";
},
{
name = dotbelow;
position = "{424, 6}";
},
{
name = dotbelowcomb;
position = "{421, 7}";
},
{
name = greekcap;
position = "{206, 603}";
},
{
name = ogonek;
position = "{643, 0}";
},
{
name = polyomicron;
position = "{215, 605}";
},
{
name = top;
position = "{415, 759}";
}
);
components = (
{
name = A;
}
);
hints = (
{
horizontal = 1;
place = "{0, -2147483648}";
type = Anchor;
options = 4;
},
{
horizontal = 1;
place = "{119, 116}";
type = TTStem;
options = 4;
},
{
horizontal = 1;
place = "{668, 61}";
type = TTStem;
options = 4;
}
);
layerId = "BA196CD0-EE58-4274-B8DF-4393D3617A29";
width = 828;
},
{
components = (
{
name = A;
}
);
layerId = "BBDB329E-CE83-4304-A6B1-53EA5ACC004E";
width = 828;
},
{
anchors = (
{
name = abovecomb;
position = "{416, 766}";
},
{
name = bottom;
position = "{414, 0}";
},
{
name = dotbelow;
position = "{424, 6}";
},
{
name = dotbelowcomb;
position = "{421, 7}";
},
{
name = greekcap;
position = "{206, 603}";
},
{
name = ogonek;
position = "{643, 0}";
},
{
name = polyomicron;
position = "{215, 605}";
},
{
name = top;
position = "{415, 759}";
}
);
associatedMasterId = "BA196CD0-EE58-4274-B8DF-4393D3617A29";
hints = (
{
horizontal = 1;
origin = "{0, 7}";
type = Anchor;
options = 4;
},
{
horizontal = 1;
origin = "{0, 1}";
target = "{1, 2}";
type = TTStem;
options = 4;
},
{
horizontal = 1;
origin = "{1, 0}";
target = "{0, 6}";
type = TTStem;
options = 4;
}
);
layerId = "6F6A83AD-A718-4118-AA76-F1B8543D1E4F";
name = "Color 5";
paths = (
{
closed = 1;
nodes = (
"214 0 LINE",
"251 119 LINE",
"579 119 LINE",
"607 0 LINE",
"748 0 LINE",
"461 729 LINE",
"368 729 LINE",
"80 0 LINE"
);
},
{
closed = 1;
nodes = (
"413 668 LINE",
"549 235 LINE",
"280 235 LINE"
);
}
);
width = 828;
},
{
anchors = (
{
name = abovecomb;
position = "{416, 766}";
},
{
name = bottom;
position = "{414, 0}";
},
{
name = dotbelow;
position = "{424, 6}";
},
{
name = dotbelowcomb;
position = "{421, 7}";
},
{
name = greekcap;
position = "{206, 603}";
},
{
name = ogonek;
position = "{643, 0}";
},
{
name = polyomicron;
position = "{215, 605}";
},
{
name = top;
position = "{415, 759}";
}
);
associatedMasterId = "BA196CD0-EE58-4274-B8DF-4393D3617A29";
hints = (
{
horizontal = 1;
origin = "{0, 2}";
type = Anchor;
options = 4;
},
{
horizontal = 1;
place = "{119, 116}";
type = TTStem;
options = 4;
},
{
horizontal = 1;
origin = "{0, 0}";
type = TTStem;
options = 4;
}
);
layerId = "07D05CEA-5E39-4640-A058-C390E1A93066";
name = "Color 7";
paths = (
{
closed = 1;
nodes = (
"413 668 LINE",
"549 235 LINE",
"280 235 LINE"
);
}
);
width = 828;
},
{
anchors = (
{
name = abovecomb;
position = "{416, 781}";
},
{
name = bottom;
position = "{414, 0}";
},
{
name = dotbelow;
position = "{424, 6}";
},
{
name = dotbelowcomb;
position = "{421, 7}";
},
{
name = greekcap;
position = "{206, 603}";
},
{
name = ogonek;
position = "{643, 0}";
},
{
name = polyomicron;
position = "{215, 605}";
},
{
name = top;
position = "{415, 778}";
}
);
associatedMasterId = "BBDB329E-CE83-4304-A6B1-53EA5ACC004E";
layerId = "DF79A186-69F1-425A-AAE1-4D5EF622CB65";
name = "Color 5";
paths = (
{
closed = 1;
nodes = (
"234 -27 LINE",
"271 92 LINE",
"558 92 LINE",
"586 -27 LINE",
"788 -27 LINE",
"479 756 LINE",
"350 756 LINE",
"40 -27 LINE"
);
},
{
closed = 1;
nodes = (
"413 577 LINE",
"512 262 LINE",
"317 262 LINE"
);
}
);
width = 828;
},
{
anchors = (
{
name = abovecomb;
position = "{416, 781}";
},
{
name = bottom;
position = "{414, 0}";
},
{
name = dotbelow;
position = "{424, 6}";
},
{
name = dotbelowcomb;
position = "{421, 7}";
},
{
name = greekcap;
position = "{206, 603}";
},
{
name = ogonek;
position = "{643, 0}";
},
{
name = polyomicron;
position = "{215, 605}";
},
{
name = top;
position = "{415, 778}";
}
);
associatedMasterId = "BBDB329E-CE83-4304-A6B1-53EA5ACC004E";
layerId = "CC0971C2-F722-4992-8877-605FF4D62017";
name = "Color 7";
paths = (
{
closed = 1;
nodes = (
"413 577 LINE",
"512 262 LINE",
"317 262 LINE"
);
}
);
width = 828;
}
);
},
{
color = 6;
glyphname = B.ss04;
lastChange = "2019-09-11 00:52:21 +0000";
layers = (
{
anchors = (
{
name = bottom;
position = "{344, 0}";
},
{
name = top;
position = "{344, 700}";
},
{
name = top_hook;
position = "{-59, 470}";
}
);
components = (
{
name = B;
}
);
hints = (
{
horizontal = 1;
place = "{0, 145}";
type = TTStem;
options = 4;
},
{
horizontal = 1;
place = "{348, 80}";
type = TTStem;
options = 4;
},
{
horizontal = 1;
place = "{663, 66}";
type = TTStem;
options = 4;
}
);
layerId = "BA196CD0-EE58-4274-B8DF-4393D3617A29";
width = 687;
},
{
components = (
{
name = B;
}
);
layerId = "BBDB329E-CE83-4304-A6B1-53EA5ACC004E";
width = 687;
},
{
anchors = (
{
name = bottom;
position = "{344, 0}";
},
{
name = top;
position = "{344, 700}";
},
{
name = top_hook;
position = "{-59, 470}";
}
);
associatedMasterId = "BA196CD0-EE58-4274-B8DF-4393D3617A29";
hints = (
{
horizontal = 1;
origin = "{0, 14}";
target = "{1, 11}";
type = TTStem;
options = 4;
},
{
horizontal = 1;
origin = "{1, 0}";
target = "{2, 8}";
type = TTStem;
options = 4;
},
{
horizontal = 1;
origin = "{2, 0}";
target = "{0, 13}";
type = TTStem;
options = 4;
}
);
layerId = "14442314-FC35-403A-8A63-0A4B4BF9DA44";
name = "Color 5";
paths = (
{
closed = 1;
nodes = (
"342 0 LINE SMOOTH",
"506 0 OFFCURVE",
"607 0 OFFCURVE",
"607 204 CURVE SMOOTH",
"607 303 OFFCURVE",
"549 372 OFFCURVE",
"420 393 CURVE",
"500 406 OFFCURVE",
"543 459 OFFCURVE",
"543 549 CURVE SMOOTH",
"543 664 OFFCURVE",
"458 729 OFFCURVE",
"308 729 CURVE SMOOTH",
"80 729 LINE",
"80 0 LINE"
);
},
{
closed = 1;
nodes = (
"179 348 LINE",
"337 348 LINE SMOOTH",
"390 348 OFFCURVE",
"430 338 OFFCURVE",
"455 316 CURVE SMOOTH",
"481 293 OFFCURVE",
"498 268 OFFCURVE",
"498 248 CURVE SMOOTH",
"498 160 OFFCURVE",
"443 145 OFFCURVE",
"337 145 CURVE SMOOTH",
"179 145 LINE"
);
},
{
closed = 1;
nodes = (
"179 663 LINE",
"325 663 LINE SMOOTH",
"421 663 OFFCURVE",
"468 612 OFFCURVE",
"468 538 CURVE SMOOTH",
"468 464 OFFCURVE",
"421 428 OFFCURVE",
"325 428 CURVE SMOOTH",
"179 428 LINE"
);
}
);
width = 687;
},
{
anchors = (
{
name = bottom;
position = "{344, 0}";
},
{
name = top;
position = "{344, 700}";
},
{
name = top_hook;
position = "{-59, 470}";
}
);
associatedMasterId = "BA196CD0-EE58-4274-B8DF-4393D3617A29";
hints = (
{
horizontal = 1;
place = "{0, 145}";
type = TTStem;
options = 4;
},
{
horizontal = 1;
origin = "{0, 0}";
target = "{1, 8}";
type = TTStem;
options = 4;
},
{
horizontal = 1;
origin = "{1, 0}";
type = TTStem;
options = 4;
}
);
layerId = "68B23326-1F1E-4884-892B-6A2E68CEB5D2";
name = "Color 6";
paths = (
{
closed = 1;
nodes = (
"179 348 LINE",
"337 348 LINE SMOOTH",
"390 348 OFFCURVE",
"430 338 OFFCURVE",
"455 316 CURVE SMOOTH",
"481 293 OFFCURVE",
"498 268 OFFCURVE",
"498 248 CURVE SMOOTH",
"498 160 OFFCURVE",
"443 145 OFFCURVE",
"337 145 CURVE SMOOTH",
"179 145 LINE"
);
},
{
closed = 1;
nodes = (
"179 663 LINE",
"325 663 LINE SMOOTH",
"421 663 OFFCURVE",
"468 612 OFFCURVE",
"468 538 CURVE SMOOTH",
"468 464 OFFCURVE",
"421 428 OFFCURVE",
"325 428 CURVE SMOOTH",
"179 428 LINE"
);
}
);
width = 687;
},
{
anchors = (
{
name = bottom;
position = "{344, 0}";
},
{
name = top;
position = "{344, 700}";
},
{
name = top_hook;
position = "{-59, 470}";
}
);
associatedMasterId = "BBDB329E-CE83-4304-A6B1-53EA5ACC004E";
layerId = "5787B19C-04C7-4BC4-8CD1-DBB5C5FC4C53";
name = "Color 5";
paths = (
{
closed = 1;
nodes = (
"342 -27 LINE SMOOTH",
"506 -27 OFFCURVE",
"634 -27 OFFCURVE",
"634 204 CURVE SMOOTH",
"634 296 OFFCURVE",
"589 363 OFFCURVE",
"504 398 CURVE",
"547 429 OFFCURVE",
"570 481 OFFCURVE",
"570 549 CURVE SMOOTH",
"570 680 OFFCURVE",
"472 756 OFFCURVE",
"308 756 CURVE SMOOTH",
"53 756 LINE",
"53 -27 LINE"
);
},
{
closed = 1;
nodes = (
"206 321 LINE",
"337 321 LINE SMOOTH",
"386 321 OFFCURVE",
"418 313 OFFCURVE",
"437 296 CURVE SMOOTH",
"459 277 OFFCURVE",
"471 258 OFFCURVE",
"471 248 CURVE SMOOTH",
"471 188 OFFCURVE",
"445 172 OFFCURVE",
"337 172 CURVE SMOOTH",
"206 172 LINE"
);
},
{
closed = 1;
nodes = (
"206 636 LINE",
"325 636 LINE SMOOTH",
"401 636 OFFCURVE",
"441 601 OFFCURVE",
"441 538 CURVE SMOOTH",
"441 481 OFFCURVE",
"407 455 OFFCURVE",
"325 455 CURVE SMOOTH",
"206 455 LINE"
);
}
);
width = 687;
},
{
anchors = (
{
name = bottom;
position = "{344, 0}";
},
{
name = top;
position = "{344, 700}";
},
{
name = top_hook;
position = "{-59, 470}";
}
);
associatedMasterId = "BBDB329E-CE83-4304-A6B1-53EA5ACC004E";
layerId = "DE69F352-2F52-44F9-8AFD-7324BB30289F";
name = "Color 6";
paths = (
{
closed = 1;
nodes = (
"206 321 LINE",
"337 321 LINE SMOOTH",
"386 321 OFFCURVE",
"418 313 OFFCURVE",
"437 296 CURVE SMOOTH",
"459 277 OFFCURVE",
"471 258 OFFCURVE",
"471 248 CURVE SMOOTH",
"471 188 OFFCURVE",
"445 172 OFFCURVE",
"337 172 CURVE SMOOTH",
"206 172 LINE"
);
},
{
closed = 1;
nodes = (
"206 636 LINE",
"325 636 LINE SMOOTH",
"401 636 OFFCURVE",
"441 601 OFFCURVE",
"441 538 CURVE SMOOTH",
"441 481 OFFCURVE",
"407 455 OFFCURVE",
"325 455 CURVE SMOOTH",
"206 455 LINE"
);
}
);
width = 687;
}
);
},
{
color = 6;
glyphname = D.ss04;
lastChange = "2019-09-11 00:52:57 +0000";
layers = (
{
anchors = (
{
name = bottom;
position = "{387, 0}";
},
{
name = dash;
position = "{201, 378}";
},
{
name = hook_top;
position = "{68, 669}";
},
{
name = top;
position = "{361, 729}";
}
);
components = (
{
name = D;
}
);
hints = (
{
horizontal = 1;
place = "{0, 190}";
type = TTStem;
options = 4;
},
{
horizontal = 1;
place = "{659, 70}";
type = TTStem;
options = 4;
}
);
layerId = "BA196CD0-EE58-4274-B8DF-4393D3617A29";
width = 773;
},
{
components = (
{
name = D;
}
);
layerId = "BBDB329E-CE83-4304-A6B1-53EA5ACC004E";
width = 773;
},
{
anchors = (
{
name = bottom;
position = "{387, 0}";
},
{
name = dash;
position = "{201, 378}";
},
{
name = hook_top;
position = "{68, 669}";
},
{
name = top;
position = "{361, 729}";
}
);
associatedMasterId = "BA196CD0-EE58-4274-B8DF-4393D3617A29";
hints = (
{
horizontal = 1;
origin = "{0, 8}";
target = "{1, 8}";
type = TTStem;
options = 4;
},
{
horizontal = 1;
origin = "{1, 0}";
target = "{0, 7}";
type = TTStem;
options = 4;
}
);
layerId = "E65F379F-1963-4B71-9B94-A0971642900E";
name = "Color 5";
paths = (
{
closed = 1;
nodes = (
"283 0 LINE SMOOTH",
"565 0 OFFCURVE",
"693 0 OFFCURVE",
"693 365 CURVE SMOOTH",
"693 615 OFFCURVE",
"566 729 OFFCURVE",
"283 729 CURVE SMOOTH",
"80 729 LINE",
"80 0 LINE"
);
},
{
closed = 1;
nodes = (
"184 659 LINE",
"303 659 LINE SMOOTH",
"504 659 OFFCURVE",
"613 573 OFFCURVE",
"613 393 CURVE SMOOTH",
"613 271 OFFCURVE",
"555 190 OFFCURVE",
"303 190 CURVE SMOOTH",
"184 190 LINE"
);
}
);
width = 773;
},
{
anchors = (
{
name = bottom;
position = "{387, 0}";
},
{
name = dash;
position = "{201, 378}";
},
{
name = hook_top;
position = "{68, 669}";
},
{
name = top;
position = "{361, 729}";
}
);
associatedMasterId = "BA196CD0-EE58-4274-B8DF-4393D3617A29";
hints = (
{
horizontal = 1;
place = "{4, 186}";
type = TTStem;
options = 4;
},
{
horizontal = 1;
origin = "{0, 0}";
type = TTStem;
options = 4;
}
);
layerId = "162C4848-7585-42C3-B3D3-2437F4034029";
name = "Color 4";
paths = (
{
closed = 1;
nodes = (
"184 659 LINE",
"303 659 LINE SMOOTH",
"504 659 OFFCURVE",
"613 573 OFFCURVE",
"613 393 CURVE SMOOTH",
"613 271 OFFCURVE",
"555 190 OFFCURVE",
"303 190 CURVE SMOOTH",
"184 190 LINE"
);
}
);
width = 773;
},
{
anchors = (
{
name = bottom;
position = "{387, 0}";
},
{
name = dash;
position = "{201, 378}";
},
{
name = hook_top;
position = "{68, 669}";
},
{
name = top;
position = "{354, 766}";
}
);
associatedMasterId = "BBDB329E-CE83-4304-A6B1-53EA5ACC004E";
layerId = "AA78CCF9-0735-466A-AA0B-645931A0D4B9";
name = "Color 5";
paths = (
{
closed = 1;
nodes = (
"283 -27 LINE SMOOTH",
"565 -27 OFFCURVE",
"720 -27 OFFCURVE",
"720 365 CURVE SMOOTH",
"720 631 OFFCURVE",
"580 756 OFFCURVE",
"283 756 CURVE SMOOTH",
"53 756 LINE",
"53 -27 LINE"
);
},
{
closed = 1;
nodes = (
"211 632 LINE",
"303 632 LINE SMOOTH",
"494 632 OFFCURVE",
"586 553 OFFCURVE",
"586 393 CURVE SMOOTH",
"586 266 OFFCURVE",
"510 217 OFFCURVE",
"303 217 CURVE SMOOTH",
"211 217 LINE"
);
}
);
width = 773;
},
{
anchors = (
{
name = bottom;
position = "{387, 0}";
},
{
name = dash;
position = "{201, 378}";
},
{
name = hook_top;
position = "{68, 669}";
},
{
name = top;
position = "{354, 766}";
}
);
associatedMasterId = "BBDB329E-CE83-4304-A6B1-53EA5ACC004E";
layerId = "7342768B-DBBC-4AF7-8900-0F560C2C5287";
name = "Color 4";
paths = (
{
closed = 1;
nodes = (
"211 632 LINE",
"303 632 LINE SMOOTH",
"494 632 OFFCURVE",
"586 553 OFFCURVE",
"586 393 CURVE SMOOTH",
"586 266 OFFCURVE",
"510 217 OFFCURVE",
"303 217 CURVE SMOOTH",
"211 217 LINE"
);
}
);
width = 773;
}
);
},
{
color = 6;
glyphname = O.ss04;
lastChange = "2019-09-11 00:54:15 +0000";
layers = (
{
anchors = (
{
name = abovecomb;
position = "{413, 811}";
},
{
name = bottom;
position = "{418, -54}";
},
{
name = center;
position = "{418, 387}";
},
{
name = horn;
position = "{641, 639}";
},
{
name = ogonek;
position = "{748, 10}";
},
{
name = polyomicron;
position = "{114, 672}";
},
{
name = top;
position = "{414, 815}";
},
{
name = topleft;
position = "{25, 700}";
},
{
name = topright;
position = "{810, 700}";
}
);
components = (
{
name = O;
}
);
hints = (
{
horizontal = 1;
place = "{-14, 187}";
type = TTStem;
options = 4;
},
{
horizontal = 1;
place = "{672, 70}";
type = TTStem;
options = 4;
}
);
layerId = "BA196CD0-EE58-4274-B8DF-4393D3617A29";
width = 835;
},
{
components = (
{
name = O;
}
);
layerId = "BBDB329E-CE83-4304-A6B1-53EA5ACC004E";
width = 835;
},
{
anchors = (
{
name = abovecomb;
position = "{413, 811}";
},
{
name = bottom;
position = "{418, -54}";
},
{
name = center;
position = "{418, 387}";
},
{
name = horn;
position = "{641, 639}";
},
{
name = ogonek;
position = "{748, 10}";
},
{
name = polyomicron;
position = "{114, 672}";
},
{
name = top;
position = "{414, 815}";
},
{
name = topleft;
position = "{25, 700}";
},
{
name = topright;
position = "{810, 700}";
}
);
associatedMasterId = "BA196CD0-EE58-4274-B8DF-4393D3617A29";
hints = (
{
horizontal = 1;
origin = "{0, 11}";
target = "{1, 11}";
type = TTStem;
options = 4;
},
{
horizontal = 1;
origin = "{1, 5}";
target = "{0, 5}";
type = TTStem;
options = 4;
}
);
layerId = "1E65B289-5B9F-4910-8882-02D0698E5D02";
name = "Color 5";
paths = (
{
closed = 1;
nodes = (
"672 -16 OFFCURVE",
"748 54 OFFCURVE",
"755 364 CURVE SMOOTH",
"760 594 OFFCURVE",
"623 742 OFFCURVE",
"418 742 CURVE SMOOTH",
"213 742 OFFCURVE",
"80 594 OFFCURVE",
"80 364 CURVE SMOOTH",
"80 54 OFFCURVE",
"185 -12 OFFCURVE",
"418 -14 CURVE SMOOTH"
);
},
{
closed = 1;
nodes = (
"275 173 OFFCURVE",
"184 213 OFFCURVE",
"184 364 CURVE SMOOTH",
"184 548 OFFCURVE",
"275 672 OFFCURVE",
"418 672 CURVE SMOOTH",
"561 672 OFFCURVE",
"651 548 OFFCURVE",
"651 364 CURVE SMOOTH",
"651 213 OFFCURVE",
"561 173 OFFCURVE",
"418 173 CURVE SMOOTH"
);
}
);
width = 835;
},
{
anchors = (
{
name = abovecomb;
position = "{413, 811}";
},
{
name = bottom;
position = "{418, -54}";
},
{
name = center;
position = "{418, 387}";
},
{
name = horn;
position = "{641, 639}";
},
{
name = ogonek;
position = "{748, 10}";
},
{
name = polyomicron;
position = "{114, 672}";
},
{
name = top;
position = "{414, 815}";
},
{
name = topleft;
position = "{25, 700}";
},
{
name = topright;
position = "{810, 700}";
}
);
associatedMasterId = "BA196CD0-EE58-4274-B8DF-4393D3617A29";
hints = (
{
horizontal = 1;
place = "{-14, 187}";
type = TTStem;
options = 4;
},
{
horizontal = 1;
origin = "{0, 5}";
type = TTStem;
options = 4;
}
);
layerId = "A3195D91-D611-4799-A24C-7E06E02DDB97";
name = "Color 10";
paths = (
{
closed = 1;
nodes = (
"275 173 OFFCURVE",
"184 213 OFFCURVE",
"184 364 CURVE SMOOTH",
"184 548 OFFCURVE",
"275 672 OFFCURVE",
"418 672 CURVE SMOOTH",
"561 672 OFFCURVE",
"651 548 OFFCURVE",
"651 364 CURVE SMOOTH",
"651 213 OFFCURVE",
"561 173 OFFCURVE",
"418 173 CURVE SMOOTH"
);
}
);
width = 835;
}
);
},
{
color = 6;
glyphname = P.ss04;
lastChange = "2019-09-11 00:54:21 +0000";
layers = (
{
anchors = (
{
name = bottom;
position = "{323, 0}";
},
{
name = top;
position = "{323, 700}";
},
{
name = top_hook;
position = "{-36, 455}";
}
);
components = (
{
name = P;
}
);
hints = (
{
horizontal = 1;
place = "{0, -2147483648}";
type = Anchor;
options = 4;
},
{
horizontal = 1;
place = "{277, 139}";
type = TTStem;
options = 4;
},
{
horizontal = 1;
place = "{716, 65}";
type = TTStem;
options = 4;
}
);
layerId = "BA196CD0-EE58-4274-B8DF-4393D3617A29";
width = 646;
},
{
components = (
{
name = P;
}
);
layerId = "BBDB329E-CE83-4304-A6B1-53EA5ACC004E";
width = 646;
},
{
anchors = (
{
name = bottom;
position = "{323, 0}";
},
{
name = top;
position = "{323, 700}";
},
{
name = top_hook;
position = "{-36, 455}";
}
);
associatedMasterId = "BA196CD0-EE58-4274-B8DF-4393D3617A29";
hints = (
{
horizontal = 1;
origin = "{0, 10}";
type = Anchor;
options = 4;
},
{
horizontal = 1;
place = "{277, 139}";
type = TTStem;
options = 4;
},
{
horizontal = 1;
origin = "{0, 9}";
target = "{1, 0}";
type = TTStem;
options = 4;
}
);
layerId = "A2521C22-8AEA-4E2B-93B5-E1D97D8BDC71";
name = "Color 5";
paths = (
{
closed = 1;
nodes = (
"228 0 LINE",
"208 274 LINE",
"327 280 LINE SMOOTH",
"491 288 OFFCURVE",
"566 361 OFFCURVE",
"566 505 CURVE SMOOTH",
"566 601 OFFCURVE",
"491 716 OFFCURVE",
"307 716 CURVE SMOOTH",
"121 716 LINE",
"80 0 LINE"
);
},
{
closed = 1;
nodes = (
"203 651 LINE",
"311 651 LINE SMOOTH",
"441 651 OFFCURVE",
"480 584 OFFCURVE",
"480 549 CURVE SMOOTH",
"480 441 OFFCURVE",
"435 423 OFFCURVE",
"337 419 CURVE SMOOTH",
"203 413 LINE"
);
}
);
width = 646;
},
{
anchors = (
{
name = bottom;
position = "{323, 0}";
},
{
name = top;
position = "{323, 700}";
},
{
name = top_hook;
position = "{-36, 455}";
}
);
associatedMasterId = "BA196CD0-EE58-4274-B8DF-4393D3617A29";
hints = (
{
horizontal = 1;
origin = "{0, 8}";
type = Anchor;
options = 4;
},
{
horizontal = 1;
place = "{277, 139}";
type = TTStem;
options = 4;
},
{
horizontal = 1;
place = "{716, -65}";
type = TTStem;
options = 4;
}
);
layerId = "8234E0E0-8A66-4D34-B0E9-C580F7BD54E4";
name = "Color 3";
paths = (
{
closed = 1;
nodes = (
"203 651 LINE",
"311 651 LINE SMOOTH",
"441 651 OFFCURVE",
"480 584 OFFCURVE",
"480 549 CURVE SMOOTH",
"480 441 OFFCURVE",
"435 423 OFFCURVE",
"337 419 CURVE SMOOTH",
"203 413 LINE"
);
}
);
width = 646;
},
{
anchors = (
{
name = bottom;
position = "{323, 0}";
},
{
name = top;
position = "{323, 700}";
},
{
name = top_hook;
position = "{-36, 455}";
}
);
associatedMasterId = "BBDB329E-CE83-4304-A6B1-53EA5ACC004E";
layerId = "C4708002-7F79-4312-BCAC-6047C25BD3F3";
name = "Color 5";
paths = (
{
closed = 1;
nodes = (
"257 -27 LINE",
"237 248 LINE",
"328 253 LINE SMOOTH",
"505 262 OFFCURVE",
"593 345 OFFCURVE",
"593 505 CURVE SMOOTH",
"593 644 OFFCURVE",
"475 743 OFFCURVE",
"307 743 CURVE SMOOTH",
"96 743 LINE",
"51 -27 LINE"
);
},
{
closed = 1;
nodes = (
"230 624 LINE",
"311 624 LINE SMOOTH",
"392 624 OFFCURVE",
"453 590 OFFCURVE",
"453 549 CURVE SMOOTH",
"453 467 OFFCURVE",
"433 450 OFFCURVE",
"336 446 CURVE SMOOTH",
"230 441 LINE"
);
}
);
width = 646;
},
{
anchors = (
{
name = bottom;
position = "{323, 0}";
},
{
name = top;
position = "{323, 700}";
},
{
name = top_hook;
position = "{-36, 455}";
}
);
associatedMasterId = "BBDB329E-CE83-4304-A6B1-53EA5ACC004E";
layerId = "3DF5C68B-D13C-4516-995A-75CFCAA485BC";
name = "Color 3";
paths = (
{
closed = 1;
nodes = (
"230 624 LINE",
"311 624 LINE SMOOTH",
"392 624 OFFCURVE",
"453 590 OFFCURVE",
"453 549 CURVE SMOOTH",
"453 467 OFFCURVE",
"433 450 OFFCURVE",
"336 446 CURVE SMOOTH",
"230 441 LINE"
);
}
);
width = 646;
}
);
},
{
color = 6;
glyphname = Q.ss04;
lastChange = "2019-09-11 00:54:27 +0000";
layers = (
{
anchors = (
{
name = bottom;
position = "{435, 0}";
},
{
name = top;
position = "{435, 700}";
}
);
components = (
{
name = Q;
}
);
hints = (
{
horizontal = 1;
place = "{-14, 170}";
type = TTStem;
options = 4;
},
{
horizontal = 1;
place = "{662, 80}";
type = TTStem;
options = 4;
}
);
layerId = "BA196CD0-EE58-4274-B8DF-4393D3617A29";
width = 869;
},
{
anchors = (
{
name = bottom;
position = "{435, 0}";
},
{
name = top;
position = "{435, 700}";
}
);
associatedMasterId = "BA196CD0-EE58-4274-B8DF-4393D3617A29";
hints = (
{
horizontal = 1;
place = "{-14, 170}";
type = TTStem;
options = 4;
},
{
horizontal = 1;
origin = "{0, 5}";
type = TTStem;
options = 4;
}
);
layerId = "07076AB7-E0AA-4942-ADF3-AF33BA8A00C1";
name = "Color 6";
paths = (
{
closed = 1;
nodes = (
"408 158 LINE",
"441 234 LINE",
"494 206 OFFCURVE",
"549 185 OFFCURVE",
"589 185 CURVE SMOOTH",
"619 185 OFFCURVE",
"648 288 OFFCURVE",
"648 364 CURVE SMOOTH",
"648 548 OFFCURVE",
"561 662 OFFCURVE",
"418 662 CURVE SMOOTH",
"275 662 OFFCURVE",
"187 519 OFFCURVE",
"187 364 CURVE SMOOTH",
"187 153 OFFCURVE",
"299 154 OFFCURVE",
"355 156 CURVE SMOOTH"
);
}
);
width = 869;
},
{
components = (
{
name = Q;
}
);
layerId = "BBDB329E-CE83-4304-A6B1-53EA5ACC004E";
width = 869;
},
{
anchors = (
{
name = bottom;
position = "{435, 0}";
},
{
name = top;
position = "{435, 700}";
}
);
associatedMasterId = "BA196CD0-EE58-4274-B8DF-4393D3617A29";
hints = (
{
horizontal = 1;
origin = "{0, 13}";
target = "{1, 16}";
type = TTStem;
options = 4;
},
{
horizontal = 1;
origin = "{1, 5}";
target = "{0, 7}";
type = TTStem;
options = 4;
}
);
layerId = "C6DC4E1B-16E9-48FA-9FD1-8DCE782081FC";
name = "Color 5";
paths = (
{
closed = 1;
nodes = (
"789 -129 LINE",
"634 42 LINE",
"692 106 OFFCURVE",
"752 194 OFFCURVE",
"752 364 CURVE SMOOTH",
"752 594 OFFCURVE",
"623 742 OFFCURVE",
"418 742 CURVE SMOOTH",
"213 742 OFFCURVE",
"80 565 OFFCURVE",
"80 364 CURVE SMOOTH",
"80 40 OFFCURVE",
"215 -14 OFFCURVE",
"413 -14 CURVE SMOOTH",
"424 -14 OFFCURVE",
"433 -14 OFFCURVE",
"454 -12 CURVE",
"557 -129 LINE"
);
},
{
closed = 1;
nodes = (
"299 154 OFFCURVE",
"187 153 OFFCURVE",
"187 364 CURVE SMOOTH",
"187 519 OFFCURVE",
"275 662 OFFCURVE",
"418 662 CURVE SMOOTH",
"561 662 OFFCURVE",
"648 548 OFFCURVE",
"648 364 CURVE SMOOTH",
"648 288 OFFCURVE",
"619 185 OFFCURVE",
"589 185 CURVE SMOOTH",
"549 185 OFFCURVE",
"494 206 OFFCURVE",
"441 234 CURVE",
"408 158 LINE",
"355 156 LINE SMOOTH"
);
}
);
width = 869;
},
{
anchors = (
{
name = bottom;
position = "{435, 0}";
},
{
name = top;
position = "{435, 700}";
}
);
associatedMasterId = "BBDB329E-CE83-4304-A6B1-53EA5ACC004E";
layerId = "43772EFA-DDEB-47E5-8CDC-F54A68DF20BB";
name = "Color 6";
paths = (
{
closed = 1;
nodes = (
"390 184 LINE",
"428 272 LINE",
"496 233 OFFCURVE",
"553 212 OFFCURVE",
"589 212 CURVE SMOOTH",
"594 212 OFFCURVE",
"621 314 OFFCURVE",
"621 364 CURVE SMOOTH",
"621 535 OFFCURVE",
"544 635 OFFCURVE",
"418 635 CURVE SMOOTH",
"301 635 OFFCURVE",
"214 519 OFFCURVE",
"214 364 CURVE SMOOTH",
"214 180 OFFCURVE",
"298 181 OFFCURVE",
"354 183 CURVE SMOOTH"
);
}
);
width = 869;
},
{
anchors = (
{
name = bottom;
position = "{435, 0}";
},
{
name = top;
position = "{435, 700}";
}
);
associatedMasterId = "BBDB329E-CE83-4304-A6B1-53EA5ACC004E";
layerId = "2991BA37-86A5-4052-B5AA-7ABC5456C0D4";
name = "Color 5";
paths = (
{
closed = 1;
nodes = (
"850 -156 LINE",
"670 42 LINE",
"746 134 OFFCURVE",
"779 232 OFFCURVE",
"779 364 CURVE SMOOTH",
"779 610 OFFCURVE",
"637 769 OFFCURVE",
"418 769 CURVE SMOOTH",
"210 769 OFFCURVE",
"53 593 OFFCURVE",
"53 364 CURVE SMOOTH",
"53 72 OFFCURVE",
"154 -41 OFFCURVE",
"413 -41 CURVE SMOOTH",
"421 -41 OFFCURVE",
"429 -41 OFFCURVE",
"443 -40 CURVE",
"545 -156 LINE"
);
},
{
closed = 1;
nodes = (
"298 181 OFFCURVE",
"214 180 OFFCURVE",
"214 364 CURVE SMOOTH",
"214 519 OFFCURVE",
"301 635 OFFCURVE",
"418 635 CURVE SMOOTH",
"544 635 OFFCURVE",
"621 535 OFFCURVE",
"621 364 CURVE SMOOTH",
"621 314 OFFCURVE",
"594 212 OFFCURVE",
"589 212 CURVE SMOOTH",
"553 212 OFFCURVE",
"496 233 OFFCURVE",
"428 272 CURVE",
"390 184 LINE",
"354 183 LINE SMOOTH"
);
}
);
width = 869;
}
);
},
{
color = 6;
glyphname = R.ss04;
lastChange = "2019-09-11 00:51:01 +0000";
layers = (
{
anchors = (
{
name = bottom;
position = "{320, 0}";
},
{
name = bottom_hook;
position = "{125, -20}";
},
{
name = top;
position = "{320, 729}";
}
);
components = (
{
name = R;
}
);
hints = (
{
horizontal = 1;
place = "{0, -2147483648}";
type = Anchor;
options = 4;
},
{
horizontal = 1;
place = "{294.02, 110.98}";
type = TTStem;
options = 4;
},
{
horizontal = 1;
place = "{677, 52}";
type = TTStem;
options = 4;
}
);
layerId = "BA196CD0-EE58-4274-B8DF-4393D3617A29";
width = 685;
},
{
components = (
{
name = R;
}
);
layerId = "BBDB329E-CE83-4304-A6B1-53EA5ACC004E";
width = 685;
},
{
anchors = (
{
name = bottom;
position = "{320, 0}";
},
{
name = bottom_hook;
position = "{125, -20}";
},
{
name = top;
position = "{320, 729}";
}
);
associatedMasterId = "BA196CD0-EE58-4274-B8DF-4393D3617A29";
hints = (
{
horizontal = 1;
origin = "{0, 8}";
type = Anchor;
options = 4;
},
{
horizontal = 1;
place = "{294.02, 110.98}";
type = TTStem;
options = 4;
},
{
horizontal = 1;
origin = "{0, 7}";
type = TTStem;
options = 4;
}
);
layerId = "0B4B6E16-33B4-48D1-8CAF-6899F5A0FD33";
name = "Color 10";
paths = (
{
closed = 1;
nodes = (
"313 405 LINE SMOOTH",
"388 405 OFFCURVE",
"466 456 OFFCURVE",
"466 519 CURVE SMOOTH",
"466 644 OFFCURVE",
"388 677 OFFCURVE",
"313 677 CURVE SMOOTH",
"189 677 LINE",
"189 405 LINE"
);
}
);
width = 685;
},
{
anchors = (
{
name = bottom;
position = "{320, 0}";
},
{
name = bottom_hook;
position = "{125, -20}";
},
{
name = top;
position = "{320, 729}";
}
);
associatedMasterId = "BA196CD0-EE58-4274-B8DF-4393D3617A29";
hints = (
{
horizontal = 1;
origin = "{0, 19}";
type = Anchor;
options = 4;
},
{
horizontal = 1;
place = "{294.02, 110.98}";
type = TTStem;
options = 4;
},
{
horizontal = 1;
origin = "{1, 0}";
target = "{0, 18}";
type = TTStem;
options = 4;
}
);
layerId = "334AD092-1BF9-495E-B0B3-DA4C968BF013";
name = "Color 5";
paths = (
{
closed = 1;
nodes = (
"237 0 LINE",
"220 282 LINE",
"272 291 LINE SMOOTH",
"332 301 OFFCURVE",
"439 294 OFFCURVE",
"434 187 CURVE SMOOTH",
"425 0 LINE",
"605 0 LINE",
"548 199 LINE SMOOTH",
"526 277 OFFCURVE",
"468 340 OFFCURVE",
"426 362 CURVE",
"494 373 OFFCURVE",
"536 423 OFFCURVE",
"536 519 CURVE SMOOTH",
"536 660 OFFCURVE",
"450 729 OFFCURVE",
"303 729 CURVE SMOOTH",
"125 729 LINE",
"80 0 LINE"
);
},
{
closed = 1;
nodes = (
"189 677 LINE",
"313 677 LINE SMOOTH",
"388 677 OFFCURVE",
"466 644 OFFCURVE",
"466 519 CURVE SMOOTH",
"466 456 OFFCURVE",
"388 405 OFFCURVE",
"313 405 CURVE SMOOTH",
"189 405 LINE"
);
}
);
width = 685;
},
{
anchors = (
{
name = bottom;
position = "{320, 0}";
},
{
name = bottom_hook;
position = "{125, -20}";
},
{
name = top;
position = "{320, 729}";
}
);
associatedMasterId = "BBDB329E-CE83-4304-A6B1-53EA5ACC004E";
layerId = "A8CD5455-7288-4279-8E76-808A8FFD19B6";
name = "Color 10";
paths = (
{
closed = 1;
nodes = (
"313 432 LINE SMOOTH",
"378 432 OFFCURVE",
"439 476 OFFCURVE",
"439 519 CURVE SMOOTH",
"439 607 OFFCURVE",
"397 650 OFFCURVE",
"313 650 CURVE SMOOTH",
"216 650 LINE",
"216 432 LINE"
);
}
);
width = 685;
},
{
anchors = (
{
name = bottom;
position = "{320, 0}";
},
{
name = bottom_hook;
position = "{125, -20}";
},
{
name = top;
position = "{320, 729}";
}
);
associatedMasterId = "BBDB329E-CE83-4304-A6B1-53EA5ACC004E";
layerId = "F8378DF3-0994-4F51-8500-6DDAFF2F3A25";
name = "Color 5";
paths = (
{
closed = 1;
nodes = (
"266 -27 LINE",
"248 260 LINE",
"277 264 LINE SMOOTH",
"360 278 OFFCURVE",
"410 250 OFFCURVE",
"407 188 CURVE SMOOTH",
"397 -27 LINE",
"641 -27 LINE",
"574 206 LINE SMOOTH",
"559 260 OFFCURVE",
"524 316 OFFCURVE",
"483 353 CURVE",
"535 382 OFFCURVE",
"563 439 OFFCURVE",
"563 519 CURVE SMOOTH",
"563 671 OFFCURVE",
"469 756 OFFCURVE",
"303 756 CURVE SMOOTH",
"100 756 LINE",
"51 -27 LINE"
);
},
{
closed = 1;
nodes = (
"216 650 LINE",
"313 650 LINE SMOOTH",
"397 650 OFFCURVE",
"439 607 OFFCURVE",
"439 519 CURVE SMOOTH",
"439 476 OFFCURVE",
"378 432 OFFCURVE",
"313 432 CURVE SMOOTH",
"216 432 LINE"
);
}
);
width = 685;
}
);
},
{
glyphname = Gsmallhook;
lastChange = "2019-09-05 19:28:16 +0000";
layers = (
{
anchors = (
{
name = _top_hook;
position = "{714, 66}";
},
{
name = center;
position = "{718, 299}";
}
);
components = (
{
name = Gsmall;
transform = "{1, 0, 0, 1, 26, 0}";
}
);
hints = (
{
horizontal = 1;
origin = "{0, 12}";
target = "{0, 13}";
type = TTStem;
options = 4;
}
);
layerId = "BA196CD0-EE58-4274-B8DF-4393D3617A29";
paths = (
{
closed = 1;
nodes = (
"396 683 OFFCURVE",
"372 677 OFFCURVE",
"368 565 CURVE SMOOTH",
"366 515 OFFCURVE",
"366 531 OFFCURVE",
"366 461 CURVE",
"451 461 LINE",
"451 492 OFFCURVE",
"451 517 OFFCURVE",
"451 546 CURVE SMOOTH",
"451 594 OFFCURVE",
"454 597 OFFCURVE",
"522 597 CURVE",
"522 682 LINE"
);
}
);
width = 619;
},
{
anchors = (
{
name = _top_hook;
position = "{846, 66}";
},
{
name = center;
position = "{850, 299}";
}
);
components = (
{
name = Gsmall;
transform = "{1, 0, 0, 1, 158, 0}";
}
);
layerId = "BBDB329E-CE83-4304-A6B1-53EA5ACC004E";
paths = (
{
closed = 1;
nodes = (
"510 712 OFFCURVE",
"478 696 OFFCURVE",
"473 566 CURVE SMOOTH",
"471 511 OFFCURVE",
"471 536 OFFCURVE",
"471 434 CURVE",
"610 434 LINE",
"610 479 OFFCURVE",
"610 508 OFFCURVE",
"610 546 CURVE SMOOTH",
"610 582 OFFCURVE",
"598 567 OFFCURVE",
"681 571 CURVE",
"681 709 LINE"
);
}
);
width = 883;
}
);
unicode = 029B;
},
{
color = 7;
glyphname = a;
lastChange = "2019-09-10 19:40:01 +0000";
layers = (
{
anchors = (
{
name = abovecomb;
position = "{314, 580}";
},
{
name = bottom;
position = "{313, 0}";
},
{
name = dotbelow;
position = "{310, -8}";
},
{
name = ogonek;
position = "{538, 50}";
},
{
name = top;
position = "{317, 581}";
}
);
background = {
components = (
{
alignment = -1;
name = "";
transform = "{1, 0, 0, 1, 49, 150}";
},
{
alignment = -1;
name = "";
transform = "{1, 0, 0, 1, 49, 200}";
},
{
alignment = -1;
name = "";
transform = "{1, 0, 0, 1, 99, 50}";
},
{
alignment = -1;
name = "";
transform = "{1, 0, 0, 1, 99, 100}";
},
{
alignment = -1;
name = "";
transform = "{1, 0, 0, 1, 99, 150}";
},
{
alignment = -1;
name = "";
transform = "{1, 0, 0, 1, 99, 200}";
},
{
alignment = -1;
name = "";
transform = "{1, 0, 0, 1, 99, 250}";
},
{
alignment = -1;
name = "";
transform = "{1, 0, 0, 1, 99, 300}";
},
{
alignment = -1;
name = "";
transform = "{1, 0, 0, 1, 99, 350}";
},
{
alignment = -1;
name = "";
transform = "{1, 0, 0, 1, 149, 0}";
},
{
alignment = -1;
name = "";
transform = "{1, 0, 0, 1, 149, 50}";
},
{
alignment = -1;
name = "";
transform = "{1, 0, 0, 1, 149, 100}";
},
{
alignment = -1;
name = "";
transform = "{1, 0, 0, 1, 149, 400}";
},
{
alignment = -1;
name = "";
transform = "{1, 0, 0, 1, 199, 0}";
},
{
alignment = -1;
name = "";
transform = "{1, 0, 0, 1, 199, 50}";
},
{
alignment = -1;
name = "";
transform = "{1, 0, 0, 1, 199, 100}";
},
{
alignment = -1;
name = "";
transform = "{1, 0, 0, 1, 199, 450}";
},
{
alignment = -1;
name = "";
transform = "{1, 0, 0, 1, 249, 0}";
},
{
alignment = -1;
name = "";
transform = "{1, 0, 0, 1, 249, 50}";
},
{
alignment = -1;
name = "";
transform = "{1, 0, 0, 1, 249, 100}";
},
{
alignment = -1;
name = "";
transform = "{1, 0, 0, 1, 249, 450}";
},
{
alignment = -1;
name = "";
transform = "{1, 0, 0, 1, 299, 0}";
},
{
alignment = -1;
name = "";
transform = "{1, 0, 0, 1, 299, 50}";
},
{
alignment = -1;
name = "";
transform = "{1, 0, 0, 1, 299, 100}";
},
{
alignment = -1;
name = "";
transform = "{1, 0, 0, 1, 299, 450}";
},
{
alignment = -1;
name = "";
transform = "{1, 0, 0, 1, 349, 0}";
},
{
alignment = -1;
name = "";
transform = "{1, 0, 0, 1, 349, 50}";
},
{
alignment = -1;
name = "";
transform = "{1, 0, 0, 1, 349, 100}";
},
{
alignment = -1;
name = "";
transform = "{1, 0, 0, 1, 349, 450}";
},
{
alignment = -1;
name = "";
transform = "{1, 0, 0, 1, 399, 0}";
},
{
alignment = -1;
name = "";
transform = "{1, 0, 0, 1, 399, 50}";
},
{
alignment = -1;
name = "";
transform = "{1, 0, 0, 1, 399, 100}";
},
{
alignment = -1;
name = "";
transform = "{1, 0, 0, 1, 399, 450}";
},
{
alignment = -1;
name = "";
transform = "{1, 0, 0, 1, 449, 50}";
},
{
alignment = -1;
name = "";
transform = "{1, 0, 0, 1, 449, 100}";
},
{
alignment = -1;
name = "";
transform = "{1, 0, 0, 1, 449, 150}";
},
{
alignment = -1;
name = "";
transform = "{1, 0, 0, 1, 449, 200}";
},
{
alignment = -1;
name = "";
transform = "{1, 0, 0, 1, 449, 250}";
},
{
alignment = -1;
name = "";
transform = "{1, 0, 0, 1, 449, 300}";
},
{
alignment = -1;
name = "";
transform = "{1, 0, 0, 1, 449, 350}";
},
{
alignment = -1;
name = "";
transform = "{1, 0, 0, 1, 449, 400}";
},
{
alignment = -1;
name = "";
transform = "{1, 0, 0, 1, 449, 450}";
},
{
alignment = -1;
name = "";
transform = "{1, 0, 0, 1, 449, 500}";
},
{
alignment = -1;
name = "";
transform = "{1, 0, 0, 1, 499, 0}";
},
{
alignment = -1;
name = "";
transform = "{1, 0, 0, 1, 499, 50}";
},
{
alignment = -1;
name = "";
transform = "{1, 0, 0, 1, 499, 100}";
},
{
alignment = -1;
name = "";
transform = "{1, 0, 0, 1, 499, 150}";
},
{
alignment = -1;
name = "";
transform = "{1, 0, 0, 1, 499, 200}";
},
{
alignment = -1;
name = "";
transform = "{1, 0, 0, 1, 499, 250}";
},
{
alignment = -1;
name = "";
transform = "{1, 0, 0, 1, 499, 300}";
},
{
alignment = -1;
name = "";
transform = "{1, 0, 0, 1, 499, 350}";
}
);
paths = (
{
closed = 1;
nodes = (
"458 525 LINE",
"509 525 LINE",
"576 0 LINE",
"486 0 LINE",
"486 82 LINE",
"448 17 OFFCURVE",
"376 -14 OFFCURVE",
"296 -14 CURVE SMOOTH",
"134 -14 OFFCURVE",
"34 105 OFFCURVE",
"79 273 CURVE SMOOTH",
"118 419 OFFCURVE",
"205 525 OFFCURVE",
"296 525 CURVE SMOOTH",
"367 525 OFFCURVE",
"434 504 OFFCURVE",
"470 446 CURVE"
);
},
{
closed = 1;
nodes = (
"111 175 OFFCURVE",
"134 136 OFFCURVE",
"284 138 CURVE SMOOTH",
"465 140 OFFCURVE",
"469 170 OFFCURVE",
"469 299 CURVE SMOOTH",
"469 448 OFFCURVE",
"362 476 OFFCURVE",
"295 476 CURVE",
"234 476 OFFCURVE",
"175 434 OFFCURVE",
"141 296 CURVE SMOOTH"
);
}
);
};
hints = (
{
horizontal = 1;
origin = "{0, 16}";
target = "{1, 11}";
type = TTStem;
options = 4;
},
{
horizontal = 1;
origin = "{1, 5}";
target = "{0, 10}";
type = TTStem;
options = 4;
},
{
horizontal = 1;
origin = "{0, 3}";
type = Anchor;
options = 4;
}
);
layerId = "BA196CD0-EE58-4274-B8DF-4393D3617A29";
paths = (
{
closed = 1;
nodes = (
"376 -14 OFFCURVE",
"448 17 OFFCURVE",
"486 82 CURVE",
"486 0 LINE",
"586 0 LINE",
"529 547 LINE",
"458 547 LINE",
"460 489 LINE",
"424 547 OFFCURVE",
"369 569 OFFCURVE",
"290 558 CURVE SMOOTH",
"233 550 OFFCURVE",
"117 519 OFFCURVE",
"80 312 CURVE SMOOTH",
"42 100 OFFCURVE",
"139 -14 OFFCURVE",
"296 -14 CURVE SMOOTH"
);
},
{
closed = 1;
nodes = (
"166 138 OFFCURVE",
"142 197 OFFCURVE",
"154 286 CURVE SMOOTH",
"173 424 OFFCURVE",
"255 474 OFFCURVE",
"311 474 CURVE",
"378 474 OFFCURVE",
"452 451 OFFCURVE",
"452 299 CURVE SMOOTH",
"452 250 OFFCURVE",
"445 138 OFFCURVE",
"284 138 CURVE SMOOTH"
);
}
);
width = 656;
},
{
anchors = (
{
name = abovecomb;
position = "{314, 599}";
},
{
name = bottom;
position = "{313, -40}";
},
{
name = dotbelow;
position = "{295, -126}";
},
{
name = ogonek;
position = "{557, 0}";
},
{
name = top;
position = "{317, 597}";
}
);
background = {
components = (
{
alignment = -1;
name = "";
transform = "{1, 0, 0, 1, 49, 150}";
},
{
alignment = -1;
name = "";
transform = "{1, 0, 0, 1, 49, 200}";
},
{
alignment = -1;
name = "";
transform = "{1, 0, 0, 1, 99, 50}";
},
{
alignment = -1;
name = "";
transform = "{1, 0, 0, 1, 99, 100}";
},
{
alignment = -1;
name = "";
transform = "{1, 0, 0, 1, 99, 150}";
},
{
alignment = -1;
name = "";
transform = "{1, 0, 0, 1, 99, 200}";
},
{
alignment = -1;
name = "";
transform = "{1, 0, 0, 1, 99, 250}";
},
{
alignment = -1;
name = "";
transform = "{1, 0, 0, 1, 99, 300}";
},
{
alignment = -1;
name = "";
transform = "{1, 0, 0, 1, 99, 350}";
},
{
alignment = -1;
name = "";
transform = "{1, 0, 0, 1, 149, 0}";
},
{
alignment = -1;
name = "";
transform = "{1, 0, 0, 1, 149, 50}";
},
{
alignment = -1;
name = "";
transform = "{1, 0, 0, 1, 149, 100}";
},
{
alignment = -1;
name = "";
transform = "{1, 0, 0, 1, 149, 400}";
},
{
alignment = -1;
name = "";
transform = "{1, 0, 0, 1, 199, 0}";
},
{
alignment = -1;
name = "";
transform = "{1, 0, 0, 1, 199, 50}";
},
{
alignment = -1;
name = "";
transform = "{1, 0, 0, 1, 199, 100}";
},
{
alignment = -1;
name = "";
transform = "{1, 0, 0, 1, 199, 450}";
},
{
alignment = -1;
name = "";
transform = "{1, 0, 0, 1, 249, 0}";
},
{
alignment = -1;
name = "";
transform = "{1, 0, 0, 1, 249, 50}";
},
{
alignment = -1;
name = "";
transform = "{1, 0, 0, 1, 249, 100}";
},
{
alignment = -1;
name = "";
transform = "{1, 0, 0, 1, 249, 450}";
},
{
alignment = -1;
name = "";
transform = "{1, 0, 0, 1, 299, 0}";
},
{
alignment = -1;
name = "";
transform = "{1, 0, 0, 1, 299, 50}";
},
{
alignment = -1;
name = "";
transform = "{1, 0, 0, 1, 299, 100}";
},
{
alignment = -1;
name = "";
transform = "{1, 0, 0, 1, 299, 450}";
},
{
alignment = -1;
name = "";
transform = "{1, 0, 0, 1, 349, 0}";
},
{
alignment = -1;
name = "";
transform = "{1, 0, 0, 1, 349, 50}";
},
{
alignment = -1;
name = "";
transform = "{1, 0, 0, 1, 349, 100}";
},
{
alignment = -1;
name = "";
transform = "{1, 0, 0, 1, 349, 450}";
},
{
alignment = -1;
name = "";
transform = "{1, 0, 0, 1, 399, 0}";
},
{
alignment = -1;
name = "";
transform = "{1, 0, 0, 1, 399, 50}";
},
{
alignment = -1;
name = "";
transform = "{1, 0, 0, 1, 399, 100}";
},
{
alignment = -1;
name = "";
transform = "{1, 0, 0, 1, 399, 450}";
},
{
alignment = -1;
name = "";
transform = "{1, 0, 0, 1, 449, 50}";
},
{
alignment = -1;
name = "";
transform = "{1, 0, 0, 1, 449, 100}";
},
{
alignment = -1;
name = "";
transform = "{1, 0, 0, 1, 449, 150}";
},
{
alignment = -1;
name = "";
transform = "{1, 0, 0, 1, 449, 200}";
},
{
alignment = -1;
name = "";
transform = "{1, 0, 0, 1, 449, 250}";
},
{
alignment = -1;
name = "";
transform = "{1, 0, 0, 1, 449, 300}";
},
{
alignment = -1;
name = "";
transform = "{1, 0, 0, 1, 449, 350}";
},
{
alignment = -1;
name = "";
transform = "{1, 0, 0, 1, 449, 400}";
},
{
alignment = -1;
name = "";
transform = "{1, 0, 0, 1, 449, 450}";
},
{
alignment = -1;
name = "";
transform = "{1, 0, 0, 1, 449, 500}";
},
{
alignment = -1;
name = "";
transform = "{1, 0, 0, 1, 499, 0}";
},
{
alignment = -1;
name = "";
transform = "{1, 0, 0, 1, 499, 50}";
},
{
alignment = -1;
name = "";
transform = "{1, 0, 0, 1, 499, 100}";
},
{
alignment = -1;
name = "";
transform = "{1, 0, 0, 1, 499, 150}";
},
{
alignment = -1;
name = "";
transform = "{1, 0, 0, 1, 499, 200}";
},
{
alignment = -1;
name = "";
transform = "{1, 0, 0, 1, 499, 250}";
},
{
alignment = -1;
name = "";
transform = "{1, 0, 0, 1, 499, 300}";
},
{
alignment = -1;
name = "";
transform = "{1, 0, 0, 1, 499, 350}";
}
);
paths = (
{
closed = 1;
nodes = (
"458 525 LINE",
"509 525 LINE",
"576 0 LINE",
"486 0 LINE",
"486 82 LINE",
"448 17 OFFCURVE",
"376 -14 OFFCURVE",
"296 -14 CURVE SMOOTH",
"134 -14 OFFCURVE",
"34 105 OFFCURVE",
"79 273 CURVE SMOOTH",
"118 419 OFFCURVE",
"205 525 OFFCURVE",
"296 525 CURVE SMOOTH",
"367 525 OFFCURVE",
"434 504 OFFCURVE",
"470 446 CURVE"
);
},
{
closed = 1;
nodes = (
"111 175 OFFCURVE",
"134 136 OFFCURVE",
"284 138 CURVE SMOOTH",
"465 140 OFFCURVE",
"469 170 OFFCURVE",
"469 299 CURVE SMOOTH",
"469 448 OFFCURVE",
"362 476 OFFCURVE",
"295 476 CURVE",
"234 476 OFFCURVE",
"175 434 OFFCURVE",
"141 296 CURVE SMOOTH"
);
}
);
};
layerId = "BBDB329E-CE83-4304-A6B1-53EA5ACC004E";
paths = (
{
closed = 1;
nodes = (
"360 -20 OFFCURVE",
"417 3 OFFCURVE",
"459 37 CURVE",
"459 -1 LINE",
"607 -1 LINE",
"543 562 LINE",
"427 562 LINE",
"431 530 LINE",
"395 551 OFFCURVE",
"336 566 OFFCURVE",
"291 567 CURVE SMOOTH",
"147 570 OFFCURVE",
"66 426 OFFCURVE",
"59 256 CURVE SMOOTH",
"52 84 OFFCURVE",
"126 -20 OFFCURVE",
"296 -20 CURVE SMOOTH"
);
},
{
closed = 1;
nodes = (
"163 165 OFFCURVE",
"142 179 OFFCURVE",
"171 290 CURVE SMOOTH",
"210 438 OFFCURVE",
"250 449 OFFCURVE",
"295 449 CURVE SMOOTH",
"413 449 OFFCURVE",
"414 376 OFFCURVE",
"436 299 CURVE SMOOTH",
"466 194 OFFCURVE",
"435 165 OFFCURVE",
"284 165 CURVE SMOOTH"
);
}
);
width = 656;
}
);
leftKerningGroup = Round;
unicode = 0061;
},
{
color = 7;
glyphname = b;
lastChange = "2019-09-10 20:01:15 +0000";
layers = (
{
anchors = (
{
name = _hook_top;
position = "{130, 778}";
},
{
name = bottom;
position = "{327, -37}";
},
{
name = top;
position = "{327, 800}";
},
{
name = top_hook;
position = "{128, 717}";
}
);
hints = (
{
place = "{99, 65}";
type = Stem;
},
{
horizontal = 1;
origin = "{0, 16}";
target = "{1, 11}";
type = TTStem;
options = 4;
},
{
horizontal = 1;
origin = "{1, 5}";
target = "{0, 5}";
type = TTStem;
options = 4;
}
);
layerId = "BA196CD0-EE58-4274-B8DF-4393D3617A29";
paths = (
{
closed = 1;
nodes = (
"481 -14 OFFCURVE",
"613 121 OFFCURVE",
"613 293 CURVE SMOOTH",
"613 437 OFFCURVE",
"496 560 OFFCURVE",
"348 556 CURVE SMOOTH",
"240 553 OFFCURVE",
"194 453 OFFCURVE",
"194 528 CURVE SMOOTH",
"194 800 LINE",
"60 800 LINE",
"90 437 OFFCURVE",
"95 144 OFFCURVE",
"116 99 CURVE SMOOTH",
"142 27 OFFCURVE",
"205 -14 OFFCURVE",
"348 -14 CURVE SMOOTH"
);
},
{
closed = 1;
nodes = (
"239 146 OFFCURVE",
"217 187 OFFCURVE",
"217 289 CURVE SMOOTH",
"217 395 OFFCURVE",
"274 468 OFFCURVE",
"369 468 CURVE SMOOTH",
"465 468 OFFCURVE",
"515 392 OFFCURVE",
"515 293 CURVE SMOOTH",
"515 211 OFFCURVE",
"449 152 OFFCURVE",
"369 146 CURVE"
);
}
);
width = 653;
},
{
anchors = (
{
name = _hook_top;
position = "{130, 778}";
},
{
name = bottom;
position = "{327, -37}";
},
{
name = top;
position = "{327, 800}";
},
{
name = top_hook;
position = "{128, 717}";
}
);
hints = (
{
place = "{99, 65}";
type = Stem;
}
);
layerId = "BBDB329E-CE83-4304-A6B1-53EA5ACC004E";
paths = (
{
closed = 1;
nodes = (
"527 1 OFFCURVE",
"624 88 OFFCURVE",
"610 273 CURVE SMOOTH",
"597 446 OFFCURVE",
"492 582 OFFCURVE",
"348 579 CURVE SMOOTH",
"275 577 OFFCURVE",
"201 539 OFFCURVE",
"201 504 CURVE",
"201 820 LINE",
"44 820 LINE",
"76 447 OFFCURVE",
"80 145 OFFCURVE",
"104 89 CURVE",
"139 -6 OFFCURVE",
"231 -27 OFFCURVE",
"348 -16 CURVE SMOOTH"
);
},
{
closed = 1;
nodes = (
"264 173 OFFCURVE",
"235 193 OFFCURVE",
"244 289 CURVE SMOOTH",
"253 383 OFFCURVE",
"292 441 OFFCURVE",
"369 441 CURVE SMOOTH",
"442 441 OFFCURVE",
"487 386 OFFCURVE",
"488 295 CURVE",
"477 216 OFFCURVE",
"441 179 OFFCURVE",
"368 173 CURVE"
);
},
{
closed = 0;
nodes = (
"394.065 413.575 LINE",
"393.892 413.575 OFFCURVE",
"393.719 413.575 OFFCURVE",
"393.547 413.575 CURVE"
);
}
);
width = 653;
}
);
rightKerningGroup = RoundRight;
unicode = 0062;
},
{
color = 7;
glyphname = c;
lastChange = "2019-09-11 01:03:16 +0000";
layers = (
{
anchors = (
{
name = bottom;
position = "{317, 0}";
},
{
name = top;
position = "{317, 547}";
},
{
name = top_hook;
position = "{398, 533}";
}
);
hints = (
{
horizontal = 1;
origin = "{0, 18}";
target = "{0, 2}";
type = TTStem;
options = 4;
}
);
layerId = "BA196CD0-EE58-4274-B8DF-4393D3617A29";
paths = (
{
closed = 1;
nodes = (
"423 555 OFFCURVE",
"367 561 OFFCURVE",
"319 560 CURVE SMOOTH",
"150 556 OFFCURVE",
"79 471 OFFCURVE",
"79 273 CURVE SMOOTH",
"79 97 OFFCURVE",
"142 7 OFFCURVE",
"349 -7 CURVE SMOOTH",
"410 -11 OFFCURVE",
"473 -4 OFFCURVE",
"520 24 CURVE",
"426 126 LINE",
"321 74 OFFCURVE",
"190 143 OFFCURVE",
"180 273 CURVE",
"180 422 OFFCURVE",
"242 481 OFFCURVE",
"339 482 CURVE SMOOTH",
"367 482 OFFCURVE",
"412 477 OFFCURVE",
"444 467 CURVE",
"444 548 LINE"
);
}
);
width = 593;
},
{
anchors = (
{
name = bottom;
position = "{317, 0}";
},
{
name = top;
position = "{311, 606}";
},
{
name = top_hook;
position = "{398, 533}";
}
);
layerId = "BBDB329E-CE83-4304-A6B1-53EA5ACC004E";
paths = (
{
closed = 1;
nodes = (
"414 -6 OFFCURVE",
"452 2 OFFCURVE",
"528 43 CURVE",
"414 171 LINE",
"312 89 OFFCURVE",
"217 147 OFFCURVE",
"207 274 CURVE",
"207 405 OFFCURVE",
"217 453 OFFCURVE",
"339 459 CURVE SMOOTH",
"378 461 OFFCURVE",
"413 458 OFFCURVE",
"471 440 CURVE",
"471 563 LINE",
"464 576 OFFCURVE",
"402 585 OFFCURVE",
"359 587 CURVE SMOOTH",
"166 596 OFFCURVE",
"53 474 OFFCURVE",
"53 273 CURVE SMOOTH",
"53 97 OFFCURVE",
"141 -6 OFFCURVE",
"347 -6 CURVE SMOOTH"
);
}
);
width = 593;
}
);
leftKerningGroup = Round;
unicode = 0063;
},
{
glyphname = ccurl;
lastChange = "2019-09-05 19:28:16 +0000";
layers = (
{
anchors = (
{
name = _curl;
position = "{152, 459}";
},
{
name = bottom;
position = "{317, 0}";
},
{
name = top;
position = "{317, 540}";
}
);
hints = (
{
horizontal = 1;
origin = "{0, 23}";
type = Anchor;
options = 4;
},
{
horizontal = 1;
origin = "{0, 33}";
target = "{0, 17}";
type = TTStem;
options = 4;
},
{
horizontal = 1;
origin = "{0, 48}";
target = "{0, 2}";
type = TTStem;
options = 4;
}
);
layerId = "BA196CD0-EE58-4274-B8DF-4393D3617A29";
paths = (
{
closed = 1;
nodes = (
"423 555 OFFCURVE",
"386 560 OFFCURVE",
"359 560 CURVE SMOOTH",
"189 560 OFFCURVE",
"80 451 OFFCURVE",
"80 273 CURVE SMOOTH",
"80 97 OFFCURVE",
"143 -14 OFFCURVE",
"349 -14 CURVE SMOOTH",
"474 -14 OFFCURVE",
"606 83 OFFCURVE",
"606 183 CURVE SMOOTH",
"606 223 OFFCURVE",
"585 263 OFFCURVE",
"535 298 CURVE SMOOTH",
"499 323 OFFCURVE",
"464 334 OFFCURVE",
"433 334 CURVE SMOOTH",
"358 334 OFFCURVE",
"306 269 OFFCURVE",
"306 176 CURVE SMOOTH",
"306 40 OFFCURVE",
"306 -79 OFFCURVE",
"306 -200 CURVE",
"416 -200 LINE",
"416 -137 OFFCURVE",
"412 -75 OFFCURVE",
"408 -10 CURVE SMOOTH",
"405 42 OFFCURVE",
"400 95 OFFCURVE",
"400 152 CURVE SMOOTH",
"400 213 OFFCURVE",
"421 239 OFFCURVE",
"448 239 CURVE SMOOTH",
"462 239 OFFCURVE",
"478 232 OFFCURVE",
"494 220 CURVE SMOOTH",
"502 214 OFFCURVE",
"505 206 OFFCURVE",
"505 197 CURVE SMOOTH",
"505 158 OFFCURVE",
"436 97 OFFCURVE",
"324 97 CURVE SMOOTH",
"213 97 OFFCURVE",
"181 203 OFFCURVE",
"180 273 CURVE",
"180 406 OFFCURVE",
"222 489 OFFCURVE",
"339 489 CURVE SMOOTH",
"367 489 OFFCURVE",
"412 487 OFFCURVE",
"444 477 CURVE",
"444 548 LINE"
);
}
);
width = 686;
},
{
anchors = (
{
name = _curl;
position = "{152, 459}";
},
{
name = bottom;
position = "{317, 0}";
},
{
name = top;
position = "{317, 540}";
}
);
layerId = "BBDB329E-CE83-4304-A6B1-53EA5ACC004E";
paths = (
{
closed = 1;
nodes = (
"464 576 OFFCURVE",
"402 587 OFFCURVE",
"359 587 CURVE SMOOTH",
"173 587 OFFCURVE",
"53 464 OFFCURVE",
"53 273 CURVE SMOOTH",
"53 60 OFFCURVE",
"147 -41 OFFCURVE",
"349 -41 CURVE SMOOTH",
"491 -41 OFFCURVE",
"633 69 OFFCURVE",
"633 183 CURVE SMOOTH",
"633 235 OFFCURVE",
"604 283 OFFCURVE",
"550 320 CURVE SMOOTH",
"513 346 OFFCURVE",
"471 361 OFFCURVE",
"433 361 CURVE SMOOTH",
"343 361 OFFCURVE",
"279 284 OFFCURVE",
"279 176 CURVE SMOOTH",
"279 30 OFFCURVE",
"279 -97 OFFCURVE",
"279 -227 CURVE",
"443 -227 LINE",
"444 -154 OFFCURVE",
"440 -82 OFFCURVE",
"435 -8 CURVE SMOOTH",
"432 43 OFFCURVE",
"427 96 OFFCURVE",
"427 152 CURVE SMOOTH",
"427 192 OFFCURVE",
"437 212 OFFCURVE",
"448 212 CURVE SMOOTH",
"456 212 OFFCURVE",
"465 208 OFFCURVE",
"478 198 CURVE",
"480 197 OFFCURVE",
"478 202 OFFCURVE",
"478 197 CURVE SMOOTH",
"478 165 OFFCURVE",
"399 124 OFFCURVE",
"324 124 CURVE SMOOTH",
"253 124 OFFCURVE",
"208 182 OFFCURVE",
"207 273 CURVE",
"207 405 OFFCURVE",
"248 462 OFFCURVE",
"339 462 CURVE SMOOTH",
"378 462 OFFCURVE",
"413 458 OFFCURVE",
"471 440 CURVE",
"471 563 LINE"
);
}
);
width = 686;
}
);
unicode = 0255;
},
{
color = 7;
glyphname = d;
lastChange = "2019-09-10 20:09:00 +0000";
layers = (
{
anchors = (
{
name = bottom;
position = "{298, -42}";
},
{
name = bottom_hook;
position = "{518, 27}";
},
{
name = center;
position = "{375, 273}";
},
{
name = circumflexbelow;
position = "{304, -54}";
},
{
name = croat;
position = "{534, 624}";
},
{
name = dotbelow;
position = "{298, -51}";
},
{
name = ezh;
position = "{540, 601}";
},
{
name = right;
position = "{631, 674}";
},
{
name = right_el;
position = "{679, 526}";
},
{
name = top;
position = "{304, 590}";
},
{
name = top_hook;
position = "{525, 700}";
},
{
name = topright;
position = "{641, 500}";
}
);
hints = (
{
horizontal = 1;
origin = "{0, 8}";
target = "{1, 8}";
type = TTStem;
options = 4;
},
{
horizontal = 1;
origin = "{1, 2}";
target = "{0, 2}";
type = TTStem;
options = 4;
},
{
horizontal = 1;
origin = "{0, 16}";
type = Anchor;
options = 4;
},
{
horizontal = 1;
origin = "{0, 12}";
type = Anchor;
options = 4;
}
);
layerId = "BA196CD0-EE58-4274-B8DF-4393D3617A29";
paths = (
{
closed = 1;
nodes = (
"442 535 OFFCURVE",
"384 581 OFFCURVE",
"304 577 CURVE SMOOTH",
"172 570 OFFCURVE",
"59 431 OFFCURVE",
"50 273 CURVE SMOOTH",
"40 101 OFFCURVE",
"147 -11 OFFCURVE",
"304 -14 CURVE SMOOTH",
"384 -16 OFFCURVE",
"442 7 OFFCURVE",
"479 72 CURVE",
"479 0 LINE",
"574 -2 LINE",
"562 235 LINE",
"586 800 LINE",
"496 800 LINE",
"479 470 LINE"
);
},
{
closed = 1;
nodes = (
"145 391 OFFCURVE",
"202 471 OFFCURVE",
"298 471 CURVE SMOOTH",
"393 471 OFFCURVE",
"439 398 OFFCURVE",
"439 290 CURVE SMOOTH",
"439 169 OFFCURVE",
"370 149 OFFCURVE",
"295 149 CURVE SMOOTH",
"200 149 OFFCURVE",
"145 188 OFFCURVE",
"145 283 CURVE SMOOTH"
);
}
);
width = 666;
},
{
anchors = (
{
name = bottom;
position = "{298, -42}";
},
{
name = bottom_hook;
position = "{518, 27}";
},
{
name = center;
position = "{375, 273}";
},
{
name = circumflexbelow;
position = "{304, -74}";
},
{
name = croat;
position = "{534, 624}";
},
{
name = dotbelow;
position = "{298, -71}";
},
{
name = ezh;
position = "{540, 601}";
},
{
name = right;
position = "{631, 674}";
},
{
name = right_el;
position = "{679, 526}";
},
{
name = top;
position = "{304, 583}";
},
{
name = top_hook;
position = "{525, 700}";
},
{
name = topright;
position = "{641, 500}";
}
);
layerId = "BBDB329E-CE83-4304-A6B1-53EA5ACC004E";
paths = (
{
closed = 1;
nodes = (
"366 -13 OFFCURVE",
"380 0 OFFCURVE",
"462 47 CURVE",
"452 3 LINE",
"602 -1 LINE",
"589 235 LINE",
"614 801 LINE",
"470 801 LINE",
"464 575 LINE SMOOTH",
"462 486 OFFCURVE",
"420 583 OFFCURVE",
"304 583 CURVE SMOOTH",
"160 583 OFFCURVE",
"43 442 OFFCURVE",
"43 273 CURVE SMOOTH",
"43 120 OFFCURVE",
"127 -13 OFFCURVE",
"305 -13 CURVE SMOOTH"
);
},
{
closed = 1;
nodes = (
"209 176 OFFCURVE",
"172 199 OFFCURVE",
"172 283 CURVE SMOOTH",
"172 382 OFFCURVE",
"230 444 OFFCURVE",
"298 444 CURVE SMOOTH",
"366 444 OFFCURVE",
"417 382 OFFCURVE",
"417 283 CURVE SMOOTH",
"417 199 OFFCURVE",
"381 176 OFFCURVE",
"295 176 CURVE SMOOTH"
);
}
);
width = 666;
}
);
leftKerningGroup = Round;
unicode = 0064;
},
{
glyphname = dzaltone;
lastChange = "2019-09-05 19:28:16 +0000";
layers = (
{
components = (
{
name = d;
},
{
name = z;
transform = "{1, 0, 0, 1, 496, -13}";
}
);
hints = (
{
horizontal = 1;
origin = "{0, 0}";
target = "{0, 3}";
type = TTStem;
options = 4;
}
);
layerId = "BA196CD0-EE58-4274-B8DF-4393D3617A29";
paths = (
{
closed = 1;
nodes = (
"519 469 LINE",
"723 469 LINE",
"723 536 LINE",
"519 536 LINE"
);
}
);
width = 1167;
},
{
components = (
{
name = d;
},
{
name = z;
transform = "{1, 0, 0, 1, 496, -13}";
}
);
layerId = "BBDB329E-CE83-4304-A6B1-53EA5ACC004E";
paths = (
{
closed = 1;
nodes = (
"492 442 LINE",
"750 442 LINE",
"750 563 LINE",
"492 563 LINE"
);
}
);
width = 1167;
}
);
unicode = 02A3;
},
{
glyphname = dzcurl;
lastChange = "2019-09-05 19:28:16 +0000";
layers = (
{
components = (
{
name = d;
},
{
name = zcurl;
transform = "{1, 0, 0, 1, 503, -1}";
}
);
hints = (
{
horizontal = 1;
origin = "{0, 0}";
target = "{0, 3}";
type = TTStem;
options = 4;
}
);
layerId = "BA196CD0-EE58-4274-B8DF-4393D3617A29";
paths = (
{
closed = 1;
nodes = (
"521 481 LINE",
"730 481 LINE",
"730 548 LINE",
"521 548 LINE"
);
}
);
width = 1229;
},
{
components = (
{
name = d;
},
{
name = zcurl;
transform = "{1, 0, 0, 1, 503, -1}";
}
);
layerId = "BBDB329E-CE83-4304-A6B1-53EA5ACC004E";
paths = (
{
closed = 1;
nodes = (
"494 454 LINE",
"757 454 LINE",
"757 575 LINE",
"494 575 LINE"
);
}
);
width = 1229;
}
);
unicode = 02A5;
},
{
color = 7;
glyphname = e;
lastChange = "2019-09-10 20:10:39 +0000";
layers = (
{
anchors = (
{
name = _hook;
position = "{353, 539}";
},
{
name = bottom;
position = "{336, 0}";
},
{
name = center;
position = "{117, 267}";
},
{
name = dotbelow;
position = "{350, -22}";
},
{
name = ogonek;
position = "{434, -7}";
},
{
name = righthook;
position = "{575, 274}";
},
{
name = top;
position = "{336, 599}";
}
);
hints = (
{
horizontal = 1;
origin = "{0, 7}";
target = "{0, 14}";
type = TTStem;
options = 4;
},
{
horizontal = 1;
origin = "{1, 2}";
target = "{0, 1}";
type = TTStem;
options = 4;
}
);
layerId = "BA196CD0-EE58-4274-B8DF-4393D3617A29";
paths = (
{
closed = 1;
nodes = (
"461 571 OFFCURVE",
"349 580 CURVE",
"184 580 OFFCURVE",
"77 447 OFFCURVE",
"70 268 CURVE",
"70 95 OFFCURVE",
"190 -14 OFFCURVE",
"364 -14 CURVE SMOOTH",
"435 -14 OFFCURVE",
"500 0 OFFCURVE",
"565 28 CURVE",
"565 152 LINE",
"488 119 OFFCURVE",
"441 111 OFFCURVE",
"367 119 CURVE SMOOTH",
"226 134 OFFCURVE",
"161 192 OFFCURVE",
"161 287 CURVE",
"594 315 LINE",
"562 496 OFFCURVE"
);
},
{
closed = 1;
nodes = (
"174 430 OFFCURVE",
"247 506 OFFCURVE",
"349 513 CURVE SMOOTH",
"453 520 OFFCURVE",
"484 456 OFFCURVE",
"494 395 CURVE",
"174 364 LINE"
);
}
);
width = 654;
},
{
anchors = (
{
name = _hook;
position = "{353, 529}";
},
{
name = bottom;
position = "{336, 0}";
},
{
name = center;
position = "{117, 267}";
},
{
name = dotbelow;
position = "{350, -22}";
},
{
name = ogonek;
position = "{434, -7}";
},
{
name = righthook;
position = "{575, 274}";
},
{
name = top;
position = "{336, 689}";
}
);
layerId = "BBDB329E-CE83-4304-A6B1-53EA5ACC004E";
paths = (
{
closed = 1;
nodes = (
"578 483 OFFCURVE",
"501 575 OFFCURVE",
"351 587 CURVE",
"349 587 LINE SMOOTH",
"173 587 OFFCURVE",
"61 466 OFFCURVE",
"53 269 CURVE",
"53 268 LINE SMOOTH",
"53 80 OFFCURVE",
"175 -23 OFFCURVE",
"364 -23 CURVE SMOOTH",
"443 -23 OFFCURVE",
"517 -5 OFFCURVE",
"592 30 CURVE",
"592 195 LINE",
"496 145 OFFCURVE",
"454 135 OFFCURVE",
"366 146 CURVE SMOOTH",
"265 159 OFFCURVE",
"201 186 OFFCURVE",
"190 262 CURVE",
"605 290 LINE"
);
},
{
closed = 1;
nodes = (
"232 449 OFFCURVE",
"286 488 OFFCURVE",
"349 486 CURVE SMOOTH",
"402 484 OFFCURVE",
"448 455 OFFCURVE",
"468 411 CURVE",
"216 402 LINE"
);
}
);
width = 654;
}
);
leftKerningGroup = Round;
unicode = 0065;
},
{
glyphname = eopen;
lastChange = "2019-09-05 19:28:16 +0000";
layers = (
{
anchors = (
{
name = top;
position = "{253, 520}";
}
);
hints = (
{
horizontal = 1;
origin = "{0, 40}";
target = "{0, 6}";
type = TTStem;
options = 4;
},
{
horizontal = 1;
origin = "{0, 12}";
target = "{0, 15}";
type = TTStem;
options = 4;
},
{
horizontal = 1;
origin = "{0, 28}";
target = "{0, 21}";
type = TTStem;
options = 4;
}
);
layerId = "BA196CD0-EE58-4274-B8DF-4393D3617A29";
paths = (
{
closed = 1;
nodes = (
"295 -12 OFFCURVE",
"458 17 OFFCURVE",
"400 189 CURVE",
"320 182 LINE",
"346 79 OFFCURVE",
"295 78 OFFCURVE",
"246 79 CURVE SMOOTH",
"178 80 OFFCURVE",
"152 120 OFFCURVE",
"152 165 CURVE",
"152 210 OFFCURVE",
"191 243 OFFCURVE",
"265 242 CURVE SMOOTH",
"287 242 LINE",
"275 295 LINE",
"252 295 LINE",
"186 295 OFFCURVE",
"139 314 OFFCURVE",
"139 377 CURVE SMOOTH",
"139 431 OFFCURVE",
"195 456 OFFCURVE",
"263 456 CURVE SMOOTH",
"299 456 OFFCURVE",
"339 438 OFFCURVE",
"338 379 CURVE",
"383 388 LINE",
"383 476 OFFCURVE",
"296 500 OFFCURVE",
"256 500 CURVE SMOOTH",
"154 500 OFFCURVE",
"91 451 OFFCURVE",
"91 372 CURVE SMOOTH",
"91 318 OFFCURVE",
"118 286 OFFCURVE",
"182 263 CURVE",
"103 252 OFFCURVE",
"80 210 OFFCURVE",
"80 147 CURVE SMOOTH",
"80 40 OFFCURVE",
"161 -12 OFFCURVE",
"253 -12 CURVE SMOOTH"
);
}
);
width = 492;
},
{
anchors = (
{
name = top;
position = "{253, 520}";
}
);
layerId = "BBDB329E-CE83-4304-A6B1-53EA5ACC004E";
paths = (
{
closed = 1;
nodes = (
"297 -26 OFFCURVE",
"484 7 OFFCURVE",
"410 204 CURVE",
"302 195 LINE",
"331 93 OFFCURVE",
"298 92 OFFCURVE",
"246 93 CURVE SMOOTH",
"195 94 OFFCURVE",
"166 120 OFFCURVE",
"166 165 CURVE SMOOTH",
"166 204 OFFCURVE",
"203 228 OFFCURVE",
"265 228 CURVE SMOOTH",
"305 228 LINE",
"287 309 LINE",
"252 309 LINE SMOOTH",
"183 309 OFFCURVE",
"153 330 OFFCURVE",
"153 377 CURVE SMOOTH",
"153 417 OFFCURVE",
"194 442 OFFCURVE",
"263 442 CURVE SMOOTH",
"308 442 OFFCURVE",
"330 413 OFFCURVE",
"322 361 CURVE",
"397 376 LINE",
"405 485 OFFCURVE",
"300 514 OFFCURVE",
"256 514 CURVE SMOOTH",
"146 514 OFFCURVE",
"77 459 OFFCURVE",
"77 372 CURVE SMOOTH",
"77 325 OFFCURVE",
"96 291 OFFCURVE",
"138 267 CURVE",
"89 249 OFFCURVE",
"66 210 OFFCURVE",
"66 147 CURVE SMOOTH",
"66 43 OFFCURVE",
"140 -26 OFFCURVE",
"253 -26 CURVE SMOOTH"
);
}
);
width = 492;
}
);
unicode = 025B;
},
{
glyphname = eopenreversedclosed;
lastChange = "2019-09-05 19:28:16 +0000";
layers = (
{
hints = (
{
horizontal = 1;
origin = "{0, 2}";
target = "{1, 17}";
type = TTStem;
options = 4;
},
{
horizontal = 1;
origin = "{1, 10}";
target = "{1, 9}";
type = TTStem;
options = 4;
},
{
horizontal = 1;
origin = "{0, 14}";
target = "{1, 2}";
type = TTStem;
options = 4;
}
);
layerId = "BA196CD0-EE58-4274-B8DF-4393D3617A29";
paths = (
{
closed = 1;
nodes = (
"80 119 OFFCURVE",
"149 -4 OFFCURVE",
"327 -12 CURVE SMOOTH",
"419 -16 OFFCURVE",
"500 40 OFFCURVE",
"500 147 CURVE SMOOTH",
"500 210 OFFCURVE",
"477 252 OFFCURVE",
"398 263 CURVE",
"485 290 OFFCURVE",
"489 318 OFFCURVE",
"489 372 CURVE SMOOTH",
"489 451 OFFCURVE",
"426 500 OFFCURVE",
"324 500 CURVE SMOOTH",
"126 500 OFFCURVE",
"80 369 OFFCURVE",
"80 249 CURVE SMOOTH"
);
},
{
closed = 1;
nodes = (
"142 346 OFFCURVE",
"191 456 OFFCURVE",
"317 456 CURVE SMOOTH",
"385 456 OFFCURVE",
"441 431 OFFCURVE",
"441 377 CURVE SMOOTH",
"441 314 OFFCURVE",
"394 295 OFFCURVE",
"328 295 CURVE SMOOTH",
"305 295 LINE",
"293 242 LINE",
"315 242 LINE SMOOTH",
"389 243 OFFCURVE",
"428 210 OFFCURVE",
"428 165 CURVE SMOOTH",
"428 120 OFFCURVE",
"402 79 OFFCURVE",
"334 79 CURVE SMOOTH",
"184 79 OFFCURVE",
"142 194 OFFCURVE",
"142 252 CURVE SMOOTH"
);
}
);
width = 580;
},
{
layerId = "BBDB329E-CE83-4304-A6B1-53EA5ACC004E";
paths = (
{
closed = 1;
nodes = (
"53 79 OFFCURVE",
"157 -31 OFFCURVE",
"326 -39 CURVE SMOOTH",
"443 -44 OFFCURVE",
"527 33 OFFCURVE",
"527 147 CURVE SMOOTH",
"527 203 OFFCURVE",
"509 243 OFFCURVE",
"472 266 CURVE",
"505 289 OFFCURVE",
"516 319 OFFCURVE",
"516 372 CURVE SMOOTH",
"516 467 OFFCURVE",
"440 527 OFFCURVE",
"324 527 CURVE SMOOTH",
"149 527 OFFCURVE",
"53 428 OFFCURVE",
"53 249 CURVE SMOOTH"
);
},
{
closed = 1;
nodes = (
"169 358 OFFCURVE",
"227 429 OFFCURVE",
"317 429 CURVE SMOOTH",
"379 429 OFFCURVE",
"414 408 OFFCURVE",
"414 377 CURVE SMOOTH",
"414 338 OFFCURVE",
"390 322 OFFCURVE",
"328 322 CURVE SMOOTH",
"283 322 LINE",
"259 215 LINE",
"315 215 LINE SMOOTH",
"370 216 OFFCURVE",
"401 196 OFFCURVE",
"401 165 CURVE SMOOTH",
"401 127 OFFCURVE",
"379 106 OFFCURVE",
"334 106 CURVE SMOOTH",
"238 106 OFFCURVE",
"169 168 OFFCURVE",
"169 252 CURVE SMOOTH"
);
}
);
width = 580;
}
);
unicode = 025E;
},
{
glyphname = esh;
lastChange = "2019-09-05 19:28:16 +0000";
layers = (
{
hints = (
{
horizontal = 1;
origin = "{0, 17}";
target = "{0, 10}";
type = TTStem;
options = 4;
},
{
horizontal = 1;
origin = "{0, 25}";
target = "{0, 2}";
type = TTStem;
options = 4;
}
);
layerId = "BA196CD0-EE58-4274-B8DF-4393D3617A29";
paths = (
{
closed = 1;
nodes = (
"749 754 OFFCURVE",
"717 760 OFFCURVE",
"682 760 CURVE SMOOTH",
"584 760 OFFCURVE",
"514 694 OFFCURVE",
"494 575 CURVE SMOOTH",
"455 344 LINE",
"417 83 LINE",
"395 -25 OFFCURVE",
"363 -65 OFFCURVE",
"300 -65 CURVE SMOOTH",
"269 -65 OFFCURVE",
"238 -54 OFFCURVE",
"205 -33 CURVE",
"80 -98 LINE",
"129 -180 OFFCURVE",
"238 -208 OFFCURVE",
"275 -208 CURVE SMOOTH",
"389 -208 OFFCURVE",
"472 -216 OFFCURVE",
"516 107 CURVE SMOOTH",
"548 344 LINE",
"585 576 LINE SMOOTH",
"599 662 OFFCURVE",
"637 700 OFFCURVE",
"700 700 CURVE SMOOTH",
"729 700 OFFCURVE",
"754 691 OFFCURVE",
"779 672 CURVE",
"779 742 LINE"
);
}
);
width = 859;
},
{
layerId = "BBDB329E-CE83-4304-A6B1-53EA5ACC004E";
paths = (
{
closed = 1;
nodes = (
"768 778 OFFCURVE",
"727 787 OFFCURVE",
"682 787 CURVE SMOOTH",
"569 787 OFFCURVE",
"489 710 OFFCURVE",
"467 579 CURVE SMOOTH",
"428 348 LINE",
"390 88 LINE",
"371 -8 OFFCURVE",
"347 -38 OFFCURVE",
"300 -38 CURVE SMOOTH",
"271 -38 OFFCURVE",
"243 -27 OFFCURVE",
"207 -2 CURVE",
"44 -86 LINE",
"89 -198 OFFCURVE",
"231 -235 OFFCURVE",
"275 -235 CURVE SMOOTH",
"388 -235 OFFCURVE",
"495 -245 OFFCURVE",
"543 103 CURVE SMOOTH",
"575 340 LINE",
"612 572 LINE SMOOTH",
"623 643 OFFCURVE",
"650 673 OFFCURVE",
"700 673 CURVE SMOOTH",
"738 673 OFFCURVE",
"761 657 OFFCURVE",
"806 611 CURVE",
"806 760 LINE"
);
}
);
width = 859;
}
);
unicode = 0283;
},
{
glyphname = ezh;
lastChange = "2019-09-05 19:28:16 +0000";
layers = (
{
anchors = (
{
name = _ezh;
position = "{95, 623}";
},
{
name = bottom;
position = "{348, 0}";
},
{
name = top;
position = "{337, 693}";
}
);
hints = (
{
horizontal = 1;
place = "{234.43, 79.57}";
type = TTStem;
options = 4;
},
{
horizontal = 1;
origin = "{0, 9}";
target = "{0, 8}";
type = TTStem;
options = 4;
}
);
layerId = "BA196CD0-EE58-4274-B8DF-4393D3617A29";
paths = (
{
closed = 1;
nodes = (
"461 406 OFFCURVE",
"486 427 OFFCURVE",
"576 527 CURVE",
"568 598 OFFCURVE",
"570 598 OFFCURVE",
"558 667 CURVE",
"478 671 OFFCURVE",
"181 667 OFFCURVE",
"83 667 CURVE",
"83 573 LINE",
"230 572 OFFCURVE",
"365 572 OFFCURVE",
"478 573 CURVE",
"384 468 OFFCURVE",
"329 430 OFFCURVE",
"217 325 CURVE",
"217 232 LINE",
"357 245 OFFCURVE",
"471 205 OFFCURVE",
"478 126 CURVE",
"481 -23 OFFCURVE",
"348 -111 OFFCURVE",
"207 27 CURVE",
"80 -77 LINE",
"207 -202 OFFCURVE",
"332 -200 OFFCURVE",
"365 -200 CURVE SMOOTH",
"579 -200 OFFCURVE",
"617 -57 OFFCURVE",
"603 107 CURVE SMOOTH",
"595 203 OFFCURVE",
"489 305 OFFCURVE",
"369 314 CURVE"
);
}
);
width = 686;
},
{
anchors = (
{
name = _ezh;
position = "{95, 623}";
},
{
name = bottom;
position = "{348, 0}";
},
{
name = top;
position = "{337, 693}";
}
);
layerId = "BBDB329E-CE83-4304-A6B1-53EA5ACC004E";
paths = (
{
closed = 1;
nodes = (
"489 395 OFFCURVE",
"519 423 OFFCURVE",
"596 509 CURVE",
"603 530 LINE",
"598 572 OFFCURVE",
"597 602 OFFCURVE",
"585 672 CURVE",
"559 694 LINE",
"468 699 OFFCURVE",
"100 693 OFFCURVE",
"56 694 CURVE",
"56 546 LINE",
"186 545 OFFCURVE",
"309 545 OFFCURVE",
"416 546 CURVE",
"344 472 OFFCURVE",
"290 431 OFFCURVE",
"190 337 CURVE",
"190 202 LINE",
"334 222 OFFCURVE",
"445 186 OFFCURVE",
"451 124 CURVE",
"453 -26 OFFCURVE",
"323 -65 OFFCURVE",
"209 64 CURVE",
"40 -75 LINE",
"182 -229 OFFCURVE",
"331 -227 OFFCURVE",
"365 -227 CURVE SMOOTH",
"561 -227 OFFCURVE",
"649 -114 OFFCURVE",
"630 109 CURVE SMOOTH",
"622 207 OFFCURVE",
"531 301 OFFCURVE",
"425 331 CURVE"
);
}
);
width = 686;
}
);
unicode = 0292;
},
{
color = 7;
glyphname = f;
lastChange = "2019-09-09 00:18:41 +0000";
layers = (
{
anchors = (
{
name = bottom;
position = "{242, 0}";
},
{
name = center;
position = "{212, 265}";
},
{
name = top;
position = "{242, 800}";
}
);
hints = (
{
horizontal = 1;
origin = "{0, 17}";
type = Anchor;
options = 4;
},
{
horizontal = 1;
place = "{458, 88}";
type = TTStem;
options = 4;
},
{
horizontal = 1;
origin = "{0, 7}";
target = "{0, 10}";
type = TTStem;
options = 4;
}
);
layerId = "BA196CD0-EE58-4274-B8DF-4393D3617A29";
paths = (
{
closed = 1;
nodes = (
"276 -1 LINE",
"261 458 LINE",
"404 458 LINE",
"404 547 LINE",
"249 545 LINE",
"240 584 OFFCURVE",
"225 720 OFFCURVE",
"314 720 CURVE",
"395 720 LINE",
"395 795 LINE",
"315 795 LINE",
"212 795 OFFCURVE",
"161 761 OFFCURVE",
"161 547 CURVE",
"80 547 LINE",
"80 458 LINE",
"161 458 LINE",
"146 -1 LINE"
);
}
);
width = 484;
},
{
anchors = (
{
name = bottom;
position = "{242, 0}";
},
{
name = center;
position = "{212, 265}";
},
{
name = top;
position = "{242, 800}";
}
);
layerId = "BBDB329E-CE83-4304-A6B1-53EA5ACC004E";
paths = (
{
closed = 1;
nodes = (
"304 -1 LINE",
"289 431 LINE",
"431 431 LINE",
"431 574 LINE",
"271 572 LINE",
"265 618 OFFCURVE",
"264 693 OFFCURVE",
"314 693 CURVE SMOOTH",
"422 693 LINE",
"422 822 LINE",
"315 822 LINE SMOOTH",
"185 822 OFFCURVE",
"138 758 OFFCURVE",
"134 574 CURVE",
"53 574 LINE",
"53 431 LINE",
"133 431 LINE",
"118 -1 LINE"
);
}
);
width = 484;
}
);
unicode = 0066;
},
{
color = 7;
glyphname = g;
lastChange = "2019-09-10 20:12:10 +0000";
layers = (
{
anchors = (
{
name = bottom;
position = "{301, -261}";
},
{
name = comma;
position = "{307, -262}";
},
{
name = top;
position = "{340, 547}";
},
{
name = top_hook;
position = "{528, 353}";
}
);
hints = (
{
horizontal = 1;
origin = "{0, 25}";
type = Anchor;
options = 4;
},
{
horizontal = 1;
origin = "{0, 14}";
target = "{1, 11}";
type = TTStem;
options = 4;
},
{
horizontal = 1;
origin = "{1, 5}";
target = "{0, 8}";
type = TTStem;
options = 4;
},
{
horizontal = 1;
origin = "{0, 28}";
target = "{0, 21}";
type = TTStem;
options = 4;
}
);
layerId = "BA196CD0-EE58-4274-B8DF-4393D3617A29";
paths = (
{
closed = 1;
nodes = (
"472 -261 OFFCURVE",
"548 -152 OFFCURVE",
"558 69 CURVE SMOOTH",
"579 547 LINE",
"489 547 LINE",
"468 477 LINE",
"413 518 OFFCURVE",
"384 560 OFFCURVE",
"304 560 CURVE SMOOTH",
"170 560 OFFCURVE",
"80 449 OFFCURVE",
"80 280 CURVE SMOOTH",
"80 111 OFFCURVE",
"170 -10 OFFCURVE",
"304 -10 CURVE SMOOTH",
"364 -10 OFFCURVE",
"414 17 OFFCURVE",
"464 62 CURVE",
"452 16 LINE",
"429 -49 OFFCURVE",
"371 -114 OFFCURVE",
"293 -124 CURVE SMOOTH",
"240 -131 OFFCURVE",
"189 -111 OFFCURVE",
"136 -82 CURVE",
"99 -214 LINE",
"161 -245 OFFCURVE",
"238 -261 OFFCURVE",
"301 -261 CURVE SMOOTH"
);
},
{
closed = 1;
nodes = (
"183 146 OFFCURVE",
"153 172 OFFCURVE",
"162 285 CURVE SMOOTH",
"169 373 OFFCURVE",
"191 460 OFFCURVE",
"287 460 CURVE SMOOTH",
"384 460 OFFCURVE",
"440 373 OFFCURVE",
"440 275 CURVE SMOOTH",
"440 172 OFFCURVE",
"377 146 OFFCURVE",
"280 146 CURVE SMOOTH"
);
}
);
width = 659;
},
{
anchors = (
{
name = bottom;
position = "{301, -261}";
},
{
name = comma;
position = "{307, -262}";
},
{
name = top;
position = "{340, 596}";
},
{
name = top_hook;
position = "{528, 353}";
}
);
layerId = "BBDB329E-CE83-4304-A6B1-53EA5ACC004E";
paths = (
{
closed = 1;
nodes = (
"483 -288 OFFCURVE",
"574 -173 OFFCURVE",
"585 68 CURVE SMOOTH",
"607 574 LINE",
"469 574 LINE",
"454 523 LINE",
"416 556 OFFCURVE",
"379 587 OFFCURVE",
"304 587 CURVE SMOOTH",
"154 587 OFFCURVE",
"53 463 OFFCURVE",
"53 280 CURVE SMOOTH",
"53 97 OFFCURVE",
"154 -27 OFFCURVE",
"304 -27 CURVE SMOOTH",
"384 -27 OFFCURVE",
"458 9 OFFCURVE",
"447 -7 CURVE",
"447 55 LINE",
"428 -17 OFFCURVE",
"378 -117 OFFCURVE",
"293 -117 CURVE SMOOTH",
"242 -117 OFFCURVE",
"180 -80 OFFCURVE",
"120 -41 CURVE",
"67 -227 LINE",
"131 -265 OFFCURVE",
"222 -288 OFFCURVE",
"301 -288 CURVE SMOOTH"
);
},
{
closed = 1;
nodes = (
"186 173 OFFCURVE",
"171 185 OFFCURVE",
"161 286 CURVE",
"161 401 OFFCURVE",
"207 463 OFFCURVE",
"287 463 CURVE SMOOTH",
"368 463 OFFCURVE",
"413 400 OFFCURVE",
"413 285 CURVE SMOOTH",
"413 192 OFFCURVE",
"389 173 OFFCURVE",
"280 173 CURVE SMOOTH"
);
}
);
width = 659;
}
);
unicode = 0067;
},
{
glyphname = "gamma-latin";
lastChange = "2019-09-05 19:28:16 +0000";
layers = (
{
hints = (
{
horizontal = 1;
origin = "{0, 23}";
target = "{0, 10}";
type = TTStem;
options = 4;
},
{
horizontal = 1;
origin = "{0, 3}";
type = Anchor;
options = 4;
}
);
layerId = "BA196CD0-EE58-4274-B8DF-4393D3617A29";
paths = (
{
closed = 1;
nodes = (
"182 481 CURVE SMOOTH",
"170 493 OFFCURVE",
"165 500 OFFCURVE",
"153 515 CURVE",
"80 455 LINE",
"90 443 OFFCURVE",
"89 442 OFFCURVE",
"97 435 CURVE SMOOTH",
"510 41 OFFCURVE",
"472 -103 OFFCURVE",
"348 -100 CURVE SMOOTH",
"191 -96 OFFCURVE",
"224 74 OFFCURVE",
"607 427 CURVE SMOOTH",
"614 433 OFFCURVE",
"617 439 OFFCURVE",
"624 448 CURVE",
"549 515 LINE",
"540 505 OFFCURVE",
"534 495 OFFCURVE",
"525 485 CURVE SMOOTH",
"172 94 OFFCURVE",
"-41 -193 OFFCURVE",
"351 -197 CURVE SMOOTH",
"676 -200 OFFCURVE",
"573 88 OFFCURVE"
);
}
);
width = 704;
},
{
layerId = "BBDB329E-CE83-4304-A6B1-53EA5ACC004E";
paths = (
{
closed = 1;
nodes = (
"694 -227 OFFCURVE",
"632 67 OFFCURVE",
"201 500 CURVE SMOOTH",
"187 514 OFFCURVE",
"184 520 OFFCURVE",
"157 553 CURVE",
"42 459 LINE",
"54 444 OFFCURVE",
"70 423 OFFCURVE",
"79 415 CURVE",
"376 131 OFFCURVE",
"483 -76 OFFCURVE",
"349 -73 CURVE SMOOTH",
"209 -69 OFFCURVE",
"310 117 OFFCURVE",
"625 407 CURVE",
"632 413 OFFCURVE",
"640 424 OFFCURVE",
"661 451 CURVE",
"549 552 LINE",
"524 532 OFFCURVE",
"517 516 OFFCURVE",
"505 503 CURVE SMOOTH",
"151 111 OFFCURVE",
"-94 -219 OFFCURVE",
"351 -224 CURVE SMOOTH"
);
}
);
width = 704;
}
);
unicode = 0263;
},
{
glyphname = glottalstop;
lastChange = "2019-09-05 19:28:17 +0000";
layers = (
{
hints = (
{
horizontal = 1;
place = "{621.49, 61.17}";
type = TTStem;
options = 4;
}
);
layerId = "BA196CD0-EE58-4274-B8DF-4393D3617A29";
paths = (
{
closed = 1;
nodes = (
"213 43 OFFCURVE",
"258 54 OFFCURVE",
"258 61 CURVE",
"258 91 OFFCURVE",
"259 285 OFFCURVE",
"259 325 CURVE SMOOTH",
"259 365 OFFCURVE",
"404 373 OFFCURVE",
"398 528 CURVE SMOOTH",
"395 600 OFFCURVE",
"367 660 OFFCURVE",
"284 679 CURVE SMOOTH",
"220 694 OFFCURVE",
"80 669 OFFCURVE",
"80 553 CURVE",
"116 553 OFFCURVE",
"129 553 OFFCURVE",
"162 553 CURVE",
"162 620 OFFCURVE",
"205 630 OFFCURVE",
"272 616 CURVE SMOOTH",
"317 607 OFFCURVE",
"337 570 OFFCURVE",
"337 517 CURVE SMOOTH",
"337 446 OFFCURVE",
"231 429 OFFCURVE",
"202 384 CURVE SMOOTH",
"176 343 OFFCURVE",
"173 329 OFFCURVE",
"173 272 CURVE SMOOTH",
"173 227 OFFCURVE",
"172 66 OFFCURVE",
"172 32 CURVE"
);
}
);
width = 478;
},
{
layerId = "BBDB329E-CE83-4304-A6B1-53EA5ACC004E";
paths = (
{
closed = 1;
nodes = (
"179 6 LINE",
"228 19 OFFCURVE",
"285 28 OFFCURVE",
"285 61 CURVE SMOOTH",
"285 91 OFFCURVE",
"286 285 OFFCURVE",
"286 325 CURVE SMOOTH",
"286 332 OFFCURVE",
"431 369 OFFCURVE",
"425 529 CURVE SMOOTH",
"421 625 OFFCURVE",
"375 686 OFFCURVE",
"290 705 CURVE SMOOTH",
"221 722 OFFCURVE",
"53 692 OFFCURVE",
"53 553 CURVE",
"80 526 LINE",
"126 526 OFFCURVE",
"134 526 OFFCURVE",
"191 526 CURVE",
"184 588 OFFCURVE",
"193 605 OFFCURVE",
"267 590 CURVE SMOOTH",
"295 584 OFFCURVE",
"310 561 OFFCURVE",
"310 517 CURVE SMOOTH",
"310 464 OFFCURVE",
"217 457 OFFCURVE",
"179 399 CURVE SMOOTH",
"151 354 OFFCURVE",
"146 334 OFFCURVE",
"146 272 CURVE SMOOTH",
"146 227 OFFCURVE",
"145 66 OFFCURVE",
"145 32 CURVE"
);
}
);
width = 478;
}
);
unicode = 0294;
},
{
glyphname = glottalstopsmall;
lastChange = "2019-09-05 19:28:17 +0000";
layers = (
{
hints = (
{
horizontal = 1;
place = "{636.07, 61.59}";
type = TTStem;
options = 4;
}
);
layerId = "BA196CD0-EE58-4274-B8DF-4393D3617A29";
paths = (
{
closed = 1;
nodes = (
"215 220 OFFCURVE",
"263 220 CURVE",
"266 258 OFFCURVE",
"259 300 OFFCURVE",
"259 340 CURVE SMOOTH",
"259 380 OFFCURVE",
"404 388 OFFCURVE",
"398 543 CURVE SMOOTH",
"395 615 OFFCURVE",
"367 675 OFFCURVE",
"284 694 CURVE SMOOTH",
"220 709 OFFCURVE",
"80 684 OFFCURVE",
"80 568 CURVE",
"116 568 OFFCURVE",
"129 568 OFFCURVE",
"162 568 CURVE",
"162 635 OFFCURVE",
"205 644 OFFCURVE",
"272 631 CURVE SMOOTH",
"317 622 OFFCURVE",
"337 585 OFFCURVE",
"337 532 CURVE SMOOTH",
"337 461 OFFCURVE",
"231 444 OFFCURVE",
"202 399 CURVE SMOOTH",
"176 358 OFFCURVE",
"166 277 OFFCURVE",
"166 220 CURVE",
"195 220 OFFCURVE"
);
}
);
width = 478;
},
{
layerId = "BBDB329E-CE83-4304-A6B1-53EA5ACC004E";
paths = (
{
closed = 1;
nodes = (
"255 193 OFFCURVE",
"265 193 OFFCURVE",
"347 193 CURVE",
"357 240 OFFCURVE",
"347 294 OFFCURVE",
"347 340 CURVE SMOOTH",
"347 347 OFFCURVE",
"492 384 OFFCURVE",
"486 544 CURVE SMOOTH",
"482 640 OFFCURVE",
"436 701 OFFCURVE",
"351 720 CURVE SMOOTH",
"282 737 OFFCURVE",
"114 707 OFFCURVE",
"114 568 CURVE",
"141 541 LINE",
"187 541 OFFCURVE",
"195 541 OFFCURVE",
"252 541 CURVE",
"246 603 OFFCURVE",
"253 619 OFFCURVE",
"328 605 CURVE SMOOTH",
"356 599 OFFCURVE",
"371 576 OFFCURVE",
"371 532 CURVE SMOOTH",
"371 479 OFFCURVE",
"278 472 OFFCURVE",
"240 414 CURVE SMOOTH",
"213 371 OFFCURVE",
"196 279 OFFCURVE",
"201 193 CURVE"
);
}
);
width = 600;
}
);
unicode = 0242;
},
{
color = 7;
glyphname = h;
lastChange = "2019-09-10 20:16:17 +0000";
layers = (
{
anchors = (
{
name = bottom;
position = "{338, 0}";
},
{
name = bottom_hook;
position = "{518, 0}";
},
{
name = center;
position = "{330, 293}";
},
{
name = top;
position = "{302, 547}";
},
{
name = top_hook;
position = "{176, 605}";
}
);
hints = (
{
horizontal = 1;
origin = "{0, 8}";
type = Anchor;
options = 4;
},
{
horizontal = 1;
origin = "{0, 12}";
target = "{0, 2}";
type = TTStem;
options = 4;
},
{
horizontal = 1;
origin = "{0, 7}";
type = Anchor;
options = 4;
}
);
layerId = "BA196CD0-EE58-4274-B8DF-4393D3617A29";
paths = (
{
closed = 1;
nodes = (
"563 522 OFFCURVE",
"469 542 OFFCURVE",
"384 548 CURVE SMOOTH",
"298 554 OFFCURVE",
"277 540 OFFCURVE",
"208 486 CURVE",
"228 800 LINE",
"138 800 LINE",
"80 0 LINE",
"228 0 LINE",
"174 365 OFFCURVE",
"245 446 OFFCURVE",
"364 446 CURVE SMOOTH",
"503 446 OFFCURVE",
"512 325 OFFCURVE",
"458 0 CURVE",
"596 0 LINE",
"575 330 LINE SMOOTH"
);
}
);
width = 676;
},
{
anchors = (
{
name = bottom;
position = "{338, 0}";
},
{
name = bottom_hook;
position = "{518, 0}";
},
{
name = center;
position = "{302, 273}";
},
{
name = top;
position = "{302, 547}";
},
{
name = top_hook;
position = "{181, 482}";
}
);
layerId = "BBDB329E-CE83-4304-A6B1-53EA5ACC004E";
paths = (
{
closed = 1;
nodes = (
"589 520 OFFCURVE",
"531 575 OFFCURVE",
"384 575 CURVE SMOOTH",
"323 575 OFFCURVE",
"285 565 OFFCURVE",
"239 530 CURVE",
"257 827 LINE",
"113 827 LINE",
"51 -1 LINE",
"259 -1 LINE",
"202 392 OFFCURVE",
"233 449 OFFCURVE",
"364 449 CURVE SMOOTH",
"492 449 OFFCURVE",
"506 389 OFFCURVE",
"425 -1 CURVE",
"625 -1 LINE",
"602 332 LINE SMOOTH"
);
}
);
width = 676;
}
);
unicode = 0068;
},
{
color = 7;
glyphname = i;
lastChange = "2019-09-10 20:18:08 +0000";
layers = (
{
anchors = (
{
name = bottom;
position = "{141, 0}";
},
{
name = center;
position = "{155, 285}";
}
);
hints = (
{
horizontal = 1;
origin = "{0, 7}";
type = Anchor;
options = 4;
},
{
horizontal = 1;
origin = "{0, 4}";
type = Anchor;
options = 4;
},
{
horizontal = 1;
origin = "{1, 3}";
target = "{1, 2}";
type = TTStem;
options = 4;
}
);
layerId = "BA196CD0-EE58-4274-B8DF-4393D3617A29";
paths = (
{
closed = 1;
nodes = (
"202 0 LINE",
"172 192 OFFCURVE",
"172 386 OFFCURVE",
"179 551 CURVE",
"99 551 LINE",
"99 330 OFFCURVE",
"93 192 OFFCURVE",
"80 0 CURVE"
);
},
{
closed = 1;
nodes = (
"184 646 LINE",
"169 760 LINE",
"109 760 LINE",
"94 646 LINE"
);
}
);
width = 282;
},
{
anchors = (
{
name = bottom;
position = "{141, 0}";
},
{
name = center;
position = "{155, 285}";
}
);
layerId = "BBDB329E-CE83-4304-A6B1-53EA5ACC004E";
paths = (
{
closed = 1;
nodes = (
"234 -1 LINE",
"197 215 OFFCURVE",
"199 360 OFFCURVE",
"207 545 CURVE",
"72 545 LINE",
"72 294 OFFCURVE",
"66 219 OFFCURVE",
"51 -1 CURVE"
);
},
{
closed = 1;
nodes = (
"212 619 LINE",
"205 787 LINE",
"73 787 LINE",
"66 619 LINE"
);
}
);
width = 282;
}
);
unicode = 0069;
},
{
glyphname = idotless;
lastChange = "2019-09-05 19:28:17 +0000";
layers = (
{
anchors = (
{
name = bottom;
position = "{141, 0}";
},
{
name = ogonek;
position = "{141, 0}";
},
{
name = top;
position = "{137, 566}";
}
);
hints = (
{
horizontal = 1;
origin = "{0, 7}";
type = Anchor;
options = 4;
},
{
horizontal = 1;
origin = "{0, 4}";
type = Anchor;
options = 4;
}
);
layerId = "BA196CD0-EE58-4274-B8DF-4393D3617A29";
paths = (
{
closed = 1;
nodes = (
"202 0 LINE",
"172 192 OFFCURVE",
"172 341 OFFCURVE",
"179 506 CURVE",
"99 506 LINE",
"99 285 OFFCURVE",
"93 192 OFFCURVE",
"80 0 CURVE"
);
}
);
width = 282;
},
{
anchors = (
{
name = bottom;
position = "{141, 0}";
},
{
name = ogonek;
position = "{141, 0}";
},
{
name = top;
position = "{137, 651}";
}
);
layerId = "BBDB329E-CE83-4304-A6B1-53EA5ACC004E";
paths = (
{
closed = 1;
nodes = (
"234 -27 LINE",
"197 189 OFFCURVE",
"199 348 OFFCURVE",
"207 533 CURVE",
"72 533 LINE",
"72 282 OFFCURVE",
"66 193 OFFCURVE",
"51 -27 CURVE"
);
}
);
width = 282;
}
);
unicode = 0131;
},
{
glyphname = "iota-latin";
lastChange = "2019-09-05 19:28:17 +0000";
layers = (
{
anchors = (
{
name = bottom;
position = "{127, 0}";
},
{
name = ogonek;
position = "{127, 0}";
},
{
name = top;
position = "{123, 517}";
}
);
hints = (
{
horizontal = 1;
origin = "{0, 7}";
type = Anchor;
options = 4;
}
);
layerId = "BA196CD0-EE58-4274-B8DF-4393D3617A29";
paths = (
{
closed = 1;
nodes = (
"254 67 LINE",
"218 67 OFFCURVE",
"212 56 OFFCURVE",
"164 79 CURVE",
"166 172 OFFCURVE",
"161 412 OFFCURVE",
"165 506 CURVE",
"85 506 LINE",
"85 389 OFFCURVE",
"102 263 OFFCURVE",
"80 44 CURVE",
"104 0 OFFCURVE",
"94 0 OFFCURVE",
"247 0 CURVE"
);
}
);
width = 334;
},
{
anchors = (
{
name = bottom;
position = "{101, 0}";
},
{
name = ogonek;
position = "{101, 0}";
},
{
name = top;
position = "{97, 517}";
}
);
layerId = "BBDB329E-CE83-4304-A6B1-53EA5ACC004E";
paths = (
{
closed = 1;
nodes = (
"258 94 LINE",
"166 96 OFFCURVE",
"182 87 OFFCURVE",
"165 96 CURVE",
"167 213 OFFCURVE",
"161 479 OFFCURVE",
"168 533 CURVE",
"32 533 LINE",
"29 406 OFFCURVE",
"51 280 OFFCURVE",
"27 47 CURVE",
"30 31 LINE",
"71 -43 OFFCURVE",
"108 -25 OFFCURVE",
"245 -27 CURVE"
);
}
);
width = 282;
}
);
unicode = 0269;
},
{
glyphname = jdotless;
lastChange = "2019-09-10 20:21:30 +0000";
layers = (
{
layerId = "BA196CD0-EE58-4274-B8DF-4393D3617A29";
paths = (
{
closed = 1;
nodes = (
"196 -129 OFFCURVE",
"102 -134 OFFCURVE",
"52 -125 CURVE",
"6 -219 LINE",
"91 -236 OFFCURVE",
"226 -216 OFFCURVE",
"259 -190 CURVE SMOOTH",
"294 -163 OFFCURVE",
"310 -121 OFFCURVE",
"316 -14 CURVE SMOOTH",
"346 557 LINE",
"251 557 LINE",
"240 155 OFFCURVE",
"240 21 OFFCURVE",
"223 -38 CURVE SMOOTH"
);
}
);
width = 416;
},
{
layerId = "BBDB329E-CE83-4304-A6B1-53EA5ACC004E";
paths = (
{
closed = 1;
nodes = (
"148 -107 OFFCURVE",
"164 -103 OFFCURVE",
"87 -74 CURVE",
"53 -248 LINE",
"186 -256 OFFCURVE",
"259 -251 OFFCURVE",
"289 -218 CURVE SMOOTH",
"316 -189 OFFCURVE",
"324 -149 OFFCURVE",
"333 -16 CURVE SMOOTH",
"370 547 LINE",
"230 547 LINE",
"218 124 OFFCURVE",
"217 -17 OFFCURVE",
"183 -62 CURVE SMOOTH"
);
}
);
width = 426;
}
);
unicode = 0237;
},
{
glyphname = jcrossedtail;
lastChange = "2019-09-05 19:28:17 +0000";
layers = (
{
anchors = (
{
name = _curl;
position = "{647, 459}";
},
{
name = bottom;
position = "{812, 0}";
},
{
name = top;
position = "{812, 540}";
}
);
components = (
{
name = jdotless;
transform = "{1, 0, 0, 1, 86, 4}";
}
);
hints = (
{
horizontal = 1;
origin = "{0, 24}";
target = "{0, 5}";
type = TTStem;
options = 4;
},
{
horizontal = 1;
origin = "{0, 8}";
target = "{0, 18}";
type = TTStem;
options = 4;
},
{
horizontal = 1;
origin = "{0, 14}";
target = "{0, 18}";
type = TTStem;
options = 4;
}
);
layerId = "BA196CD0-EE58-4274-B8DF-4393D3617A29";
paths = (
{
closed = 1;
nodes = (
"409 85 OFFCURVE",
"381 74 OFFCURVE",
"317 67 CURVE",
"317 -45 OFFCURVE",
"256 -114 OFFCURVE",
"217 -114 CURVE SMOOTH",
"146 -114 OFFCURVE",
"162 -9 OFFCURVE",
"262 -9 CURVE SMOOTH",
"319 -9 OFFCURVE",
"350 -14 OFFCURVE",
"402 -17 CURVE SMOOTH",
"467 -21 OFFCURVE",
"551 -25 OFFCURVE",
"614 -25 CURVE",
"614 85 LINE",
"493 85 OFFCURVE",
"374 85 OFFCURVE",
"238 85 CURVE SMOOTH",
"145 85 OFFCURVE",
"80 33 OFFCURVE",
"80 -42 CURVE SMOOTH",
"80 -243 OFFCURVE",
"123 -224 OFFCURVE",
"231 -224 CURVE SMOOTH",
"381 -224 OFFCURVE",
"388 -215 OFFCURVE",
"406 42 CURVE SMOOTH"
);
}
);
width = 694;
},
{
anchors = (
{
name = _curl;
position = "{715, 459}";
},
{
name = bottom;
position = "{880, 0}";
},
{
name = top;
position = "{880, 540}";
}
);
components = (
{
name = jdotless;
transform = "{1, 0, 0, 1, 154, 4}";
}
);
layerId = "BBDB329E-CE83-4304-A6B1-53EA5ACC004E";
paths = (
{
closed = 1;
nodes = (
"505 104 OFFCURVE",
"473 104 OFFCURVE",
"382 94 CURVE",
"358 67 LINE",
"358 -8 OFFCURVE",
"317 -87 OFFCURVE",
"285 -87 CURVE SMOOTH",
"255 -87 OFFCURVE",
"264 -36 OFFCURVE",
"330 -36 CURVE SMOOTH",
"385 -36 OFFCURVE",
"416 -41 OFFCURVE",
"468 -44 CURVE SMOOTH",
"543 -49 OFFCURVE",
"644 -53 OFFCURVE",
"709 -52 CURVE",
"709 112 LINE",
"578 112 OFFCURVE",
"453 112 OFFCURVE",
"306 112 CURVE SMOOTH",
"198 112 OFFCURVE",
"121 48 OFFCURVE",
"121 -42 CURVE SMOOTH",
"121 -284 OFFCURVE",
"197 -251 OFFCURVE",
"299 -251 CURVE SMOOTH",
"469 -251 OFFCURVE",
"482 -227 OFFCURVE",
"501 40 CURVE SMOOTH"
);
}
);
width = 829;
}
);
unicode = 029D;
},
{
color = 7;
glyphname = k;
lastChange = "2019-09-10 20:23:34 +0000";
layers = (
{
anchors = (
{
name = bottom;
position = "{269, 0}";
},
{
name = top;
position = "{330, 800}";
},
{
name = top_hook;
position = "{159, 378}";
}
);
hints = (
{
horizontal = 1;
origin = "{0, 10}";
type = Anchor;
options = 4;
},
{
horizontal = 1;
origin = "{0, 6}";
type = Anchor;
options = 4;
}
);
layerId = "BA196CD0-EE58-4274-B8DF-4393D3617A29";
paths = (
{
closed = 1;
nodes = (
"200 0 LINE",
"189 238 LINE",
"375 0 LINE",
"580 0 LINE",
"269 299 LINE",
"442 520 LINE",
"324 520 LINE",
"189 351 LINE",
"212 793 LINE",
"112 793 LINE",
"70 0 LINE"
);
}
);
width = 660;
},
{
anchors = (
{
name = bottom;
position = "{269, 0}";
},
{
name = top;
position = "{330, 800}";
},
{
name = top_hook;
position = "{159, 378}";
}
);
layerId = "BBDB329E-CE83-4304-A6B1-53EA5ACC004E";
paths = (
{
closed = 1;
nodes = (
"228 -1 LINE",
"221 167 LINE",
"361 -1 LINE",
"647 -1 LINE",
"306 301 LINE",
"488 526 LINE",
"322 526 LINE",
"217 408 LINE",
"241 820 LINE",
"96 820 LINE",
"52 -1 LINE"
);
}
);
width = 660;
}
);
unicode = 006B;
},
{
color = 7;
glyphname = l;
lastChange = "2019-09-10 20:24:37 +0000";
layers = (
{
anchors = (
{
name = bottom;
position = "{198, 0}";
},
{
name = center;
position = "{142, 400}";
},
{
name = dot;
position = "{226, 406}";
},
{
name = ezh;
position = "{145, 547}";
},
{
name = right;
position = "{274, 487}";
},
{
name = right_el;
position = "{370, 538}";
},
{
name = top;
position = "{156, 750}";
},
{
name = topright;
position = "{264, 641}";
}
);
hints = (
{
horizontal = 1;
origin = "{0, 9}";
target = "{0, 2}";
type = TTStem;
options = 4;
}
);
layerId = "BA196CD0-EE58-4274-B8DF-4393D3617A29";
paths = (
{
closed = 1;
nodes = (
"310 0 LINE",
"294 111 LINE",
"175 111 LINE",
"165 354 OFFCURVE",
"180 544 OFFCURVE",
"207 784 CURVE",
"122 784 LINE",
"81 506 OFFCURVE",
"68 111 OFFCURVE",
"80 0 CURVE"
);
}
);
width = 390;
},
{
anchors = (
{
name = bottom;
position = "{165, -38}";
},
{
name = center;
position = "{142, 400}";
},
{
name = dot;
position = "{226, 406}";
},
{
name = ezh;
position = "{145, 547}";
},
{
name = right;
position = "{274, 487}";
},
{
name = right_el;
position = "{370, 538}";
},
{
name = top;
position = "{156, 750}";
},
{
name = topright;
position = "{264, 641}";
}
);
layerId = "BBDB329E-CE83-4304-A6B1-53EA5ACC004E";
paths = (
{
closed = 1;
nodes = (
"341 0 LINE",
"317 138 LINE",
"202 138 LINE",
"204 241 OFFCURVE",
"211 600 OFFCURVE",
"237 801 CURVE",
"98 801 LINE",
"63 489 OFFCURVE",
"50 44 OFFCURVE",
"54 0 CURVE"
);
}
);
width = 390;
}
);
unicode = 006C;
},
{
glyphname = lbelt;
lastChange = "2019-09-05 19:28:17 +0000";
layers = (
{
anchors = (
{
name = _curl;
position = "{725, 459}";
},
{
name = bottom;
position = "{890, 0}";
},
{
name = top;
position = "{890, 540}";
}
);
components = (
{
name = l;
transform = "{1, 0, 0, 1, 198, 0}";
}
);
hints = (
{
horizontal = 1;
origin = "{0, 37}";
target = "{0, 3}";
type = TTStem;
options = 4;
},
{
horizontal = 1;
origin = "{0, 12}";
target = "{0, 28}";
type = TTStem;
options = 4;
}
);
layerId = "BA196CD0-EE58-4274-B8DF-4393D3617A29";
paths = (
{
closed = 1;
nodes = (
"592 398 LINE",
"522 398 OFFCURVE",
"462 401 OFFCURVE",
"351 401 CURVE SMOOTH",
"255 401 OFFCURVE",
"170 462 OFFCURVE",
"170 501 CURVE SMOOTH",
"170 510 OFFCURVE",
"173 518 OFFCURVE",
"181 524 CURVE SMOOTH",
"197 536 OFFCURVE",
"213 543 OFFCURVE",
"227 543 CURVE SMOOTH",
"254 543 OFFCURVE",
"291 517 OFFCURVE",
"291 456 CURVE SMOOTH",
"291 399 OFFCURVE",
"286 346 OFFCURVE",
"283 294 CURVE SMOOTH",
"279 229 OFFCURVE",
"275 167 OFFCURVE",
"275 104 CURVE",
"369 104 LINE",
"369 225 OFFCURVE",
"369 344 OFFCURVE",
"369 480 CURVE SMOOTH",
"369 573 OFFCURVE",
"317 638 OFFCURVE",
"242 638 CURVE SMOOTH",
"211 638 OFFCURVE",
"168 633 OFFCURVE",
"132 608 CURVE SMOOTH",
"82 573 OFFCURVE",
"67 524 OFFCURVE",
"92 456 CURVE SMOOTH",
"145 313 OFFCURVE",
"303 292 OFFCURVE",
"592 290 CURVE"
);
}
);
width = 672;
},
{
anchors = (
{
name = _curl;
position = "{725, 459}";
},
{
name = bottom;
position = "{890, 0}";
},
{
name = top;
position = "{890, 540}";
}
);
components = (
{
name = l;
transform = "{1, 0, 0, 1, 198, 0}";
}
);
layerId = "BBDB329E-CE83-4304-A6B1-53EA5ACC004E";
paths = (
{
closed = 1;
nodes = (
"619 425 LINE",
"537 424 OFFCURVE",
"476 428 OFFCURVE",
"351 428 CURVE SMOOTH",
"285 428 OFFCURVE",
"197 473 OFFCURVE",
"197 501 CURVE SMOOTH",
"197 506 OFFCURVE",
"195 501 OFFCURVE",
"197 502 CURVE",
"210 512 OFFCURVE",
"219 516 OFFCURVE",
"227 516 CURVE SMOOTH",
"247 516 OFFCURVE",
"264 492 OFFCURVE",
"264 456 CURVE SMOOTH",
"264 400 OFFCURVE",
"259 347 OFFCURVE",
"256 296 CURVE SMOOTH",
"251 222 OFFCURVE",
"247 150 OFFCURVE",
"248 77 CURVE",
"396 77 LINE",
"396 208 OFFCURVE",
"396 333 OFFCURVE",
"396 480 CURVE SMOOTH",
"396 588 OFFCURVE",
"332 665 OFFCURVE",
"242 665 CURVE SMOOTH",
"194 665 OFFCURVE",
"149 653 OFFCURVE",
"117 630 CURVE SMOOTH",
"55 587 OFFCURVE",
"38 524 OFFCURVE",
"67 447 CURVE SMOOTH",
"127 284 OFFCURVE",
"312 264 OFFCURVE",
"619 263 CURVE"
);
}
);
width = 672;
}
);
unicode = 026C;
},
{
glyphname = lezh;
lastChange = "2019-09-05 19:28:17 +0000";
layers = (
{
components = (
{
name = l;
},
{
name = ezh;
transform = "{1, 0, 0, 1, 93, -76}";
}
);
hints = (
{
horizontal = 1;
origin = "{0, 2}";
target = "{0, 3}";
type = TTStem;
options = 4;
}
);
layerId = "BA196CD0-EE58-4274-B8DF-4393D3617A29";
paths = (
{
closed = 1;
nodes = (
"294 111 LINE",
"310 0 LINE",
"260 0 LINE",
"180 111 LINE"
);
}
);
width = 779;
},
{
components = (
{
name = l;
},
{
name = ezh;
transform = "{1, 0, 0, 1, 93, -76}";
}
);
layerId = "BBDB329E-CE83-4304-A6B1-53EA5ACC004E";
paths = (
{
closed = 1;
nodes = (
"317 138 LINE",
"341 -27 LINE",
"230 -27 LINE",
"202 138 LINE"
);
}
);
width = 779;
}
);
unicode = 026E;
},
{
glyphname = lhookretroflex;
lastChange = "2019-09-02 15:01:06 +0000";
layers = (
{
anchors = (
{
name = bottom;
position = "{139, 0}";
},
{
name = center;
position = "{212, 400}";
},
{
name = dot;
position = "{243, 406}";
},
{
name = top;
position = "{165, 685}";
},
{
name = topright;
position = "{281, 641}";
}
);
layerId = "BA196CD0-EE58-4274-B8DF-4393D3617A29";
paths = (
{
closed = 1;
nodes = (
"362 0 LINE",
"362 -168 OFFCURVE",
"209 -163 OFFCURVE",
"210 -55 CURVE SMOOTH",
"211 150 OFFCURVE",
"207 637 OFFCURVE",
"224 784 CURVE",
"139 784 LINE",
"121 608 OFFCURVE",
"96 226 OFFCURVE",
"82 -55 CURVE SMOOTH",
"79 -122 OFFCURVE",
"73 -245 OFFCURVE",
"139 -245 CURVE SMOOTH",
"372 -245 OFFCURVE",
"464 -258 OFFCURVE",
"475 20 CURVE"
);
}
);
width = 555;
},
{
anchors = (
{
name = bottom;
position = "{139, 0}";
},
{
name = center;
position = "{212, 400}";
},
{
name = dot;
position = "{243, 406}";
},
{
name = top;
position = "{165, 685}";
},
{
name = topright;
position = "{281, 641}";
}
);
layerId = "BBDB329E-CE83-4304-A6B1-53EA5ACC004E";
paths = (
{
closed = 1;
nodes = (
"334 22 LINE",
"346 -130 OFFCURVE",
"236 -132 OFFCURVE",
"237 -55 CURVE SMOOTH",
"238 168 OFFCURVE",
"233 723 OFFCURVE",
"256 811 CURVE",
"115 811 LINE",
"97 648 OFFCURVE",
"70 241 OFFCURVE",
"55 -54 CURVE SMOOTH",
"49 -188 OFFCURVE",
"64 -272 OFFCURVE",
"139 -272 CURVE SMOOTH",
"378 -272 OFFCURVE",
"498 -290 OFFCURVE",
"503 52 CURVE"
);
}
);
width = 555;
}
);
unicode = 026D;
},
{
glyphname = lsdigraph;
lastChange = "2019-09-05 19:28:17 +0000";
layers = (
{
components = (
{
name = l;
},
{
name = s;
transform = "{1, 0, 0, 1, 229, 9}";
}
);
hints = (
{
horizontal = 1;
origin = "{0, 0}";
target = "{0, 3}";
type = TTStem;
options = 4;
}
);
layerId = "BA196CD0-EE58-4274-B8DF-4393D3617A29";
paths = (
{
closed = 1;
nodes = (
"128 0 LINE",
"575 0 LINE",
"575 112 LINE",
"128 112 LINE"
);
}
);
width = 858;
},
{
components = (
{
name = l;
},
{
name = s;
transform = "{1, 0, 0, 1, 229, 9}";
}
);
layerId = "BBDB329E-CE83-4304-A6B1-53EA5ACC004E";
paths = (
{
closed = 1;
nodes = (
"101 -27 LINE",
"602 -27 LINE",
"602 139 LINE",
"101 139 LINE"
);
}
);
width = 858;
}
);
unicode = 02AA;
},
{
glyphname = lzdigraph;
lastChange = "2019-09-05 19:28:17 +0000";
layers = (
{
components = (
{
name = l;
},
{
name = z;
transform = "{1, 0, 0, 1, 187, -1}";
}
);
hints = (
{
horizontal = 1;
origin = "{1, 0}";
target = "{1, 3}";
type = TTStem;
options = 4;
}
);
layerId = "BA196CD0-EE58-4274-B8DF-4393D3617A29";
paths = (
{
closed = 1;
nodes = (
"282 111 LINE",
"262 0 LINE",
"227 0 LINE",
"215 111 LINE"
);
},
{
closed = 1;
nodes = (
"139 482 LINE",
"370 482 LINE",
"370 549 LINE",
"139 549 LINE"
);
}
);
width = 858;
},
{
components = (
{
name = l;
},
{
name = z;
transform = "{1, 0, 0, 1, 187, -1}";
}
);
layerId = "BBDB329E-CE83-4304-A6B1-53EA5ACC004E";
paths = (
{
closed = 1;
nodes = (
"250 84 LINE",
"239 27 LINE",
"251 27 LINE",
"245 84 LINE"
);
},
{
closed = 1;
nodes = (
"112 455 LINE",
"397 455 LINE",
"397 576 LINE",
"112 576 LINE"
);
}
);
width = 858;
}
);
unicode = 02AB;
},
{
color = 7;
glyphname = m;
lastChange = "2019-09-10 20:27:36 +0000";
layers = (
{
anchors = (
{
name = bottom;
position = "{512, 0}";
},
{
name = center;
position = "{544, 279}";
},
{
name = eng;
position = "{882, 11}";
},
{
name = top;
position = "{574, 560}";
}
);
hints = (
{
horizontal = 1;
origin = "{0, 8}";
type = Anchor;
options = 4;
},
{
horizontal = 1;
origin = "{0, 22}";
target = "{0, 2}";
type = TTStem;
options = 4;
},
{
horizontal = 1;
origin = "{0, 13}";
target = "{0, 2}";
type = TTStem;
options = 4;
}
);
layerId = "BA196CD0-EE58-4274-B8DF-4393D3617A29";
paths = (
{
closed = 1;
nodes = (
"547 519 OFFCURVE",
"481 561 OFFCURVE",
"401 561 CURVE SMOOTH",
"331 561 OFFCURVE",
"266 529 OFFCURVE",
"225 462 CURVE",
"235 547 LINE",
"145 547 LINE",
"80 0 LINE",
"205 0 LINE",
"231 323 LINE SMOOTH",
"235 378 OFFCURVE",
"298 471 OFFCURVE",
"390 471 CURVE SMOOTH",
"467 471 OFFCURVE",
"524 405 OFFCURVE",
"504 317 CURVE SMOOTH",
"433 0 LINE",
"557 0 LINE",
"599 279 LINE SMOOTH",
"616 389 OFFCURVE",
"651 465 OFFCURVE",
"745 465 CURVE SMOOTH",
"821 465 OFFCURVE",
"854 416 OFFCURVE",
"843 312 CURVE SMOOTH",
"809 0 LINE",
"944 0 LINE",
"933 300 LINE SMOOTH",
"927 460 OFFCURVE",
"879 561 OFFCURVE",
"755 561 CURVE SMOOTH",
"678 561 OFFCURVE",
"619 522 OFFCURVE",
"574 442 CURVE"
);
}
);
width = 1024;
},
{
anchors = (
{
name = bottom;
position = "{512, 0}";
},
{
name = center;
position = "{544, 279}";
},
{
name = eng;
position = "{882, 11}";
},
{
name = top;
position = "{574, 560}";
}
);
layerId = "BBDB329E-CE83-4304-A6B1-53EA5ACC004E";
paths = (
{
closed = 1;
nodes = (
"540 554 OFFCURVE",
"477 586 OFFCURVE",
"401 587 CURVE SMOOTH",
"346 588 OFFCURVE",
"300 573 OFFCURVE",
"262 544 CURVE",
"265 574 LINE",
"121 574 LINE",
"50 -1 LINE",
"230 -1 LINE",
"258 338 LINE SMOOTH",
"267 445 OFFCURVE",
"316 487 OFFCURVE",
"390 464 CURVE SMOOTH",
"441 448 OFFCURVE",
"492 405 OFFCURVE",
"477 340 CURVE SMOOTH",
"400 -1 LINE",
"581 -1 LINE",
"626 303 LINE SMOOTH",
"644 422 OFFCURVE",
"676 478 OFFCURVE",
"745 468 CURVE SMOOTH",
"798 460 OFFCURVE",
"816 420 OFFCURVE",
"816 341 CURVE",
"779 -1 LINE",
"972 -1 LINE",
"960 331 LINE SMOOTH",
"955 469 OFFCURVE",
"863 573 OFFCURVE",
"755 587 CURVE SMOOTH",
"679 597 OFFCURVE",
"623 559 OFFCURVE",
"577 497 CURVE"
);
}
);
width = 1024;
}
);
unicode = 006D;
},
{
glyphname = mlonglegturned;
lastChange = "2019-09-05 19:28:17 +0000";
layers = (
{
components = (
{
name = mturned;
}
);
hints = (
{
horizontal = 1;
origin = "{0, 0}";
type = Anchor;
options = 4;
}
);
layerId = "BA196CD0-EE58-4274-B8DF-4393D3617A29";
paths = (
{
closed = 1;
nodes = (
"774 -200 LINE",
"883 -200 LINE",
"938 496 LINE",
"814 496 LINE"
);
}
);
width = 1024;
},
{
components = (
{
name = mturned;
transform = "{1, 0, 0, 1, 2, 0}";
}
);
layerId = "BBDB329E-CE83-4304-A6B1-53EA5ACC004E";
paths = (
{
closed = 1;
nodes = (
"747 -227 LINE",
"910 -227 LINE",
"969 523 LINE",
"791 523 LINE"
);
}
);
width = 1028;
}
);
unicode = 0270;
},
{
color = 7;
glyphname = n;
lastChange = "2019-09-10 20:29:46 +0000";
layers = (
{
anchors = (
{
name = bottom;
position = "{321, 0}";
},
{
name = center;
position = "{338, 269}";
},
{
name = eng;
position = "{525, 19}";
},
{
name = top;
position = "{315, 585}";
},
{
name = topright;
position = "{661, 726}";
}
);
hints = (
{
horizontal = 1;
origin = "{0, 8}";
type = Anchor;
options = 4;
},
{
horizontal = 1;
origin = "{0, 13}";
target = "{0, 2}";
type = TTStem;
options = 4;
}
);
layerId = "BA196CD0-EE58-4274-B8DF-4393D3617A29";
paths = (
{
closed = 1;
nodes = (
"557 467 OFFCURVE",
"489 557 OFFCURVE",
"364 557 CURVE SMOOTH",
"288 557 OFFCURVE",
"250 524 OFFCURVE",
"203 502 CURVE",
"186 546 LINE",
"120 546 LINE",
"80 0 LINE",
"228 0 LINE",
"214 304 LINE SMOOTH",
"210 394 OFFCURVE",
"244 472 OFFCURVE",
"354 472 CURVE SMOOTH",
"434 472 OFFCURVE",
"464 426 OFFCURVE",
"461 329 CURVE SMOOTH",
"450 0 LINE",
"589 0 LINE",
"567 323 LINE SMOOTH"
);
}
);
width = 669;
},
{
anchors = (
{
name = bottom;
position = "{321, 0}";
},
{
name = center;
position = "{338, 269}";
},
{
name = eng;
position = "{525, 19}";
},
{
name = top;
position = "{321, 653}";
},
{
name = topright;
position = "{661, 726}";
}
);
layerId = "BBDB329E-CE83-4304-A6B1-53EA5ACC004E";
paths = (
{
closed = 1;
nodes = (
"581 503 OFFCURVE",
"512 587 OFFCURVE",
"364 582 CURVE SMOOTH",
"299 580 OFFCURVE",
"255 561 OFFCURVE",
"219 538 CURVE",
"207 583 LINE",
"95 583 LINE",
"51 -1 LINE",
"247 -1 LINE",
"221 316 LINE SMOOTH",
"214 406 OFFCURVE",
"271 455 OFFCURVE",
"354 455 CURVE SMOOTH",
"427 455 OFFCURVE",
"462 417 OFFCURVE",
"454 341 CURVE SMOOTH",
"420 -1 LINE",
"618 -1 LINE",
"594 325 LINE SMOOTH"
);
}
);
width = 669;
}
);
unicode = 006E;
},
{
glyphname = nhookleft;
lastChange = "2019-09-05 19:28:17 +0000";
layers = (
{
components = (
{
name = n;
transform = "{1, 0, 0, 1, 82, 0}";
}
);
hints = (
{
horizontal = 1;
origin = "{0, 10}";
target = "{0, 9}";
type = TTStem;
options = 4;
}
);
layerId = "BA196CD0-EE58-4274-B8DF-4393D3617A29";
paths = (
{
closed = 1;
nodes = (
"181 -198 OFFCURVE",
"208 -198 OFFCURVE",
"247 -198 CURVE SMOOTH",
"294 -198 OFFCURVE",
"294 -145 OFFCURVE",
"294 0 CURVE",
"157 0 LINE",
"157 -79 OFFCURVE",
"156 -90 OFFCURVE",
"80 -90 CURVE",
"80 -198 LINE"
);
}
);
width = 751;
},
{
components = (
{
name = n;
transform = "{1, 0, 0, 1, 82, 0}";
}
);
layerId = "BBDB329E-CE83-4304-A6B1-53EA5ACC004E";
paths = (
{
closed = 1;
nodes = (
"177 -225 OFFCURVE",
"205 -225 OFFCURVE",
"247 -225 CURVE SMOOTH",
"321 -225 OFFCURVE",
"321 -157 OFFCURVE",
"321 27 CURVE",
"130 27 LINE",
"129 -92 OFFCURVE",
"137 -57 OFFCURVE",
"53 -64 CURVE",
"53 -225 LINE"
);
}
);
width = 751;
}
);
unicode = 0272;
},
{
glyphname = nhookretroflex;
lastChange = "2019-09-05 19:28:17 +0000";
layers = (
{
anchors = (
{
name = _bottom_hook;
position = "{967.809, 379.718}";
}
);
components = (
{
name = n;
}
);
hints = (
{
horizontal = 1;
origin = "{0, 7}";
target = "{0, 0}";
type = TTStem;
options = 4;
}
);
layerId = "BA196CD0-EE58-4274-B8DF-4393D3617A29";
paths = (
{
closed = 1;
nodes = (
"661 -87 LINE",
"585 -87 OFFCURVE",
"584 -76 OFFCURVE",
"584 3 CURVE",
"447 3 LINE",
"447 -142 OFFCURVE",
"447 -195 OFFCURVE",
"494 -195 CURVE SMOOTH",
"533 -195 OFFCURVE",
"560 -195 OFFCURVE",
"661 -195 CURVE"
);
}
);
width = 741;
},
{
anchors = (
{
name = _bottom_hook;
position = "{968, 380}";
}
);
components = (
{
name = n;
}
);
layerId = "BBDB329E-CE83-4304-A6B1-53EA5ACC004E";
paths = (
{
closed = 1;
nodes = (
"688 -61 LINE",
"604 -54 OFFCURVE",
"612 -89 OFFCURVE",
"611 30 CURVE",
"420 30 LINE",
"420 -154 OFFCURVE",
"420 -222 OFFCURVE",
"494 -222 CURVE SMOOTH",
"536 -222 OFFCURVE",
"564 -222 OFFCURVE",
"688 -222 CURVE"
);
}
);
width = 741;
}
);
unicode = 0273;
},
{
color = 7;
glyphname = o;
lastChange = "2019-09-10 20:33:29 +0000";
layers = (
{
anchors = (
{
name = _;
position = "{331, 555}";
},
{
name = bottom;
position = "{331, 0}";
},
{
name = center;
position = "{331, 250}";
},
{
name = dotbelow;
position = "{337, -35}";
},
{
name = horn;
position = "{549, 435}";
},
{
name = ogonek;
position = "{592, 10}";
},
{
name = top;
position = "{331, 599}";
},
{
name = topright;
position = "{637, 500}";
}
);
hints = (
{
horizontal = 1;
origin = "{0, 11}";
target = "{1, 11}";
type = TTStem;
options = 4;
},
{
horizontal = 1;
origin = "{1, 5}";
target = "{0, 5}";
type = TTStem;
options = 4;
}
);
layerId = "BA196CD0-EE58-4274-B8DF-4393D3617A29";
paths = (
{
closed = 1;
nodes = (
"493 -13 OFFCURVE",
"592 104 OFFCURVE",
"592 273 CURVE SMOOTH",
"592 449 OFFCURVE",
"493 560 OFFCURVE",
"331 560 CURVE SMOOTH",
"168 560 OFFCURVE",
"70 449 OFFCURVE",
"70 273 CURVE SMOOTH",
"70 104 OFFCURVE",
"168 -13 OFFCURVE",
"331 -13 CURVE SMOOTH"
);
},
{
closed = 1;
nodes = (
"211 136 OFFCURVE",
"169 159 OFFCURVE",
"169 290 CURVE SMOOTH",
"169 429 OFFCURVE",
"231 472 OFFCURVE",
"331 472 CURVE SMOOTH",
"431 472 OFFCURVE",
"493 429 OFFCURVE",
"493 290 CURVE SMOOTH",
"493 159 OFFCURVE",
"451 136 OFFCURVE",
"331 136 CURVE SMOOTH"
);
}
);
width = 662;
},
{
anchors = (
{
name = _;
position = "{311, 652}";
},
{
name = bottom;
position = "{331, 17}";
},
{
name = center;
position = "{331, 284}";
},
{
name = dotbelow;
position = "{331, -59}";
},
{
name = horn;
position = "{549, 435}";
},
{
name = ogonek;
position = "{592, 10}";
},
{
name = top;
position = "{311, 669}";
},
{
name = topright;
position = "{637, 500}";
}
);
layerId = "BBDB329E-CE83-4304-A6B1-53EA5ACC004E";
paths = (
{
closed = 1;
nodes = (
"503 -41 OFFCURVE",
"609 80 OFFCURVE",
"609 273 CURVE SMOOTH",
"609 458 OFFCURVE",
"501 576 OFFCURVE",
"331 576 CURVE SMOOTH",
"161 576 OFFCURVE",
"53 458 OFFCURVE",
"53 273 CURVE SMOOTH",
"53 79 OFFCURVE",
"159 -41 OFFCURVE",
"331 -41 CURVE SMOOTH"
);
},
{
closed = 1;
nodes = (
"247 158 OFFCURVE",
"202 185 OFFCURVE",
"202 289 CURVE SMOOTH",
"202 392 OFFCURVE",
"252 456 OFFCURVE",
"331 456 CURVE SMOOTH",
"409 456 OFFCURVE",
"460 392 OFFCURVE",
"460 289 CURVE SMOOTH",
"460 185 OFFCURVE",
"415 158 OFFCURVE",
"331 158 CURVE SMOOTH"
);
}
);
width = 662;
}
);
leftKerningGroup = Round;
rightKerningGroup = RoundRight;
unicode = 006F;
},
{
color = 7;
glyphname = p;
lastChange = "2019-09-10 20:40:17 +0000";
layers = (
{
anchors = (
{
name = bottom;
position = "{366, 0}";
},
{
name = center;
position = "{162, -97}";
},
{
name = top;
position = "{366, 500}";
},
{
name = top_hook;
position = "{188, 202}";
}
);
hints = (
{
place = "{141, 115}";
type = Stem;
},
{
horizontal = 1;
place = "{497, 63}";
type = Stem;
},
{
horizontal = 1;
place = "{-3, 140}";
type = Stem;
},
{
place = "{562, 63}";
type = Stem;
},
{
horizontal = 1;
origin = "{0, 15}";
type = Anchor;
options = 4;
},
{
horizontal = 1;
origin = "{0, 2}";
target = "{1, 2}";
type = TTStem;
options = 4;
},
{
horizontal = 1;
origin = "{1, 8}";
target = "{0, 8}";
type = TTStem;
options = 4;
}
);
layerId = "BA196CD0-EE58-4274-B8DF-4393D3617A29";
paths = (
{
closed = 1;
nodes = (
"279 17 OFFCURVE",
"347 -15 OFFCURVE",
"427 -15 CURVE SMOOTH",
"585 -15 OFFCURVE",
"651 126 OFFCURVE",
"651 283 CURVE SMOOTH",
"651 448 OFFCURVE",
"560 549 OFFCURVE",
"427 553 CURVE SMOOTH",
"347 555 OFFCURVE",
"289 522 OFFCURVE",
"252 457 CURVE",
"234 532 LINE",
"144 532 LINE",
"160 237 LINE",
"80 -212 LINE",
"209 -204 LINE",
"252 82 LINE"
);
},
{
closed = 1;
nodes = (
"567 196 OFFCURVE",
"540 134 OFFCURVE",
"445 134 CURVE SMOOTH",
"350 134 OFFCURVE",
"278 196 OFFCURVE",
"278 302 CURVE SMOOTH",
"278 408 OFFCURVE",
"357 473 OFFCURVE",
"440 473 CURVE SMOOTH",
"523 473 OFFCURVE",
"559 408 OFFCURVE",
"563 302 CURVE SMOOTH"
);
}
);
width = 731;
},
{
anchors = (
{
name = bottom;
position = "{366, 0}";
},
{
name = center;
position = "{140, -150}";
},
{
name = top;
position = "{383, 587}";
},
{
name = top_hook;
position = "{188, 202}";
}
);
hints = (
{
place = "{141, 115}";
type = Stem;
},
{
horizontal = 1;
place = "{497, 63}";
type = Stem;
},
{
horizontal = 1;
place = "{-3, 140}";
type = Stem;
},
{
place = "{562, 63}";
type = Stem;
}
);
layerId = "BBDB329E-CE83-4304-A6B1-53EA5ACC004E";
paths = (
{
closed = 1;
nodes = (
"309 -12 OFFCURVE",
"362 -31 OFFCURVE",
"427 -31 CURVE SMOOTH",
"586 -31 OFFCURVE",
"678 87 OFFCURVE",
"678 273 CURVE SMOOTH",
"678 453 OFFCURVE",
"575 576 OFFCURVE",
"427 580 CURVE SMOOTH",
"360 582 OFFCURVE",
"305 559 OFFCURVE",
"265 519 CURVE",
"255 559 LINE",
"115 559 LINE",
"133 239 LINE",
"47 -241 LINE",
"232 -230 LINE",
"269 16 LINE"
);
},
{
closed = 1;
nodes = (
"566 189 OFFCURVE",
"541 161 OFFCURVE",
"445 161 CURVE SMOOTH",
"345 161 OFFCURVE",
"315 189 OFFCURVE",
"315 289 CURVE SMOOTH",
"315 411 OFFCURVE",
"362 466 OFFCURVE",
"440 466 CURVE SMOOTH",
"519 466 OFFCURVE",
"566 411 OFFCURVE",
"566 289 CURVE SMOOTH"
);
}
);
width = 731;
}
);
rightKerningGroup = RoundRight;
unicode = 0070;
},
{
glyphname = thorn;
lastChange = "2019-09-05 19:28:17 +0000";
layers = (
{
hints = (
{
horizontal = 1;
place = "{51, 86}";
type = TTStem;
options = 4;
},
{
horizontal = 1;
origin = "{2, 5}";
target = "{1, 5}";
type = TTStem;
options = 4;
},
{
horizontal = 1;
origin = "{0, 3}";
type = Anchor;
options = 4;
}
);
layerId = "BA196CD0-EE58-4274-B8DF-4393D3617A29";
paths = (
{
closed = 1;
nodes = (
"96 -180 LINE",
"184 -180 LINE",
"168 800 LINE",
"80 800 LINE"
);
},
{
closed = 1;
nodes = (
"296 50 OFFCURVE",
"476 151 OFFCURVE",
"480 371 CURVE SMOOTH",
"483 535 OFFCURVE",
"300 636 OFFCURVE",
"156 636 CURVE",
"92 498 OFFCURVE",
"85 188 OFFCURVE",
"151 50 CURVE"
);
},
{
closed = 1;
nodes = (
"150 137 OFFCURVE",
"104 235 OFFCURVE",
"107 375 CURVE SMOOTH",
"109 460 OFFCURVE",
"150 559 OFFCURVE",
"203 559 CURVE SMOOTH",
"255 559 OFFCURVE",
"411 460 OFFCURVE",
"409 375 CURVE SMOOTH",
"406 235 OFFCURVE",
"255 137 OFFCURVE",
"203 137 CURVE SMOOTH"
);
}
);
width = 560;
},
{
layerId = "BBDB329E-CE83-4304-A6B1-53EA5ACC004E";
paths = (
{
closed = 1;
nodes = (
"69 -207 LINE",
"211 -207 LINE",
"195 827 LINE",
"53 827 LINE"
);
},
{
closed = 1;
nodes = (
"151 23 LINE",
"350 23 OFFCURVE",
"503 171 OFFCURVE",
"507 371 CURVE SMOOTH",
"510 528 OFFCURVE",
"345 663 OFFCURVE",
"156 663 CURVE",
"132 647 LINE",
"62 497 OFFCURVE",
"59 179 OFFCURVE",
"127 38 CURVE"
);
},
{
closed = 1;
nodes = (
"167 164 OFFCURVE",
"132 261 OFFCURVE",
"134 374 CURVE SMOOTH",
"136 453 OFFCURVE",
"173 532 OFFCURVE",
"203 532 CURVE SMOOTH",
"262 532 OFFCURVE",
"383 427 OFFCURVE",
"382 376 CURVE SMOOTH",
"379 250 OFFCURVE",
"247 164 OFFCURVE",
"203 164 CURVE SMOOTH"
);
}
);
width = 560;
}
);
unicode = 00FE;
},
{
color = 7;
glyphname = q;
lastChange = "2019-09-10 20:42:59 +0000";
layers = (
{
associatedMasterId = "BA196CD0-EE58-4274-B8DF-4393D3617A29";
layerId = "550EFC85-22CC-4D43-B167-1DAEAAA2FB65";
name = "Regular May 31 12, 16:28";
paths = (
{
closed = 1;
nodes = (
"157 153 OFFCURVE",
"212 136 OFFCURVE",
"308 136 CURVE SMOOTH",
"403 136 OFFCURVE",
"463 153 OFFCURVE",
"463 286 CURVE SMOOTH",
"463 418 OFFCURVE",
"405 498 OFFCURVE",
"310 498 CURVE SMOOTH",
"215 498 OFFCURVE",
"157 418 OFFCURVE",
"157 286 CURVE SMOOTH"
);
},
{
closed = 1;
nodes = (
"497 82 LINE",
"459 17 OFFCURVE",
"402 -14 OFFCURVE",
"321 -14 CURVE SMOOTH",
"189 -14 OFFCURVE",
"98 101 OFFCURVE",
"98 273 CURVE SMOOTH",
"98 445 OFFCURVE",
"189 560 OFFCURVE",
"321 560 CURVE SMOOTH",
"402 560 OFFCURVE",
"459 529 OFFCURVE",
"497 464 CURVE",
"511 547 LINE",
"598 547 LINE",
"561 -118 LINE SMOOTH",
"557 -208 LINE",
"474 -208 LINE"
);
}
);
width = 718;
},
{
anchors = (
{
name = bottom;
position = "{385, 0}";
},
{
name = bottom_hook;
position = "{555, -127}";
},
{
name = top;
position = "{385, 500}";
},
{
name = top_hook;
position = "{530, 218}";
}
);
hints = (
{
horizontal = 1;
origin = "{0, 20}";
type = Anchor;
options = 4;
},
{
horizontal = 1;
origin = "{0, 16}";
target = "{1, 11}";
type = TTStem;
options = 4;
},
{
horizontal = 1;
origin = "{1, 5}";
target = "{0, 10}";
type = TTStem;
options = 4;
}
);
layerId = "BA196CD0-EE58-4274-B8DF-4393D3617A29";
paths = (
{
closed = 1;
nodes = (
"684 -140 LINE",
"710 -20 LINE",
"624 -50 LINE",
"554 -70 LINE",
"566 186 LINE",
"601 547 LINE",
"494 547 LINE",
"494 447 LINE",
"440 532 OFFCURVE",
"397 570 OFFCURVE",
"301 557 CURVE SMOOTH",
"169 539 OFFCURVE",
"69 446 OFFCURVE",
"69 274 CURVE SMOOTH",
"69 102 OFFCURVE",
"172 -7 OFFCURVE",
"304 -14 CURVE SMOOTH",
"384 -18 OFFCURVE",
"441 17 OFFCURVE",
"479 82 CURVE",
"452 -208 LINE"
);
},
{
closed = 1;
nodes = (
"195 127 OFFCURVE",
"148 173 OFFCURVE",
"160 286 CURVE SMOOTH",
"172 398 OFFCURVE",
"224 482 OFFCURVE",
"320 482 CURVE SMOOTH",
"415 482 OFFCURVE",
"458 398 OFFCURVE",
"446 286 CURVE SMOOTH",
"434 173 OFFCURVE",
"385 127 OFFCURVE",
"290 127 CURVE"
);
}
);
width = 770;
},
{
associatedMasterId = "BBDB329E-CE83-4304-A6B1-53EA5ACC004E";
layerId = "5892CAD6-04FA-4732-8FAB-EB7591270E8A";
name = "Regular May 31 12, 16:28";
paths = (
{
closed = 1;
nodes = (
"157 153 OFFCURVE",
"212 136 OFFCURVE",
"308 136 CURVE SMOOTH",
"403 136 OFFCURVE",
"463 153 OFFCURVE",
"463 286 CURVE SMOOTH",
"463 418 OFFCURVE",
"405 498 OFFCURVE",
"310 498 CURVE SMOOTH",
"215 498 OFFCURVE",
"157 418 OFFCURVE",
"157 286 CURVE SMOOTH"
);
},
{
closed = 1;
nodes = (
"497 82 LINE",
"459 17 OFFCURVE",
"402 -14 OFFCURVE",
"321 -14 CURVE SMOOTH",
"189 -14 OFFCURVE",
"98 101 OFFCURVE",
"98 273 CURVE SMOOTH",
"98 445 OFFCURVE",
"189 560 OFFCURVE",
"321 560 CURVE SMOOTH",
"402 560 OFFCURVE",
"459 529 OFFCURVE",
"497 464 CURVE",
"511 547 LINE",
"598 547 LINE",
"561 -118 LINE SMOOTH",
"557 -208 LINE",
"474 -208 LINE"
);
}
);
width = 718;
},
{
anchors = (
{
name = bottom;
position = "{385, 0}";
},
{
name = bottom_hook;
position = "{555, -127}";
},
{
name = top;
position = "{385, 500}";
},
{
name = top_hook;
position = "{530, 218}";
}
);
layerId = "BBDB329E-CE83-4304-A6B1-53EA5ACC004E";
paths = (
{
closed = 1;
nodes = (
"710 -161 LINE",
"719 19 LINE",
"596 -24 LINE",
"563 -34 LINE",
"573 184 LINE",
"611 574 LINE",
"467 574 LINE",
"467 509 LINE",
"420 562 OFFCURVE",
"372 584 OFFCURVE",
"301 581 CURVE SMOOTH",
"152 575 OFFCURVE",
"53 457 OFFCURVE",
"53 273 CURVE SMOOTH",
"53 88 OFFCURVE",
"155 -31 OFFCURVE",
"304 -31 CURVE SMOOTH",
"360 -31 OFFCURVE",
"407 -17 OFFCURVE",
"444 2 CURVE",
"421 -245 LINE"
);
},
{
closed = 1;
nodes = (
"191 164 OFFCURVE",
"167 188 OFFCURVE",
"167 286 CURVE SMOOTH",
"167 400 OFFCURVE",
"210 465 OFFCURVE",
"290 465 CURVE SMOOTH",
"371 465 OFFCURVE",
"419 400 OFFCURVE",
"419 286 CURVE SMOOTH",
"419 188 OFFCURVE",
"392 164 OFFCURVE",
"290 164 CURVE SMOOTH"
);
}
);
width = 770;
}
);
leftKerningGroup = Round;
unicode = 0071;
},
{
glyphname = qhooktail;
lastChange = "2019-09-05 19:28:17 +0000";
layers = (
{
components = (
{
name = q;
},
{
name = od_bottom_wide_hook;
transform = "{0.84741, 0.53094, -0.53094, 0.84741, 589, -516}";
}
);
hints = (
{
horizontal = 1;
origin = "{0, 4}";
target = "{0, 6}";
type = TTStem;
options = 4;
}
);
layerId = "BA196CD0-EE58-4274-B8DF-4393D3617A29";
paths = (
{
closed = 1;
nodes = (
"534 -70 LINE",
"604 -50 LINE",
"690 -20 LINE",
"684 -140 LINE",
"452 -208 LINE",
"468 -39 LINE",
"534 -20 LINE"
);
}
);
width = 874;
},
{
components = (
{
name = q;
transform = "{1, 0, 0, 1, -52, 0}";
},
{
name = od_bottom_wide_hook;
transform = "{0.85655, 0.51607, -0.51607, 0.85655, 520, -440}";
}
);
layerId = "BBDB329E-CE83-4304-A6B1-53EA5ACC004E";
paths = (
{
closed = 1;
nodes = (
"455 -106 LINE",
"560 -76 LINE",
"609 -59 LINE",
"606 -119 LINE",
"431 -171 LINE",
"441 -60 LINE",
"455 -56 LINE"
);
}
);
width = 770;
}
);
unicode = 024B;
},
{
color = 7;
glyphname = r;
lastChange = "2019-09-09 23:45:35 +0000";
layers = (
{
anchors = (
{
name = bottom;
position = "{172, 0}";
},
{
name = bottom_wide;
position = "{203, 0}";
},
{
name = center;
position = "{165, 274}";
},
{
name = top;
position = "{221, 547}";
}
);
hints = (
{
horizontal = 1;
origin = "{0, 7}";
type = Anchor;
options = 4;
}
);
layerId = "BA196CD0-EE58-4274-B8DF-4393D3617A29";
paths = (
{
closed = 1;
nodes = (
"302 543 OFFCURVE",
"274 528 OFFCURVE",
"219 486 CURVE",
"219 545 LINE",
"126 545 LINE",
"126 317 OFFCURVE",
"121 195 OFFCURVE",
"80 -1 CURVE",
"261 -1 LINE",
"232 163 OFFCURVE",
"238 228 OFFCURVE",
"238 286 CURVE SMOOTH",
"238 383 OFFCURVE",
"256 460 OFFCURVE",
"433 423 CURVE",
"418 549 LINE"
);
}
);
width = 512;
},
{
anchors = (
{
name = bottom;
position = "{172, -41}";
},
{
name = bottom_wide;
position = "{203, 0}";
},
{
name = center;
position = "{165, 274}";
},
{
name = top;
position = "{221, 585}";
}
);
layerId = "BBDB329E-CE83-4304-A6B1-53EA5ACC004E";
paths = (
{
closed = 1;
nodes = (
"341 573 OFFCURVE",
"295 566 OFFCURVE",
"246 537 CURVE",
"246 568 LINE",
"99 573 LINE",
"99 314 OFFCURVE",
"95 221 OFFCURVE",
"47 -1 CURVE",
"283 -1 LINE",
"249 181 OFFCURVE",
"248 193 OFFCURVE",
"246 254 CURVE SMOOTH",
"242 388 OFFCURVE",
"247 460 OFFCURVE",
"463 425 CURVE",
"441 577 LINE"
);
}
);
width = 512;
}
);
unicode = 0072;
},
{
glyphname = ramshorn;
lastChange = "2019-09-05 19:28:17 +0000";
layers = (
{
anchors = (
{
name = _curl;
position = "{209, 459}";
},
{
name = bottom;
position = "{374, 0}";
},
{
name = top;
position = "{374, 540}";
}
);
hints = (
{
horizontal = 1;
origin = "{0, 11}";
target = "{0, 33}";
type = TTStem;
options = 4;
},
{
horizontal = 1;
origin = "{0, 2}";
target = "{0, 39}";
type = TTStem;
options = 4;
},
{
horizontal = 1;
origin = "{0, 20}";
target = "{0, 27}";
type = TTStem;
options = 4;
}
);
layerId = "BA196CD0-EE58-4274-B8DF-4393D3617A29";
paths = (
{
closed = 1;
nodes = (
"616 397 OFFCURVE",
"611 515 OFFCURVE",
"489 513 CURVE SMOOTH",
"362 511 OFFCURVE",
"343 427 OFFCURVE",
"288 295 CURVE SMOOTH",
"239 178 OFFCURVE",
"194 96 OFFCURVE",
"224 51 CURVE SMOOTH",
"258 0 OFFCURVE",
"282 -8 OFFCURVE",
"342 -8 CURVE SMOOTH",
"385 -8 OFFCURVE",
"437 1 OFFCURVE",
"472 51 CURVE SMOOTH",
"507 102 OFFCURVE",
"468 172 OFFCURVE",
"421 268 CURVE SMOOTH",
"361 391 OFFCURVE",
"310 511 OFFCURVE",
"223 511 CURVE SMOOTH",
"80 511 OFFCURVE",
"80 422 OFFCURVE",
"80 339 CURVE",
"142 339 LINE",
"142 422 OFFCURVE",
"150 448 OFFCURVE",
"226 448 CURVE SMOOTH",
"286 448 OFFCURVE",
"315 345 OFFCURVE",
"351 224 CURVE SMOOTH",
"383 117 OFFCURVE",
"406 57 OFFCURVE",
"342 57 CURVE SMOOTH",
"290 57 OFFCURVE",
"306 115 OFFCURVE",
"351 224 CURVE SMOOTH",
"405 354 OFFCURVE",
"430 453 OFFCURVE",
"489 453 CURVE SMOOTH",
"532 453 OFFCURVE",
"547 397 OFFCURVE",
"551 339 CURVE",
"616 339 LINE"
);
}
);
width = 696;
},
{
anchors = (
{
name = _curl;
position = "{209, 459}";
},
{
name = bottom;
position = "{374, 0}";
},
{
name = top;
position = "{374, 540}";
}
);
layerId = "BBDB329E-CE83-4304-A6B1-53EA5ACC004E";
paths = (
{
closed = 1;
nodes = (
"643 398 OFFCURVE",
"637 542 OFFCURVE",
"489 540 CURVE SMOOTH",
"340 538 OFFCURVE",
"317 435 OFFCURVE",
"263 305 CURVE SMOOTH",
"215 190 OFFCURVE",
"162 95 OFFCURVE",
"202 36 CURVE SMOOTH",
"239 -20 OFFCURVE",
"269 -35 OFFCURVE",
"342 -35 CURVE SMOOTH",
"410 -35 OFFCURVE",
"461 -12 OFFCURVE",
"494 36 CURVE SMOOTH",
"539 101 OFFCURVE",
"492 185 OFFCURVE",
"445 280 CURVE SMOOTH",
"386 402 OFFCURVE",
"328 538 OFFCURVE",
"223 538 CURVE SMOOTH",
"34 538 OFFCURVE",
"55 394 OFFCURVE",
"53 312 CURVE",
"169 312 LINE",
"169 414 OFFCURVE",
"167 421 OFFCURVE",
"226 421 CURVE SMOOTH",
"254 421 OFFCURVE",
"277 379 OFFCURVE",
"325 216 CURVE SMOOTH",
"363 89 OFFCURVE",
"364 84 OFFCURVE",
"342 84 CURVE SMOOTH",
"329 84 OFFCURVE",
"332 108 OFFCURVE",
"376 214 CURVE SMOOTH",
"430 343 OFFCURVE",
"453 426 OFFCURVE",
"489 426 CURVE SMOOTH",
"508 426 OFFCURVE",
"524 388 OFFCURVE",
"525 312 CURVE",
"643 312 LINE"
);
}
);
width = 696;
}
);
unicode = 0264;
},
{
glyphname = rfishhook;
lastChange = "2019-09-05 19:28:17 +0000";
layers = (
{
anchors = (
{
name = _top_hook;
position = "{121, 66}";
},
{
name = center;
position = "{125, 299}";
}
);
hints = (
{
horizontal = 1;
origin = "{1, 12}";
target = "{1, 13}";
type = TTStem;
options = 4;
}
);
layerId = "BA196CD0-EE58-4274-B8DF-4393D3617A29";
paths = (
{
closed = 1;
nodes = (
"80 4 LINE",
"165 4 LINE",
"165 399 LINE",
"80 399 LINE"
);
},
{
closed = 1;
nodes = (
"110 567 OFFCURVE",
"86 561 OFFCURVE",
"82 449 CURVE SMOOTH",
"80 399 OFFCURVE",
"80 415 OFFCURVE",
"80 345 CURVE",
"165 345 LINE",
"165 376 OFFCURVE",
"165 401 OFFCURVE",
"165 430 CURVE SMOOTH",
"165 478 OFFCURVE",
"168 481 OFFCURVE",
"236 481 CURVE",
"236 566 LINE"
);
}
);
width = 316;
},
{
anchors = (
{
name = _top_hook;
position = "{121, 66}";
},
{
name = center;
position = "{125, 299}";
}
);
layerId = "BBDB329E-CE83-4304-A6B1-53EA5ACC004E";
paths = (
{
closed = 1;
nodes = (
"53 -23 LINE",
"192 -23 LINE",
"192 426 LINE",
"53 426 LINE"
);
},
{
closed = 1;
nodes = (
"92 596 OFFCURVE",
"60 580 OFFCURVE",
"55 450 CURVE SMOOTH",
"53 395 OFFCURVE",
"53 420 OFFCURVE",
"53 318 CURVE",
"192 318 LINE",
"192 365 OFFCURVE",
"192 393 OFFCURVE",
"192 430 CURVE SMOOTH",
"192 466 OFFCURVE",
"180 451 OFFCURVE",
"263 455 CURVE",
"263 593 LINE"
);
}
);
width = 316;
}
);
unicode = 027E;
},
{
glyphname = rlonglegturned;
lastChange = "2019-09-02 15:01:09 +0000";
layers = (
{
components = (
{
name = rturned;
}
);
layerId = "BA196CD0-EE58-4274-B8DF-4393D3617A29";
paths = (
{
closed = 1;
nodes = (
"256 500 LINE",
"424 500 LINE",
"449 800 LINE",
"224 800 LINE"
);
}
);
width = 529;
},
{
components = (
{
name = rturned;
transform = "{1, 0, 0, 1, 5, 0}";
}
);
layerId = "BBDB329E-CE83-4304-A6B1-53EA5ACC004E";
paths = (
{
closed = 1;
nodes = (
"237 473 LINE",
"454 473 LINE",
"483 827 LINE",
"199 827 LINE"
);
}
);
width = 539;
}
);
unicode = 027A;
},
{
color = 7;
glyphname = s;
lastChange = "2019-09-10 23:58:45 +0000";
layers = (
{
anchors = (
{
name = _right_el;
position = "{141, 529}";
},
{
name = bottom;
position = "{319, 12}";
},
{
name = bottom_hook;
position = "{130, -98}";
},
{
name = center;
position = "{314, 269}";
},
{
name = top;
position = "{328, 547}";
}
);
hints = (
{
horizontal = 1;
origin = "{0, 21}";
target = "{0, 14}";
type = TTStem;
options = 4;
},
{
horizontal = 1;
origin = "{0, 33}";
target = "{0, 2}";
type = TTStem;
options = 4;
}
);
layerId = "BA196CD0-EE58-4274-B8DF-4393D3617A29";
paths = (
{
closed = 1;
nodes = (
"459 560 OFFCURVE",
"399 573 OFFCURVE",
"332 573 CURVE SMOOTH",
"159 573 OFFCURVE",
"124 484 OFFCURVE",
"124 411 CURVE SMOOTH",
"124 280 OFFCURVE",
"246 250 OFFCURVE",
"291 243 CURVE",
"361 229 OFFCURVE",
"422 209 OFFCURVE",
"422 177 CURVE SMOOTH",
"422 120 OFFCURVE",
"356 124 OFFCURVE",
"321 127 CURVE SMOOTH",
"260 132 OFFCURVE",
"236 138 OFFCURVE",
"178 160 CURVE",
"80 49 LINE",
"124 16 OFFCURVE",
"136 -14 OFFCURVE",
"319 -14 CURVE SMOOTH",
"470 -14 OFFCURVE",
"547 17 OFFCURVE",
"547 155 CURVE SMOOTH",
"547 233 OFFCURVE",
"518 275 OFFCURVE",
"353 326 CURVE SMOOTH",
"266 353 OFFCURVE",
"200 383 OFFCURVE",
"199 415 CURVE SMOOTH",
"198 460 OFFCURVE",
"214 497 OFFCURVE",
"343 497 CURVE SMOOTH",
"378 495 OFFCURVE",
"401 497 OFFCURVE",
"463 489 CURVE",
"509 549 LINE"
);
}
);
width = 629;
},
{
anchors = (
{
name = _right_el;
position = "{141, 529}";
},
{
name = bottom;
position = "{319, -53}";
},
{
name = bottom_hook;
position = "{130, -98}";
},
{
name = center;
position = "{322, 275}";
},
{
name = top;
position = "{332, 601}";
}
);
layerId = "BBDB329E-CE83-4304-A6B1-53EA5ACC004E";
paths = (
{
closed = 1;
nodes = (
"469 570 OFFCURVE",
"385 579 OFFCURVE",
"332 580 CURVE SMOOTH",
"153 583 OFFCURVE",
"113 511 OFFCURVE",
"113 443 CURVE SMOOTH",
"113 348 OFFCURVE",
"190 285 OFFCURVE",
"282 259 CURVE SMOOTH",
"355 238 OFFCURVE",
"434 241 OFFCURVE",
"415 177 CURVE SMOOTH",
"399 124 OFFCURVE",
"348 135 OFFCURVE",
"311 139 CURVE SMOOTH",
"238 146 OFFCURVE",
"201 171 OFFCURVE",
"170 199 CURVE",
"36 51 LINE",
"97 3 OFFCURVE",
"209 -22 OFFCURVE",
"319 -21 CURVE SMOOTH",
"506 -19 OFFCURVE",
"591 74 OFFCURVE",
"596 167 CURVE SMOOTH",
"598 197 OFFCURVE",
"573 305 OFFCURVE",
"408 348 CURVE SMOOTH",
"331 368 OFFCURVE",
"233 373 OFFCURVE",
"228 422 CURVE SMOOTH",
"220 498 OFFCURVE",
"292 493 OFFCURVE",
"343 488 CURVE SMOOTH",
"388 484 OFFCURVE",
"436 477 OFFCURVE",
"481 451 CURVE",
"520 550 LINE"
);
}
);
width = 629;
}
);
unicode = 0073;
},
{
glyphname = saltillo;
lastChange = "2019-09-02 15:01:09 +0000";
layers = (
{
layerId = "BA196CD0-EE58-4274-B8DF-4393D3617A29";
paths = (
{
closed = 1;
nodes = (
"116 336 LINE",
"163 336 LINE",
"201 758 LINE",
"80 758 LINE"
);
}
);
width = 281;
},
{
layerId = "BBDB329E-CE83-4304-A6B1-53EA5ACC004E";
paths = (
{
closed = 1;
nodes = (
"251 309 LINE",
"348 309 LINE",
"391 785 LINE",
"211 785 LINE"
);
}
);
width = 600;
}
);
unicode = A78C;
},
{
glyphname = germandbls;
lastChange = "2019-09-05 19:28:17 +0000";
layers = (
{
hints = (
{
horizontal = 1;
origin = "{0, 50}";
type = Anchor;
options = 4;
},
{
horizontal = 1;
origin = "{0, 4}";
target = "{0, 46}";
type = TTStem;
options = 4;
},
{
horizontal = 1;
origin = "{0, 30}";
target = "{0, 23}";
type = TTStem;
options = 4;
}
);
layerId = "BA196CD0-EE58-4274-B8DF-4393D3617A29";
paths = (
{
closed = 1;
nodes = (
"215 0 LINE",
"191 553 LINE",
"204 665 OFFCURVE",
"246 705 OFFCURVE",
"330 705 CURVE SMOOTH",
"404 705 OFFCURVE",
"437 699 OFFCURVE",
"488 580 CURVE",
"357 561 OFFCURVE",
"328 502 OFFCURVE",
"328 420 CURVE SMOOTH",
"328 366 OFFCURVE",
"363 319 OFFCURVE",
"393 281 CURVE",
"433 254 LINE",
"465 234 OFFCURVE",
"487 217 OFFCURVE",
"497 203 CURVE SMOOTH",
"506 189 OFFCURVE",
"511 176 OFFCURVE",
"511 162 CURVE SMOOTH",
"511 122 OFFCURVE",
"471 100 OFFCURVE",
"395 100 CURVE SMOOTH",
"353 100 OFFCURVE",
"309 109 OFFCURVE",
"256 129 CURVE",
"256 10 LINE",
"304 -6 OFFCURVE",
"348 -14 OFFCURVE",
"390 -14 CURVE SMOOTH",
"527 -14 OFFCURVE",
"602 47 OFFCURVE",
"602 159 CURVE SMOOTH",
"602 224 OFFCURVE",
"582 260 OFFCURVE",
"475 329 CURVE SMOOTH",
"447 347 LINE SMOOTH",
"404 375 OFFCURVE",
"387 399 OFFCURVE",
"387 430 CURVE SMOOTH",
"387 493 OFFCURVE",
"444 532 OFFCURVE",
"542 537 CURVE",
"542 683 OFFCURVE",
"468 760 OFFCURVE",
"332 760 CURVE SMOOTH",
"190 760 OFFCURVE",
"109 686 OFFCURVE",
"109 555 CURVE",
"80 0 LINE"
);
}
);
width = 682;
},
{
layerId = "BBDB329E-CE83-4304-A6B1-53EA5ACC004E";
paths = (
{
closed = 1;
nodes = (
"243 -27 LINE",
"218 552 LINE",
"229 646 OFFCURVE",
"259 678 OFFCURVE",
"330 678 CURVE SMOOTH",
"396 678 OFFCURVE",
"417 668 OFFCURVE",
"449 600 CURVE",
"347 577 OFFCURVE",
"301 521 OFFCURVE",
"301 420 CURVE SMOOTH",
"301 355 OFFCURVE",
"344 299 OFFCURVE",
"374 261 CURVE",
"418 231 LINE",
"449 212 OFFCURVE",
"467 198 OFFCURVE",
"475 188 CURVE",
"482 177 OFFCURVE",
"484 170 OFFCURVE",
"484 162 CURVE SMOOTH",
"484 141 OFFCURVE",
"457 127 OFFCURVE",
"395 127 CURVE SMOOTH",
"347 127 OFFCURVE",
"296 140 OFFCURVE",
"229 169 CURVE",
"229 -9 LINE",
"287 -31 OFFCURVE",
"340 -41 OFFCURVE",
"390 -41 CURVE SMOOTH",
"542 -41 OFFCURVE",
"629 32 OFFCURVE",
"629 159 CURVE SMOOTH",
"629 239 OFFCURVE",
"597 282 OFFCURVE",
"490 352 CURVE SMOOTH",
"462 370 LINE SMOOTH",
"426 393 OFFCURVE",
"414 409 OFFCURVE",
"414 430 CURVE SMOOTH",
"414 476 OFFCURVE",
"459 506 OFFCURVE",
"543 510 CURVE",
"569 537 LINE",
"569 697 OFFCURVE",
"484 787 OFFCURVE",
"332 787 CURVE SMOOTH",
"175 787 OFFCURVE",
"82 701 OFFCURVE",
"82 556 CURVE",
"52 -27 LINE"
);
}
);
width = 682;
}
);
unicode = 00DF;
},
{
color = 7;
glyphname = t;
lastChange = "2019-09-11 00:12:07 +0000";
layers = (
{
anchors = (
{
name = bottom;
position = "{333, 3}";
},
{
name = caron;
position = "{376, 616}";
},
{
name = center;
position = "{242, 341}";
},
{
name = circumflexbelowcomb;
position = "{331, 0}";
},
{
name = curl;
position = "{447, 584}";
},
{
name = top;
position = "{266, 708}";
},
{
name = top_hook;
position = "{252, 639}";
},
{
name = topright;
position = "{541, 500}";
}
);
hints = (
{
horizontal = 1;
origin = "{0, 14}";
target = "{0, 6}";
type = TTStem;
options = 4;
},
{
horizontal = 1;
origin = "{1, 3}";
target = "{1, 2}";
type = TTStem;
options = 4;
}
);
layerId = "BA196CD0-EE58-4274-B8DF-4393D3617A29";
paths = (
{
closed = 1;
nodes = (
"247 0 OFFCURVE",
"423 0 OFFCURVE",
"460 2 CURVE",
"441 130 LINE",
"282 134 OFFCURVE",
"278 132 OFFCURVE",
"282 221 CURVE SMOOTH",
"306 737 LINE",
"202 677 LINE",
"177 371 OFFCURVE",
"162 74 OFFCURVE",
"162 50 CURVE SMOOTH",
"162 43 OFFCURVE",
"166 0 OFFCURVE",
"200 0 CURVE SMOOTH"
);
},
{
closed = 1;
nodes = (
"466 480 LINE",
"448 547 LINE",
"89 547 LINE",
"60 480 LINE"
);
}
);
width = 566;
},
{
anchors = (
{
name = bottom;
position = "{333, -59}";
},
{
name = caron;
position = "{376, 616}";
},
{
name = center;
position = "{242, 341}";
},
{
name = circumflexbelowcomb;
position = "{331, 0}";
},
{
name = curl;
position = "{447, 584}";
},
{
name = top;
position = "{266, 770}";
},
{
name = top_hook;
position = "{252, 692}";
},
{
name = topright;
position = "{541, 500}";
}
);
layerId = "BBDB329E-CE83-4304-A6B1-53EA5ACC004E";
paths = (
{
closed = 1;
nodes = (
"478 156 LINE",
"372 155 OFFCURVE",
"313 155 OFFCURVE",
"299 155 CURVE",
"325 764 LINE",
"178 704 LINE",
"153 382 OFFCURVE",
"162 96 OFFCURVE",
"161 70 CURVE SMOOTH",
"160 23 OFFCURVE",
"165 4 OFFCURVE",
"213 0 CURVE SMOOTH",
"224 -1 OFFCURVE",
"337 0 OFFCURVE",
"489 0 CURVE"
);
},
{
closed = 1;
nodes = (
"501 441 LINE",
"469 562 LINE",
"71 562 LINE",
"19 441 LINE"
);
}
);
width = 566;
}
);
unicode = 0074;
},
{
glyphname = tesh;
lastChange = "2019-09-05 19:28:17 +0000";
layers = (
{
components = (
{
name = t;
transform = "{1, 0, 0.03492, 1, -19, 0}";
},
{
name = esh;
transform = "{0.97435, 0.22503, -0.22503, 0.97435, 233, -67}";
}
);
hints = (
{
horizontal = 1;
origin = "{0, 0}";
target = "{0, 3}";
type = TTStem;
options = 4;
}
);
layerId = "BA196CD0-EE58-4274-B8DF-4393D3617A29";
paths = (
{
closed = 1;
nodes = (
"396 549 LINE",
"546 549 LINE",
"546 615 LINE",
"396 615 LINE"
);
}
);
width = 921;
},
{
components = (
{
name = t;
transform = "{1, 0, 0.03492, 1, -19, 0}";
},
{
name = esh;
transform = "{0.97435, 0.22503, -0.22503, 0.97435, 233, -67}";
}
);
layerId = "BBDB329E-CE83-4304-A6B1-53EA5ACC004E";
paths = (
{
closed = 1;
nodes = (
"369 522 LINE",
"573 522 LINE",
"573 642 LINE",
"369 642 LINE"
);
}
);
width = 921;
}
);
unicode = 02A7;
},
{
glyphname = tretroflexhook;
lastChange = "2019-09-05 19:28:17 +0000";
layers = (
{
anchors = (
{
name = bottom;
position = "{338, 0}";
},
{
name = caron;
position = "{376, 616}";
},
{
name = center;
position = "{242, 341}";
},
{
name = circumflexbelowcomb;
position = "{347, -25}";
},
{
name = curl;
position = "{447, 584}";
},
{
name = top;
position = "{254, 661}";
},
{
name = top_hook;
position = "{252, 639}";
},
{
name = topright;
position = "{541, 500}";
}
);
hints = (
{
horizontal = 1;
origin = "{1, 10}";
target = "{1, 2}";
type = TTStem;
options = 4;
},
{
horizontal = 1;
origin = "{0, 0}";
target = "{0, 3}";
type = TTStem;
options = 4;
}
);
layerId = "BA196CD0-EE58-4274-B8DF-4393D3617A29";
paths = (
{
closed = 1;
nodes = (
"80 548 LINE",
"486 548 LINE",
"468 615 LINE",
"109 615 LINE"
);
},
{
closed = 1;
nodes = (
"404 11 OFFCURVE",
"333 11 OFFCURVE",
"282 11 CURVE",
"316 737 LINE",
"222 737 LINE",
"197 499 OFFCURVE",
"162 -66 OFFCURVE",
"162 -90 CURVE SMOOTH",
"162 -97 OFFCURVE",
"166 -140 OFFCURVE",
"200 -140 CURVE SMOOTH",
"247 -140 OFFCURVE",
"393 -140 OFFCURVE",
"430 -138 CURVE",
"422 10 LINE"
);
}
);
width = 566;
},
{
anchors = (
{
name = bottom;
position = "{338, 0}";
},
{
name = caron;
position = "{376, 616}";
},
{
name = center;
position = "{242, 341}";
},
{
name = circumflexbelowcomb;
position = "{347, -25}";
},
{
name = curl;
position = "{447, 584}";
},
{
name = top;
position = "{254, 661}";
},
{
name = top_hook;
position = "{252, 639}";
},
{
name = topright;
position = "{541, 500}";
}
);
layerId = "BBDB329E-CE83-4304-A6B1-53EA5ACC004E";
paths = (
{
closed = 1;
nodes = (
"39 521 LINE",
"521 521 LINE",
"489 642 LINE",
"91 642 LINE"
);
},
{
closed = 1;
nodes = (
"408 38 OFFCURVE",
"356 38 OFFCURVE",
"310 38 CURVE",
"344 764 LINE",
"198 764 LINE",
"173 542 OFFCURVE",
"135 -64 OFFCURVE",
"135 -90 CURVE SMOOTH",
"135 -131 OFFCURVE",
"161 -167 OFFCURVE",
"200 -167 CURVE",
"158 -167 OFFCURVE",
"195 -167 OFFCURVE",
"459 -168 CURVE",
"448 36 LINE"
);
}
);
width = 566;
}
);
unicode = 0288;
},
{
glyphname = ts;
lastChange = "2019-09-02 15:01:06 +0000";
layers = (
{
components = (
{
alignment = -1;
name = s;
transform = "{1, 0, 0, 1.05709, 357, 15}";
},
{
alignment = -1;
name = t;
transform = "{0.93149, 0, 0, 1, 5, 0}";
}
);
layerId = "BA196CD0-EE58-4274-B8DF-4393D3617A29";
paths = (
{
closed = 1;
nodes = (
"335 549 LINE",
"693 549 LINE",
"693 612 LINE",
"335 615 LINE"
);
}
);
width = 986;
},
{
components = (
{
alignment = -1;
name = s;
transform = "{1, 0, 0, 1.05709, 357, 15}";
},
{
alignment = -1;
name = t;
transform = "{0.93149, 0, 0, 1, 5, 0}";
}
);
layerId = "BBDB329E-CE83-4304-A6B1-53EA5ACC004E";
paths = (
{
closed = 1;
nodes = (
"308 522 LINE",
"720 522 LINE",
"720 639 LINE",
"308 642 LINE"
);
}
);
width = 986;
}
);
unicode = 02A6;
},
{
color = 7;
glyphname = u;
lastChange = "2019-09-11 00:23:36 +0000";
layers = (
{
anchors = (
{
name = bottom;
position = "{327, 0}";
},
{
name = horn;
position = "{571, 456}";
},
{
name = ogonek;
position = "{512, 5}";
},
{
name = top;
position = "{314, 630}";
},
{
name = topright;
position = "{629, 500}";
}
);
hints = (
{
horizontal = 1;
origin = "{0, 19}";
target = "{0, 10}";
type = TTStem;
options = 4;
},
{
horizontal = 1;
origin = "{0, 3}";
target = "{0, 10}";
type = TTStem;
options = 4;
}
);
layerId = "BA196CD0-EE58-4274-B8DF-4393D3617A29";
paths = (
{
closed = 1;
nodes = (
"351 -16 OFFCURVE",
"435 -6 OFFCURVE",
"469 84 CURVE",
"465 0 LINE",
"574 0 LINE",
"554 560 LINE",
"455 560 LINE",
"448 305 LINE SMOOTH",
"445 189 OFFCURVE",
"440 162 OFFCURVE",
"313 161 CURVE SMOOTH",
"196 160 OFFCURVE",
"204 188 OFFCURVE",
"196 297 CURVE SMOOTH",
"176 560 LINE",
"80 560 LINE",
"101 216 LINE SMOOTH",
"113 27 OFFCURVE",
"170 -16 OFFCURVE",
"293 -16 CURVE SMOOTH"
);
}
);
width = 654;
},
{
anchors = (
{
name = bottom;
position = "{327, 0}";
},
{
name = horn;
position = "{571, 456}";
},
{
name = ogonek;
position = "{512, 5}";
},
{
name = top;
position = "{331, 666}";
},
{
name = topright;
position = "{629, 500}";
}
);
layerId = "BBDB329E-CE83-4304-A6B1-53EA5ACC004E";
paths = (
{
closed = 1;
nodes = (
"358 -17 OFFCURVE",
"404 -6 OFFCURVE",
"438 19 CURVE",
"437 0 LINE",
"602 0 LINE",
"580 574 LINE",
"439 574 LINE",
"428 317 LINE",
"419 167 OFFCURVE",
"380 159 OFFCURVE",
"314 167 CURVE SMOOTH",
"233 177 OFFCURVE",
"211 199 OFFCURVE",
"203 299 CURVE SMOOTH",
"180 574 LINE",
"51 574 LINE",
"74 214 LINE SMOOTH",
"84 52 OFFCURVE",
"143 -17 OFFCURVE",
"293 -17 CURVE SMOOTH"
);
}
);
width = 654;
}
);
unicode = 0075;
},
{
color = 7;
glyphname = v;
lastChange = "2019-09-11 00:24:06 +0000";
layers = (
{
anchors = (
{
name = bottom;
position = "{377, 0}";
},
{
name = top;
position = "{377, 500}";
}
);
hints = (
{
horizontal = 1;
origin = "{0, 8}";
type = Anchor;
options = 4;
},
{
horizontal = 1;
origin = "{0, 8}";
target = "{0, 4}";
type = TTStem;
options = 4;
}
);
layerId = "BA196CD0-EE58-4274-B8DF-4393D3617A29";
paths = (
{
closed = 1;
nodes = (
"474 0 LINE",
"494 144 LINE",
"674 547 LINE",
"579 547 LINE",
"387 146 LINE",
"175 547 LINE",
"80 547 LINE",
"262 144 LINE",
"290 0 LINE"
);
}
);
width = 754;
},
{
anchors = (
{
name = bottom;
position = "{377, 0}";
},
{
name = top;
position = "{377, 570}";
}
);
layerId = "BBDB329E-CE83-4304-A6B1-53EA5ACC004E";
paths = (
{
closed = 1;
nodes = (
"498 -1 LINE",
"520 136 LINE",
"716 574 LINE",
"562 574 LINE",
"386 206 LINE",
"191 574 LINE",
"38 574 LINE",
"236 136 LINE",
"268 -1 LINE"
);
}
);
width = 754;
}
);
unicode = 0076;
},
{
glyphname = vhook;
lastChange = "2019-09-05 19:28:17 +0000";
layers = (
{
anchors = (
{
name = _vhook;
position = "{410, 456}";
},
{
name = bottom;
position = "{356, 0}";
},
{
name = horn;
position = "{520, 446}";
},
{
name = ogonek;
position = "{349, -48}";
},
{
name = top;
position = "{343, 506}";
},
{
name = topright;
position = "{608, 500}";
}
);
hints = (
{
horizontal = 1;
origin = "{0, 2}";
target = "{0, 15}";
type = TTStem;
options = 4;
},
{
horizontal = 1;
origin = "{0, 9}";
target = "{0, 8}";
type = TTStem;
options = 4;
}
);
layerId = "BA196CD0-EE58-4274-B8DF-4393D3617A29";
paths = (
{
closed = 1;
nodes = (
"80 27 OFFCURVE",
"170 -16 OFFCURVE",
"293 -16 CURVE SMOOTH",
"499 -16 OFFCURVE",
"480 161 OFFCURVE",
"480 258 CURVE SMOOTH",
"480 469 OFFCURVE",
"498 570 OFFCURVE",
"309 570 CURVE",
"309 495 LINE",
"402 495 OFFCURVE",
"391 410 OFFCURVE",
"391 354 CURVE SMOOTH",
"391 197 OFFCURVE",
"390 140 OFFCURVE",
"293 140 CURVE SMOOTH",
"212 140 OFFCURVE",
"165 140 OFFCURVE",
"165 297 CURVE SMOOTH",
"165 547 LINE",
"80 547 LINE",
"80 216 LINE SMOOTH"
);
}
);
width = 560;
},
{
anchors = (
{
name = _vhook;
position = "{410, 456}";
},
{
name = bottom;
position = "{356, 0}";
},
{
name = horn;
position = "{520, 446}";
},
{
name = ogonek;
position = "{349, -48}";
},
{
name = top;
position = "{343, 506}";
},
{
name = topright;
position = "{608, 500}";
}
);
layerId = "BBDB329E-CE83-4304-A6B1-53EA5ACC004E";
paths = (
{
closed = 1;
nodes = (
"53 38 OFFCURVE",
"129 -43 OFFCURVE",
"293 -43 CURVE SMOOTH",
"529 -43 OFFCURVE",
"507 162 OFFCURVE",
"507 258 CURVE SMOOTH",
"507 475 OFFCURVE",
"532 607 OFFCURVE",
"282 596 CURVE",
"282 467 LINE",
"357 471 OFFCURVE",
"364 466 OFFCURVE",
"364 354 CURVE SMOOTH",
"364 183 OFFCURVE",
"357 167 OFFCURVE",
"293 167 CURVE SMOOTH",
"212 167 OFFCURVE",
"192 167 OFFCURVE",
"192 297 CURVE SMOOTH",
"192 574 LINE",
"53 574 LINE",
"53 216 LINE SMOOTH"
);
}
);
width = 560;
}
);
unicode = 028B;
},
{
color = 7;
glyphname = w;
lastChange = "2019-09-11 05:15:58 +0000";
layers = (
{
anchors = (
{
name = bottom;
position = "{447, 0}";
},
{
name = top;
position = "{447, 627}";
},
{
name = top_hook;
position = "{900, 289}";
}
);
hints = (
{
horizontal = 1;
origin = "{0, 12}";
type = Anchor;
options = 4;
}
);
layerId = "BA196CD0-EE58-4274-B8DF-4393D3617A29";
paths = (
{
closed = 1;
nodes = (
"344 0 LINE",
"447 169 LINE",
"546 0 LINE",
"671 0 LINE",
"814 547 LINE",
"694 547 LINE",
"612 208 LINE",
"478 393 LINE",
"416 393 LINE",
"282 208 LINE",
"200 547 LINE",
"80 547 LINE",
"223 0 LINE"
);
}
);
width = 894;
},
{
anchors = (
{
name = bottom;
position = "{447, 0}";
},
{
name = top;
position = "{447, 627}";
},
{
name = top_hook;
position = "{879, 311}";
}
);
layerId = "BBDB329E-CE83-4304-A6B1-53EA5ACC004E";
paths = (
{
closed = 1;
nodes = (
"360 -27 LINE",
"447 132 LINE",
"530 -27 LINE",
"692 -27 LINE",
"849 574 LINE",
"694 574 LINE",
"595 263 LINE",
"493 450 LINE",
"401 450 LINE",
"289 263 LINE",
"200 574 LINE",
"45 574 LINE",
"202 -27 LINE"
);
}
);
width = 894;
}
);
unicode = 0077;
},
{
color = 7;
glyphname = x;
lastChange = "2019-09-11 00:30:40 +0000";
layers = (
{
anchors = (
{
name = bottom;
position = "{395, 0}";
},
{
name = top;
position = "{395, 500}";
}
);
hints = (
{
horizontal = 1;
origin = "{0, 3}";
type = Anchor;
options = 4;
}
);
layerId = "BA196CD0-EE58-4274-B8DF-4393D3617A29";
paths = (
{
closed = 1;
nodes = (
"238 -1 LINE",
"653 560 LINE",
"542 560 LINE",
"89 -1 LINE"
);
},
{
closed = 1;
nodes = (
"674 -1 LINE",
"277 560 LINE",
"161 560 LINE",
"524 -1 LINE"
);
}
);
width = 789;
},
{
anchors = (
{
name = bottom;
position = "{383, 13}";
},
{
name = top;
position = "{395, 500}";
}
);
layerId = "BBDB329E-CE83-4304-A6B1-53EA5ACC004E";
paths = (
{
closed = 1;
nodes = (
"506 -1 LINE",
"720 -1 LINE",
"282 564 LINE",
"117 564 LINE"
);
},
{
closed = 1;
nodes = (
"45 -1 LINE",
"260 -1 LINE",
"689 564 LINE",
"528 564 LINE"
);
}
);
width = 789;
}
);
leftKerningGroup = Round;
unicode = 0078;
},
{
color = 7;
glyphname = y;
lastChange = "2019-09-11 00:41:23 +0000";
layers = (
{
anchors = (
{
name = bottom;
position = "{361, 0}";
},
{
name = top;
position = "{357, 700}";
},
{
name = top_hook;
position = "{673, 319}";
}
);
hints = (
{
horizontal = 1;
origin = "{0, 14}";
target = "{0, 13}";
type = TTStem;
options = 4;
}
);
layerId = "BA196CD0-EE58-4274-B8DF-4393D3617A29";
paths = (
{
closed = 1;
nodes = (
"192 -258 LINE SMOOTH",
"272 -258 OFFCURVE",
"436 -193 OFFCURVE",
"473 -34 CURVE SMOOTH",
"612 561 LINE",
"516 561 LINE",
"399 179 LINE",
"175 561 LINE",
"80 561 LINE",
"328 53 LINE SMOOTH",
"378 -50 OFFCURVE",
"250 -129 OFFCURVE",
"173 -129 CURVE SMOOTH",
"110 -129 LINE",
"110 -258 LINE"
);
}
);
width = 692;
},
{
anchors = (
{
name = bottom;
position = "{346, 0}";
},
{
name = top;
position = "{357, 630}";
},
{
name = top_hook;
position = "{673, 319}";
}
);
layerId = "BBDB329E-CE83-4304-A6B1-53EA5ACC004E";
paths = (
{
closed = 1;
nodes = (
"498 561 LINE",
"391 219 LINE",
"189 561 LINE",
"31 561 LINE",
"294 30 LINE SMOOTH",
"334 -50 OFFCURVE",
"239 -112 OFFCURVE",
"173 -112 CURVE SMOOTH",
"83 -112 LINE",
"83 -285 LINE",
"192 -285 LINE SMOOTH",
"313 -285 OFFCURVE",
"403 -210 OFFCURVE",
"434 -113 CURVE SMOOTH",
"650 561 LINE"
);
}
);
width = 692;
}
);
unicode = 0079;
},
{
color = 7;
glyphname = z;
lastChange = "2019-09-11 00:44:58 +0000";
layers = (
{
anchors = (
{
name = _right_el;
position = "{183, 539}";
},
{
name = bottom;
position = "{336, 0}";
},
{
name = bottomhook;
position = "{472, 27}";
},
{
name = center;
position = "{336, 288}";
},
{
name = top;
position = "{349, 557}";
}
);
hints = (
{
horizontal = 1;
origin = "{0, 9}";
target = "{0, 2}";
type = TTStem;
options = 4;
},
{
horizontal = 1;
origin = "{0, 6}";
target = "{0, 5}";
type = TTStem;
options = 4;
}
);
layerId = "BA196CD0-EE58-4274-B8DF-4393D3617A29";
paths = (
{
closed = 1;
nodes = (
"581 0 LINE",
"524 121 LINE",
"259 121 LINE",
"591 470 LINE",
"578 560 LINE",
"164 560 LINE",
"164 464 LINE",
"455 464 LINE",
"104 131 LINE",
"80 0 LINE"
);
}
);
width = 671;
},
{
anchors = (
{
name = _right_el;
position = "{183, 539}";
},
{
name = bottom;
position = "{336, 0}";
},
{
name = bottomhook;
position = "{472, 27}";
},
{
name = center;
position = "{336, 288}";
},
{
name = top;
position = "{373, 582}";
}
);
layerId = "BBDB329E-CE83-4304-A6B1-53EA5ACC004E";
paths = (
{
closed = 1;
nodes = (
"413 455 LINE",
"79 145 LINE",
"48 -1 LINE",
"624 -1 LINE",
"541 148 LINE",
"303 148 LINE",
"620 473 LINE",
"600 576 LINE",
"142 576 LINE",
"142 455 LINE"
);
}
);
width = 671;
}
);
unicode = 007A;
},
{
glyphname = zcurl;
lastChange = "2019-09-05 19:28:17 +0000";
layers = (
{
anchors = (
{
name = _right_el;
position = "{204, 514}";
},
{
name = bottom;
position = "{336, 0}";
},
{
name = center;
position = "{336, 288}";
},
{
name = top;
position = "{349, 547}";
}
);
hints = (
{
horizontal = 1;
origin = "{0, 2}";
target = "{0, 17}";
type = TTStem;
options = 4;
},
{
horizontal = 1;
place = "{175.24, 86.41}";
type = TTStem;
options = 4;
},
{
horizontal = 1;
origin = "{0, 21}";
target = "{0, 20}";
type = TTStem;
options = 4;
}
);
layerId = "BA196CD0-EE58-4274-B8DF-4393D3617A29";
paths = (
{
closed = 1;
nodes = (
"482 482 LINE",
"104 131 LINE",
"80 0 LINE",
"509 0 LINE SMOOTH",
"641 0 OFFCURVE",
"707 219 OFFCURVE",
"569 255 CURVE SMOOTH",
"433 291 OFFCURVE",
"383 181 OFFCURVE",
"383 -193 CURVE",
"482 -193 LINE",
"482 175 OFFCURVE",
"517 192 OFFCURVE",
"545 169 CURVE SMOOTH",
"557 159 OFFCURVE",
"572 121 OFFCURVE",
"479 121 CURVE SMOOTH",
"239 121 LINE",
"591 482 LINE",
"578 549 LINE",
"169 549 LINE",
"169 482 LINE"
);
}
);
width = 726;
},
{
anchors = (
{
name = _right_el;
position = "{204, 514}";
},
{
name = bottom;
position = "{336, 0}";
},
{
name = center;
position = "{336, 288}";
},
{
name = top;
position = "{349, 547}";
}
);
layerId = "BBDB329E-CE83-4304-A6B1-53EA5ACC004E";
paths = (
{
closed = 1;
nodes = (
"413 455 LINE",
"79 145 LINE",
"48 -27 LINE",
"509 -27 LINE SMOOTH",
"679 -27 OFFCURVE",
"739 239 OFFCURVE",
"576 281 CURVE SMOOTH",
"410 325 OFFCURVE",
"353 186 OFFCURVE",
"356 -220 CURVE",
"509 -220 LINE",
"507 -24 OFFCURVE",
"527 149 OFFCURVE",
"528 148 CURVE",
"527 149 OFFCURVE",
"482 148 OFFCURVE",
"479 148 CURVE SMOOTH",
"303 148 LINE",
"620 473 LINE",
"600 576 LINE",
"142 576 LINE",
"142 455 LINE"
);
}
);
width = 726;
}
);
unicode = 0291;
},
{
glyphname = zretroflexhook;
lastChange = "2019-09-05 19:28:17 +0000";
layers = (
{
components = (
{
name = z;
},
{
name = od_hook;
transform = "{1, 0, 0, 1, 243, -335}";
}
);
hints = (
{
horizontal = 1;
origin = "{0, 0}";
target = "{0, 3}";
type = TTStem;
options = 4;
}
);
layerId = "BA196CD0-EE58-4274-B8DF-4393D3617A29";
paths = (
{
closed = 1;
nodes = (
"524 0 LINE",
"599 0 LINE",
"599 121 LINE",
"485 121 LINE"
);
}
);
width = 679;
},
{
components = (
{
name = z;
},
{
name = od_hook;
transform = "{1, 0, 0, 1, 383, -335}";
}
);
layerId = "BBDB329E-CE83-4304-A6B1-53EA5ACC004E";
paths = (
{
closed = 1;
nodes = (
"504 -27 LINE",
"626 -27 LINE",
"626 148 LINE",
"448 148 LINE"
);
}
);
width = 679;
}
);
unicode = 0290;
},
{
color = 7;
glyphname = a.ss01;
lastChange = "2019-09-05 19:28:17 +0000";
layers = (
{
anchors = (
{
name = bottom;
position = "{342, 0}";
},
{
name = ogonek;
position = "{503, 29}";
},
{
name = top;
position = "{331, 577}";
}
);
background = {
components = (
{
alignment = -1;
name = "";
transform = "{1, 0, 0, 1, 9, 150}";
},
{
alignment = -1;
name = "";
transform = "{1, 0, 0, 1, 9, 200}";
},
{
alignment = -1;
name = "";
transform = "{1, 0, 0, 1, 59, 50}";
},
{
alignment = -1;
name = "";
transform = "{1, 0, 0, 1, 59, 100}";
},
{
alignment = -1;
name = "";
transform = "{1, 0, 0, 1, 59, 150}";
},
{
alignment = -1;
name = "";
transform = "{1, 0, 0, 1, 59, 200}";
},
{
alignment = -1;
name = "";
transform = "{1, 0, 0, 1, 59, 250}";
},
{
alignment = -1;
name = "";
transform = "{1, 0, 0, 1, 59, 300}";
},
{
alignment = -1;
name = "";
transform = "{1, 0, 0, 1, 59, 350}";
},
{
alignment = -1;
name = "";
transform = "{1, 0, 0, 1, 109, 0}";
},
{
alignment = -1;
name = "";
transform = "{1, 0, 0, 1, 109, 50}";
},
{
alignment = -1;
name = "";
transform = "{1, 0, 0, 1, 109, 100}";
},
{
alignment = -1;
name = "";
transform = "{1, 0, 0, 1, 109, 400}";
},
{
alignment = -1;
name = "";
transform = "{1, 0, 0, 1, 159, 0}";
},
{
alignment = -1;
name = "";
transform = "{1, 0, 0, 1, 159, 50}";
},
{
alignment = -1;
name = "";
transform = "{1, 0, 0, 1, 159, 100}";
},
{
alignment = -1;
name = "";
transform = "{1, 0, 0, 1, 159, 450}";
},
{
alignment = -1;
name = "";
transform = "{1, 0, 0, 1, 209, 0}";
},
{
alignment = -1;
name = "";
transform = "{1, 0, 0, 1, 209, 50}";
},
{
alignment = -1;
name = "";
transform = "{1, 0, 0, 1, 209, 100}";
},
{
alignment = -1;
name = "";
transform = "{1, 0, 0, 1, 209, 450}";
},
{
alignment = -1;
name = "";
transform = "{1, 0, 0, 1, 259, 0}";
},
{
alignment = -1;
name = "";
transform = "{1, 0, 0, 1, 259, 50}";
},
{
alignment = -1;
name = "";
transform = "{1, 0, 0, 1, 259, 100}";
},
{
alignment = -1;
name = "";
transform = "{1, 0, 0, 1, 259, 450}";
},
{
alignment = -1;
name = "";
transform = "{1, 0, 0, 1, 309, 0}";
},
{
alignment = -1;
name = "";
transform = "{1, 0, 0, 1, 309, 50}";
},
{
alignment = -1;
name = "";
transform = "{1, 0, 0, 1, 309, 100}";
},
{
alignment = -1;
name = "";
transform = "{1, 0, 0, 1, 309, 450}";
},
{
alignment = -1;
name = "";
transform = "{1, 0, 0, 1, 359, 0}";
},
{
alignment = -1;
name = "";
transform = "{1, 0, 0, 1, 359, 50}";
},
{
alignment = -1;
name = "";
transform = "{1, 0, 0, 1, 359, 100}";
},
{
alignment = -1;
name = "";
transform = "{1, 0, 0, 1, 359, 450}";
},
{
alignment = -1;
name = "";
transform = "{1, 0, 0, 1, 409, 50}";
},
{
alignment = -1;
name = "";
transform = "{1, 0, 0, 1, 409, 100}";
},
{
alignment = -1;
name = "";
transform = "{1, 0, 0, 1, 409, 150}";
},
{
alignment = -1;
name = "";
transform = "{1, 0, 0, 1, 409, 200}";
},
{
alignment = -1;
name = "";
transform = "{1, 0, 0, 1, 409, 250}";
},
{
alignment = -1;
name = "";
transform = "{1, 0, 0, 1, 409, 300}";
},
{
alignment = -1;
name = "";
transform = "{1, 0, 0, 1, 409, 350}";
},
{
alignment = -1;
name = "";
transform = "{1, 0, 0, 1, 409, 400}";
},
{
alignment = -1;
name = "";
transform = "{1, 0, 0, 1, 409, 450}";
},
{
alignment = -1;
name = "";
transform = "{1, 0, 0, 1, 409, 500}";
},
{
alignment = -1;
name = "";
transform = "{1, 0, 0, 1, 459, 0}";
},
{
alignment = -1;
name = "";
transform = "{1, 0, 0, 1, 459, 50}";
},
{
alignment = -1;
name = "";
transform = "{1, 0, 0, 1, 459, 100}";
},
{
alignment = -1;
name = "";
transform = "{1, 0, 0, 1, 459, 150}";
},
{
alignment = -1;
name = "";
transform = "{1, 0, 0, 1, 459, 200}";
},
{
alignment = -1;
name = "";
transform = "{1, 0, 0, 1, 459, 250}";
},
{
alignment = -1;
name = "";
transform = "{1, 0, 0, 1, 459, 300}";
},
{
alignment = -1;
name = "";
transform = "{1, 0, 0, 1, 459, 350}";
}
);
paths = (
{
closed = 1;
nodes = (
"418 525 LINE",
"469 525 LINE",
"536 0 LINE",
"446 0 LINE",
"446 82 LINE",
"408 17 OFFCURVE",
"336 -14 OFFCURVE",
"256 -14 CURVE SMOOTH",
"94 -14 OFFCURVE",
"-6 105 OFFCURVE",
"39 273 CURVE SMOOTH",
"78 419 OFFCURVE",
"165 525 OFFCURVE",
"256 525 CURVE SMOOTH",
"327 525 OFFCURVE",
"394 504 OFFCURVE",
"430 446 CURVE"
);
},
{
closed = 1;
nodes = (
"71 175 OFFCURVE",
"94 136 OFFCURVE",
"244 138 CURVE SMOOTH",
"425 140 OFFCURVE",
"429 170 OFFCURVE",
"429 299 CURVE SMOOTH",
"429 448 OFFCURVE",
"322 476 OFFCURVE",
"255 476 CURVE",
"194 476 OFFCURVE",
"135 434 OFFCURVE",
"101 296 CURVE SMOOTH"
);
}
);
};
hints = (
{
horizontal = 1;
origin = "{1, 14}";
target = "{0, 9}";
type = TTStem;
options = 4;
},
{
horizontal = 1;
origin = "{0, 0}";
target = "{1, 20}";
type = TTStem;
options = 4;
},
{
horizontal = 1;
origin = "{1, 27}";
target = "{1, 40}";
type = TTStem;
options = 4;
},
{
horizontal = 1;
origin = "{1, 34}";
type = Anchor;
options = 4;
},
{
horizontal = 1;
origin = "{1, 4}";
type = Anchor;
options = 4;
},
{
horizontal = 1;
place = "{53.98, 68.02}";
type = TTStem;
options = 4;
}
);
layerId = "BA196CD0-EE58-4274-B8DF-4393D3617A29";
paths = (
{
closed = 1;
nodes = (
"297 276 LINE SMOOTH",
"187 276 OFFCURVE",
"153 252 OFFCURVE",
"148 196 CURVE SMOOTH",
"147 186 OFFCURVE",
"147 178 OFFCURVE",
"151 167 CURVE SMOOTH",
"164 126 OFFCURVE",
"204 122 OFFCURVE",
"257 122 CURVE SMOOTH",
"338 122 OFFCURVE",
"370 141 OFFCURVE",
"370 256 CURVE SMOOTH",
"370 252 LINE SMOOTH",
"370 268 OFFCURVE",
"361 276 OFFCURVE",
"348 276 CURVE SMOOTH"
);
},
{
closed = 1;
nodes = (
"496 24 LINE SMOOTH",
"496 9 OFFCURVE",
"496 21 OFFCURVE",
"496 0 CURVE",
"415 0 LINE",
"415 13 OFFCURVE",
"415 8 OFFCURVE",
"415 24 CURVE SMOOTH",
"415 35 LINE SMOOTH",
"415 56 OFFCURVE",
"405 60 OFFCURVE",
"390 45 CURVE SMOOTH",
"355 6 OFFCURVE",
"308 -14 OFFCURVE",
"244 -14 CURVE SMOOTH",
"145 -14 OFFCURVE",
"80 53 OFFCURVE",
"80 157 CURVE SMOOTH",
"80 279 OFFCURVE",
"154 342 OFFCURVE",
"301 342 CURVE SMOOTH",
"393 342 LINE SMOOTH",
"407 342 OFFCURVE",
"415 345 OFFCURVE",
"415 350 CURVE SMOOTH",
"415 433 OFFCURVE",
"370 482 OFFCURVE",
"275 489 CURVE",
"228 489 OFFCURVE",
"183 478 OFFCURVE",
"142 458 CURVE SMOOTH",
"127 450 OFFCURVE",
"129 452 OFFCURVE",
"116 441 CURVE",
"116 516 LINE",
"119 517 OFFCURVE",
"122 519 OFFCURVE",
"134 524 CURVE SMOOTH",
"186 545 OFFCURVE",
"236 554 OFFCURVE",
"283 554 CURVE SMOOTH",
"426 554 OFFCURVE",
"496 474 OFFCURVE",
"496 309 CURVE SMOOTH"
);
}
);
width = 576;
},
{
anchors = (
{
name = bottom;
position = "{382, 0}";
},
{
name = ogonek;
position = "{543, 29}";
},
{
name = top;
position = "{371, 577}";
}
);
background = {
components = (
{
alignment = -1;
name = "";
transform = "{1, 0, 0, 1, 49, 150}";
},
{
alignment = -1;
name = "";
transform = "{1, 0, 0, 1, 49, 200}";
},
{
alignment = -1;
name = "";
transform = "{1, 0, 0, 1, 99, 50}";
},
{
alignment = -1;
name = "";
transform = "{1, 0, 0, 1, 99, 100}";
},
{
alignment = -1;
name = "";
transform = "{1, 0, 0, 1, 99, 150}";
},
{
alignment = -1;
name = "";
transform = "{1, 0, 0, 1, 99, 200}";
},
{
alignment = -1;
name = "";
transform = "{1, 0, 0, 1, 99, 250}";
},
{
alignment = -1;
name = "";
transform = "{1, 0, 0, 1, 99, 300}";
},
{
alignment = -1;
name = "";
transform = "{1, 0, 0, 1, 99, 350}";
},
{
alignment = -1;
name = "";
transform = "{1, 0, 0, 1, 149, 0}";
},
{
alignment = -1;
name = "";
transform = "{1, 0, 0, 1, 149, 50}";
},
{
alignment = -1;
name = "";
transform = "{1, 0, 0, 1, 149, 100}";
},
{
alignment = -1;
name = "";
transform = "{1, 0, 0, 1, 149, 400}";
},
{
alignment = -1;
name = "";
transform = "{1, 0, 0, 1, 199, 0}";
},
{
alignment = -1;
name = "";
transform = "{1, 0, 0, 1, 199, 50}";
},
{
alignment = -1;
name = "";
transform = "{1, 0, 0, 1, 199, 100}";
},
{
alignment = -1;
name = "";
transform = "{1, 0, 0, 1, 199, 450}";
},
{
alignment = -1;
name = "";
transform = "{1, 0, 0, 1, 249, 0}";
},
{
alignment = -1;
name = "";
transform = "{1, 0, 0, 1, 249, 50}";
},
{
alignment = -1;
name = "";
transform = "{1, 0, 0, 1, 249, 100}";
},
{
alignment = -1;
name = "";
transform = "{1, 0, 0, 1, 249, 450}";
},
{
alignment = -1;
name = "";
transform = "{1, 0, 0, 1, 299, 0}";
},
{
alignment = -1;
name = "";
transform = "{1, 0, 0, 1, 299, 50}";
},
{
alignment = -1;
name = "";
transform = "{1, 0, 0, 1, 299, 100}";
},
{
alignment = -1;
name = "";
transform = "{1, 0, 0, 1, 299, 450}";
},
{
alignment = -1;
name = "";
transform = "{1, 0, 0, 1, 349, 0}";
},
{
alignment = -1;
name = "";
transform = "{1, 0, 0, 1, 349, 50}";
},
{
alignment = -1;
name = "";
transform = "{1, 0, 0, 1, 349, 100}";
},
{
alignment = -1;
name = "";
transform = "{1, 0, 0, 1, 349, 450}";
},
{
alignment = -1;
name = "";
transform = "{1, 0, 0, 1, 399, 0}";
},
{
alignment = -1;
name = "";
transform = "{1, 0, 0, 1, 399, 50}";
},
{
alignment = -1;
name = "";
transform = "{1, 0, 0, 1, 399, 100}";
},
{
alignment = -1;
name = "";
transform = "{1, 0, 0, 1, 399, 450}";
},
{
alignment = -1;
name = "";
transform = "{1, 0, 0, 1, 449, 50}";
},
{
alignment = -1;
name = "";
transform = "{1, 0, 0, 1, 449, 100}";
},
{
alignment = -1;
name = "";
transform = "{1, 0, 0, 1, 449, 150}";
},
{
alignment = -1;
name = "";
transform = "{1, 0, 0, 1, 449, 200}";
},
{
alignment = -1;
name = "";
transform = "{1, 0, 0, 1, 449, 250}";
},
{
alignment = -1;
name = "";
transform = "{1, 0, 0, 1, 449, 300}";
},
{
alignment = -1;
name = "";
transform = "{1, 0, 0, 1, 449, 350}";
},
{
alignment = -1;
name = "";
transform = "{1, 0, 0, 1, 449, 400}";
},
{
alignment = -1;
name = "";
transform = "{1, 0, 0, 1, 449, 450}";
},
{
alignment = -1;
name = "";
transform = "{1, 0, 0, 1, 449, 500}";
},
{
alignment = -1;
name = "";
transform = "{1, 0, 0, 1, 499, 0}";
},
{
alignment = -1;
name = "";
transform = "{1, 0, 0, 1, 499, 50}";
},
{
alignment = -1;
name = "";
transform = "{1, 0, 0, 1, 499, 100}";
},
{
alignment = -1;
name = "";
transform = "{1, 0, 0, 1, 499, 150}";
},
{
alignment = -1;
name = "";
transform = "{1, 0, 0, 1, 499, 200}";
},
{
alignment = -1;
name = "";
transform = "{1, 0, 0, 1, 499, 250}";
},
{
alignment = -1;
name = "";
transform = "{1, 0, 0, 1, 499, 300}";
},
{
alignment = -1;
name = "";
transform = "{1, 0, 0, 1, 499, 350}";
}
);
paths = (
{
closed = 1;
nodes = (
"458 525 LINE",
"509 525 LINE",
"576 0 LINE",
"486 0 LINE",
"486 82 LINE",
"448 17 OFFCURVE",
"376 -14 OFFCURVE",
"296 -14 CURVE SMOOTH",
"134 -14 OFFCURVE",
"34 105 OFFCURVE",
"79 273 CURVE SMOOTH",
"118 419 OFFCURVE",
"205 525 OFFCURVE",
"296 525 CURVE SMOOTH",
"367 525 OFFCURVE",
"434 504 OFFCURVE",
"470 446 CURVE"
);
},
{
closed = 1;
nodes = (
"111 175 OFFCURVE",
"134 136 OFFCURVE",
"284 138 CURVE SMOOTH",
"465 140 OFFCURVE",
"469 170 OFFCURVE",
"469 299 CURVE SMOOTH",
"469 448 OFFCURVE",
"362 476 OFFCURVE",
"295 476 CURVE",
"234 476 OFFCURVE",
"175 434 OFFCURVE",
"141 296 CURVE SMOOTH"
);
}
);
};
layerId = "BBDB329E-CE83-4304-A6B1-53EA5ACC004E";
paths = (
{
closed = 1;
nodes = (
"388 249 OFFCURVE",
"383 254 OFFCURVE",
"383 252 CURVE",
"437 252 LINE",
"432 207 LINE",
"388 143 OFFCURVE",
"369 149 OFFCURVE",
"297 149 CURVE SMOOTH",
"231 149 OFFCURVE",
"219 157 OFFCURVE",
"214 185 CURVE",
"214 187 OFFCURVE",
"215 190 OFFCURVE",
"215 193 CURVE",
"219 235 OFFCURVE",
"244 249 OFFCURVE",
"337 249 CURVE SMOOTH",
"388 249 LINE"
);
},
{
closed = 1;
nodes = (
"536 466 OFFCURVE",
"466 554 OFFCURVE",
"323 554 CURVE SMOOTH",
"276 554 OFFCURVE",
"226 549 OFFCURVE",
"174 527 CURVE SMOOTH",
"162 522 OFFCURVE",
"159 520 OFFCURVE",
"156 519 CURVE",
"156 433 LINE",
"169 444 OFFCURVE",
"167 442 OFFCURVE",
"182 450 CURVE",
"223 470 OFFCURVE",
"259 481 OFFCURVE",
"306 481 CURVE",
"401 474 OFFCURVE",
"435 425 OFFCURVE",
"435 350 CURVE SMOOTH",
"435 345 OFFCURVE",
"418 342 OFFCURVE",
"404 342 CURVE SMOOTH",
"312 342 LINE SMOOTH",
"165 342 OFFCURVE",
"120 279 OFFCURVE",
"120 157 CURVE SMOOTH",
"120 53 OFFCURVE",
"185 -14 OFFCURVE",
"284 -14 CURVE SMOOTH",
"348 -14 OFFCURVE",
"395 6 OFFCURVE",
"430 45 CURVE",
"445 60 OFFCURVE",
"455 56 OFFCURVE",
"455 35 CURVE SMOOTH",
"455 24 LINE SMOOTH",
"455 8 OFFCURVE",
"455 13 OFFCURVE",
"455 0 CURVE",
"536 0 LINE",
"536 21 OFFCURVE",
"536 9 OFFCURVE",
"536 24 CURVE SMOOTH",
"536 309 LINE SMOOTH"
);
}
);
width = 656;
}
);
leftKerningGroup = Round;
},
